<?xml version="1.0" encoding="utf-8" standalone="no"?>
<!DOCTYPE svg PUBLIC "-//W3C//DTD SVG 1.1//EN"
  "http://www.w3.org/Graphics/SVG/1.1/DTD/svg11.dtd">
<svg xmlns:xlink="http://www.w3.org/1999/xlink" width="460.8pt" height="345.6pt" viewBox="0 0 460.8 345.6" xmlns="http://www.w3.org/2000/svg" version="1.1">
 <metadata>
  <rdf:RDF xmlns:dc="http://purl.org/dc/elements/1.1/" xmlns:cc="http://creativecommons.org/ns#" xmlns:rdf="http://www.w3.org/1999/02/22-rdf-syntax-ns#">
   <cc:Work>
    <dc:type rdf:resource="http://purl.org/dc/dcmitype/StillImage"/>
    <dc:date>2024-10-21T19:24:30.429232</dc:date>
    <dc:format>image/svg+xml</dc:format>
    <dc:creator>
     <cc:Agent>
      <dc:title>Matplotlib v3.8.0, https://matplotlib.org/</dc:title>
     </cc:Agent>
    </dc:creator>
   </cc:Work>
  </rdf:RDF>
 </metadata>
 <defs>
  <style type="text/css">*{stroke-linejoin: round; stroke-linecap: butt}</style>
 </defs>
 <g id="figure_1">
  <g id="patch_1">
   <path d="M 0 345.6 
L 460.8 345.6 
L 460.8 0 
L 0 0 
z
" style="fill: #ffffff"/>
  </g>
  <g id="axes_1">
   <g id="patch_2">
    <path d="M 57.6 307.584 
L 414.72 307.584 
L 414.72 41.472 
L 57.6 41.472 
z
" style="fill: #ffffff"/>
   </g>
   <g id="matplotlib.axis_1">
    <g id="xtick_1">
     <g id="line2d_1">
      <path d="M 73.738953 307.584 
L 73.738953 41.472 
" clip-path="url(#p2e629606ab)" style="fill: none; stroke: #b0b0b0; stroke-width: 0.8; stroke-linecap: square"/>
     </g>
     <g id="line2d_2">
      <defs>
       <path id="md73ceb74fe" d="M 0 0 
L 0 3.5 
" style="stroke: #000000; stroke-width: 0.8"/>
      </defs>
      <g>
       <use xlink:href="#md73ceb74fe" x="73.738953" y="307.584" style="stroke: #000000; stroke-width: 0.8"/>
      </g>
     </g>
     <g id="text_1">
      <!-- 0.0 -->
      <g transform="translate(65.78739 322.182437) scale(0.1 -0.1)">
       <defs>
        <path id="DejaVuSans-30" d="M 2034 4250 
Q 1547 4250 1301 3770 
Q 1056 3291 1056 2328 
Q 1056 1369 1301 889 
Q 1547 409 2034 409 
Q 2525 409 2770 889 
Q 3016 1369 3016 2328 
Q 3016 3291 2770 3770 
Q 2525 4250 2034 4250 
z
M 2034 4750 
Q 2819 4750 3233 4129 
Q 3647 3509 3647 2328 
Q 3647 1150 3233 529 
Q 2819 -91 2034 -91 
Q 1250 -91 836 529 
Q 422 1150 422 2328 
Q 422 3509 836 4129 
Q 1250 4750 2034 4750 
z
" transform="scale(0.015625)"/>
        <path id="DejaVuSans-2e" d="M 684 794 
L 1344 794 
L 1344 0 
L 684 0 
L 684 794 
z
" transform="scale(0.015625)"/>
       </defs>
       <use xlink:href="#DejaVuSans-30"/>
       <use xlink:href="#DejaVuSans-2e" x="63.623047"/>
       <use xlink:href="#DejaVuSans-30" x="95.410156"/>
      </g>
     </g>
    </g>
    <g id="xtick_2">
     <g id="line2d_3">
      <path d="M 128.124976 307.584 
L 128.124976 41.472 
" clip-path="url(#p2e629606ab)" style="fill: none; stroke: #b0b0b0; stroke-width: 0.8; stroke-linecap: square"/>
     </g>
     <g id="line2d_4">
      <g>
       <use xlink:href="#md73ceb74fe" x="128.124976" y="307.584" style="stroke: #000000; stroke-width: 0.8"/>
      </g>
     </g>
     <g id="text_2">
      <!-- 0.5 -->
      <g transform="translate(120.173414 322.182437) scale(0.1 -0.1)">
       <defs>
        <path id="DejaVuSans-35" d="M 691 4666 
L 3169 4666 
L 3169 4134 
L 1269 4134 
L 1269 2991 
Q 1406 3038 1543 3061 
Q 1681 3084 1819 3084 
Q 2600 3084 3056 2656 
Q 3513 2228 3513 1497 
Q 3513 744 3044 326 
Q 2575 -91 1722 -91 
Q 1428 -91 1123 -41 
Q 819 9 494 109 
L 494 744 
Q 775 591 1075 516 
Q 1375 441 1709 441 
Q 2250 441 2565 725 
Q 2881 1009 2881 1497 
Q 2881 1984 2565 2268 
Q 2250 2553 1709 2553 
Q 1456 2553 1204 2497 
Q 953 2441 691 2322 
L 691 4666 
z
" transform="scale(0.015625)"/>
       </defs>
       <use xlink:href="#DejaVuSans-30"/>
       <use xlink:href="#DejaVuSans-2e" x="63.623047"/>
       <use xlink:href="#DejaVuSans-35" x="95.410156"/>
      </g>
     </g>
    </g>
    <g id="xtick_3">
     <g id="line2d_5">
      <path d="M 182.511 307.584 
L 182.511 41.472 
" clip-path="url(#p2e629606ab)" style="fill: none; stroke: #b0b0b0; stroke-width: 0.8; stroke-linecap: square"/>
     </g>
     <g id="line2d_6">
      <g>
       <use xlink:href="#md73ceb74fe" x="182.511" y="307.584" style="stroke: #000000; stroke-width: 0.8"/>
      </g>
     </g>
     <g id="text_3">
      <!-- 1.0 -->
      <g transform="translate(174.559438 322.182437) scale(0.1 -0.1)">
       <defs>
        <path id="DejaVuSans-31" d="M 794 531 
L 1825 531 
L 1825 4091 
L 703 3866 
L 703 4441 
L 1819 4666 
L 2450 4666 
L 2450 531 
L 3481 531 
L 3481 0 
L 794 0 
L 794 531 
z
" transform="scale(0.015625)"/>
       </defs>
       <use xlink:href="#DejaVuSans-31"/>
       <use xlink:href="#DejaVuSans-2e" x="63.623047"/>
       <use xlink:href="#DejaVuSans-30" x="95.410156"/>
      </g>
     </g>
    </g>
    <g id="xtick_4">
     <g id="line2d_7">
      <path d="M 236.897024 307.584 
L 236.897024 41.472 
" clip-path="url(#p2e629606ab)" style="fill: none; stroke: #b0b0b0; stroke-width: 0.8; stroke-linecap: square"/>
     </g>
     <g id="line2d_8">
      <g>
       <use xlink:href="#md73ceb74fe" x="236.897024" y="307.584" style="stroke: #000000; stroke-width: 0.8"/>
      </g>
     </g>
     <g id="text_4">
      <!-- 1.5 -->
      <g transform="translate(228.945461 322.182437) scale(0.1 -0.1)">
       <use xlink:href="#DejaVuSans-31"/>
       <use xlink:href="#DejaVuSans-2e" x="63.623047"/>
       <use xlink:href="#DejaVuSans-35" x="95.410156"/>
      </g>
     </g>
    </g>
    <g id="xtick_5">
     <g id="line2d_9">
      <path d="M 291.283047 307.584 
L 291.283047 41.472 
" clip-path="url(#p2e629606ab)" style="fill: none; stroke: #b0b0b0; stroke-width: 0.8; stroke-linecap: square"/>
     </g>
     <g id="line2d_10">
      <g>
       <use xlink:href="#md73ceb74fe" x="291.283047" y="307.584" style="stroke: #000000; stroke-width: 0.8"/>
      </g>
     </g>
     <g id="text_5">
      <!-- 2.0 -->
      <g transform="translate(283.331485 322.182437) scale(0.1 -0.1)">
       <defs>
        <path id="DejaVuSans-32" d="M 1228 531 
L 3431 531 
L 3431 0 
L 469 0 
L 469 531 
Q 828 903 1448 1529 
Q 2069 2156 2228 2338 
Q 2531 2678 2651 2914 
Q 2772 3150 2772 3378 
Q 2772 3750 2511 3984 
Q 2250 4219 1831 4219 
Q 1534 4219 1204 4116 
Q 875 4013 500 3803 
L 500 4441 
Q 881 4594 1212 4672 
Q 1544 4750 1819 4750 
Q 2544 4750 2975 4387 
Q 3406 4025 3406 3419 
Q 3406 3131 3298 2873 
Q 3191 2616 2906 2266 
Q 2828 2175 2409 1742 
Q 1991 1309 1228 531 
z
" transform="scale(0.015625)"/>
       </defs>
       <use xlink:href="#DejaVuSans-32"/>
       <use xlink:href="#DejaVuSans-2e" x="63.623047"/>
       <use xlink:href="#DejaVuSans-30" x="95.410156"/>
      </g>
     </g>
    </g>
    <g id="xtick_6">
     <g id="line2d_11">
      <path d="M 345.669071 307.584 
L 345.669071 41.472 
" clip-path="url(#p2e629606ab)" style="fill: none; stroke: #b0b0b0; stroke-width: 0.8; stroke-linecap: square"/>
     </g>
     <g id="line2d_12">
      <g>
       <use xlink:href="#md73ceb74fe" x="345.669071" y="307.584" style="stroke: #000000; stroke-width: 0.8"/>
      </g>
     </g>
     <g id="text_6">
      <!-- 2.5 -->
      <g transform="translate(337.717509 322.182437) scale(0.1 -0.1)">
       <use xlink:href="#DejaVuSans-32"/>
       <use xlink:href="#DejaVuSans-2e" x="63.623047"/>
       <use xlink:href="#DejaVuSans-35" x="95.410156"/>
      </g>
     </g>
    </g>
    <g id="xtick_7">
     <g id="line2d_13">
      <path d="M 400.055095 307.584 
L 400.055095 41.472 
" clip-path="url(#p2e629606ab)" style="fill: none; stroke: #b0b0b0; stroke-width: 0.8; stroke-linecap: square"/>
     </g>
     <g id="line2d_14">
      <g>
       <use xlink:href="#md73ceb74fe" x="400.055095" y="307.584" style="stroke: #000000; stroke-width: 0.8"/>
      </g>
     </g>
     <g id="text_7">
      <!-- 3.0 -->
      <g transform="translate(392.103532 322.182437) scale(0.1 -0.1)">
       <defs>
        <path id="DejaVuSans-33" d="M 2597 2516 
Q 3050 2419 3304 2112 
Q 3559 1806 3559 1356 
Q 3559 666 3084 287 
Q 2609 -91 1734 -91 
Q 1441 -91 1130 -33 
Q 819 25 488 141 
L 488 750 
Q 750 597 1062 519 
Q 1375 441 1716 441 
Q 2309 441 2620 675 
Q 2931 909 2931 1356 
Q 2931 1769 2642 2001 
Q 2353 2234 1838 2234 
L 1294 2234 
L 1294 2753 
L 1863 2753 
Q 2328 2753 2575 2939 
Q 2822 3125 2822 3475 
Q 2822 3834 2567 4026 
Q 2313 4219 1838 4219 
Q 1578 4219 1281 4162 
Q 984 4106 628 3988 
L 628 4550 
Q 988 4650 1302 4700 
Q 1616 4750 1894 4750 
Q 2613 4750 3031 4423 
Q 3450 4097 3450 3541 
Q 3450 3153 3228 2886 
Q 3006 2619 2597 2516 
z
" transform="scale(0.015625)"/>
       </defs>
       <use xlink:href="#DejaVuSans-33"/>
       <use xlink:href="#DejaVuSans-2e" x="63.623047"/>
       <use xlink:href="#DejaVuSans-30" x="95.410156"/>
      </g>
     </g>
    </g>
    <g id="text_8">
     <!-- Estimation Error(m) -->
     <g transform="translate(186.988906 335.860562) scale(0.1 -0.1)">
      <defs>
       <path id="DejaVuSans-45" d="M 628 4666 
L 3578 4666 
L 3578 4134 
L 1259 4134 
L 1259 2753 
L 3481 2753 
L 3481 2222 
L 1259 2222 
L 1259 531 
L 3634 531 
L 3634 0 
L 628 0 
L 628 4666 
z
" transform="scale(0.015625)"/>
       <path id="DejaVuSans-73" d="M 2834 3397 
L 2834 2853 
Q 2591 2978 2328 3040 
Q 2066 3103 1784 3103 
Q 1356 3103 1142 2972 
Q 928 2841 928 2578 
Q 928 2378 1081 2264 
Q 1234 2150 1697 2047 
L 1894 2003 
Q 2506 1872 2764 1633 
Q 3022 1394 3022 966 
Q 3022 478 2636 193 
Q 2250 -91 1575 -91 
Q 1294 -91 989 -36 
Q 684 19 347 128 
L 347 722 
Q 666 556 975 473 
Q 1284 391 1588 391 
Q 1994 391 2212 530 
Q 2431 669 2431 922 
Q 2431 1156 2273 1281 
Q 2116 1406 1581 1522 
L 1381 1569 
Q 847 1681 609 1914 
Q 372 2147 372 2553 
Q 372 3047 722 3315 
Q 1072 3584 1716 3584 
Q 2034 3584 2315 3537 
Q 2597 3491 2834 3397 
z
" transform="scale(0.015625)"/>
       <path id="DejaVuSans-74" d="M 1172 4494 
L 1172 3500 
L 2356 3500 
L 2356 3053 
L 1172 3053 
L 1172 1153 
Q 1172 725 1289 603 
Q 1406 481 1766 481 
L 2356 481 
L 2356 0 
L 1766 0 
Q 1100 0 847 248 
Q 594 497 594 1153 
L 594 3053 
L 172 3053 
L 172 3500 
L 594 3500 
L 594 4494 
L 1172 4494 
z
" transform="scale(0.015625)"/>
       <path id="DejaVuSans-69" d="M 603 3500 
L 1178 3500 
L 1178 0 
L 603 0 
L 603 3500 
z
M 603 4863 
L 1178 4863 
L 1178 4134 
L 603 4134 
L 603 4863 
z
" transform="scale(0.015625)"/>
       <path id="DejaVuSans-6d" d="M 3328 2828 
Q 3544 3216 3844 3400 
Q 4144 3584 4550 3584 
Q 5097 3584 5394 3201 
Q 5691 2819 5691 2113 
L 5691 0 
L 5113 0 
L 5113 2094 
Q 5113 2597 4934 2840 
Q 4756 3084 4391 3084 
Q 3944 3084 3684 2787 
Q 3425 2491 3425 1978 
L 3425 0 
L 2847 0 
L 2847 2094 
Q 2847 2600 2669 2842 
Q 2491 3084 2119 3084 
Q 1678 3084 1418 2786 
Q 1159 2488 1159 1978 
L 1159 0 
L 581 0 
L 581 3500 
L 1159 3500 
L 1159 2956 
Q 1356 3278 1631 3431 
Q 1906 3584 2284 3584 
Q 2666 3584 2933 3390 
Q 3200 3197 3328 2828 
z
" transform="scale(0.015625)"/>
       <path id="DejaVuSans-61" d="M 2194 1759 
Q 1497 1759 1228 1600 
Q 959 1441 959 1056 
Q 959 750 1161 570 
Q 1363 391 1709 391 
Q 2188 391 2477 730 
Q 2766 1069 2766 1631 
L 2766 1759 
L 2194 1759 
z
M 3341 1997 
L 3341 0 
L 2766 0 
L 2766 531 
Q 2569 213 2275 61 
Q 1981 -91 1556 -91 
Q 1019 -91 701 211 
Q 384 513 384 1019 
Q 384 1609 779 1909 
Q 1175 2209 1959 2209 
L 2766 2209 
L 2766 2266 
Q 2766 2663 2505 2880 
Q 2244 3097 1772 3097 
Q 1472 3097 1187 3025 
Q 903 2953 641 2809 
L 641 3341 
Q 956 3463 1253 3523 
Q 1550 3584 1831 3584 
Q 2591 3584 2966 3190 
Q 3341 2797 3341 1997 
z
" transform="scale(0.015625)"/>
       <path id="DejaVuSans-6f" d="M 1959 3097 
Q 1497 3097 1228 2736 
Q 959 2375 959 1747 
Q 959 1119 1226 758 
Q 1494 397 1959 397 
Q 2419 397 2687 759 
Q 2956 1122 2956 1747 
Q 2956 2369 2687 2733 
Q 2419 3097 1959 3097 
z
M 1959 3584 
Q 2709 3584 3137 3096 
Q 3566 2609 3566 1747 
Q 3566 888 3137 398 
Q 2709 -91 1959 -91 
Q 1206 -91 779 398 
Q 353 888 353 1747 
Q 353 2609 779 3096 
Q 1206 3584 1959 3584 
z
" transform="scale(0.015625)"/>
       <path id="DejaVuSans-6e" d="M 3513 2113 
L 3513 0 
L 2938 0 
L 2938 2094 
Q 2938 2591 2744 2837 
Q 2550 3084 2163 3084 
Q 1697 3084 1428 2787 
Q 1159 2491 1159 1978 
L 1159 0 
L 581 0 
L 581 3500 
L 1159 3500 
L 1159 2956 
Q 1366 3272 1645 3428 
Q 1925 3584 2291 3584 
Q 2894 3584 3203 3211 
Q 3513 2838 3513 2113 
z
" transform="scale(0.015625)"/>
       <path id="DejaVuSans-20" transform="scale(0.015625)"/>
       <path id="DejaVuSans-72" d="M 2631 2963 
Q 2534 3019 2420 3045 
Q 2306 3072 2169 3072 
Q 1681 3072 1420 2755 
Q 1159 2438 1159 1844 
L 1159 0 
L 581 0 
L 581 3500 
L 1159 3500 
L 1159 2956 
Q 1341 3275 1631 3429 
Q 1922 3584 2338 3584 
Q 2397 3584 2469 3576 
Q 2541 3569 2628 3553 
L 2631 2963 
z
" transform="scale(0.015625)"/>
       <path id="DejaVuSans-28" d="M 1984 4856 
Q 1566 4138 1362 3434 
Q 1159 2731 1159 2009 
Q 1159 1288 1364 580 
Q 1569 -128 1984 -844 
L 1484 -844 
Q 1016 -109 783 600 
Q 550 1309 550 2009 
Q 550 2706 781 3412 
Q 1013 4119 1484 4856 
L 1984 4856 
z
" transform="scale(0.015625)"/>
       <path id="DejaVuSans-29" d="M 513 4856 
L 1013 4856 
Q 1481 4119 1714 3412 
Q 1947 2706 1947 2009 
Q 1947 1309 1714 600 
Q 1481 -109 1013 -844 
L 513 -844 
Q 928 -128 1133 580 
Q 1338 1288 1338 2009 
Q 1338 2731 1133 3434 
Q 928 4138 513 4856 
z
" transform="scale(0.015625)"/>
      </defs>
      <use xlink:href="#DejaVuSans-45"/>
      <use xlink:href="#DejaVuSans-73" x="63.183594"/>
      <use xlink:href="#DejaVuSans-74" x="115.283203"/>
      <use xlink:href="#DejaVuSans-69" x="154.492188"/>
      <use xlink:href="#DejaVuSans-6d" x="182.275391"/>
      <use xlink:href="#DejaVuSans-61" x="279.6875"/>
      <use xlink:href="#DejaVuSans-74" x="340.966797"/>
      <use xlink:href="#DejaVuSans-69" x="380.175781"/>
      <use xlink:href="#DejaVuSans-6f" x="407.958984"/>
      <use xlink:href="#DejaVuSans-6e" x="469.140625"/>
      <use xlink:href="#DejaVuSans-20" x="532.519531"/>
      <use xlink:href="#DejaVuSans-45" x="564.306641"/>
      <use xlink:href="#DejaVuSans-72" x="627.490234"/>
      <use xlink:href="#DejaVuSans-72" x="666.853516"/>
      <use xlink:href="#DejaVuSans-6f" x="705.716797"/>
      <use xlink:href="#DejaVuSans-72" x="766.898438"/>
      <use xlink:href="#DejaVuSans-28" x="808.011719"/>
      <use xlink:href="#DejaVuSans-6d" x="847.025391"/>
      <use xlink:href="#DejaVuSans-29" x="944.4375"/>
     </g>
    </g>
   </g>
   <g id="matplotlib.axis_2">
    <g id="ytick_1">
     <g id="line2d_15">
      <path d="M 57.6 307.584 
L 414.72 307.584 
" clip-path="url(#p2e629606ab)" style="fill: none; stroke: #b0b0b0; stroke-width: 0.8; stroke-linecap: square"/>
     </g>
     <g id="line2d_16">
      <defs>
       <path id="me5c0eea238" d="M 0 0 
L -3.5 0 
" style="stroke: #000000; stroke-width: 0.8"/>
      </defs>
      <g>
       <use xlink:href="#me5c0eea238" x="57.6" y="307.584" style="stroke: #000000; stroke-width: 0.8"/>
      </g>
     </g>
     <g id="text_9">
      <!-- 0.0 -->
      <g transform="translate(34.696875 311.383219) scale(0.1 -0.1)">
       <use xlink:href="#DejaVuSans-30"/>
       <use xlink:href="#DejaVuSans-2e" x="63.623047"/>
       <use xlink:href="#DejaVuSans-30" x="95.410156"/>
      </g>
     </g>
    </g>
    <g id="ytick_2">
     <g id="line2d_17">
      <path d="M 57.6 254.3616 
L 414.72 254.3616 
" clip-path="url(#p2e629606ab)" style="fill: none; stroke: #b0b0b0; stroke-width: 0.8; stroke-linecap: square"/>
     </g>
     <g id="line2d_18">
      <g>
       <use xlink:href="#me5c0eea238" x="57.6" y="254.3616" style="stroke: #000000; stroke-width: 0.8"/>
      </g>
     </g>
     <g id="text_10">
      <!-- 0.2 -->
      <g transform="translate(34.696875 258.160819) scale(0.1 -0.1)">
       <use xlink:href="#DejaVuSans-30"/>
       <use xlink:href="#DejaVuSans-2e" x="63.623047"/>
       <use xlink:href="#DejaVuSans-32" x="95.410156"/>
      </g>
     </g>
    </g>
    <g id="ytick_3">
     <g id="line2d_19">
      <path d="M 57.6 201.1392 
L 414.72 201.1392 
" clip-path="url(#p2e629606ab)" style="fill: none; stroke: #b0b0b0; stroke-width: 0.8; stroke-linecap: square"/>
     </g>
     <g id="line2d_20">
      <g>
       <use xlink:href="#me5c0eea238" x="57.6" y="201.1392" style="stroke: #000000; stroke-width: 0.8"/>
      </g>
     </g>
     <g id="text_11">
      <!-- 0.4 -->
      <g transform="translate(34.696875 204.938419) scale(0.1 -0.1)">
       <defs>
        <path id="DejaVuSans-34" d="M 2419 4116 
L 825 1625 
L 2419 1625 
L 2419 4116 
z
M 2253 4666 
L 3047 4666 
L 3047 1625 
L 3713 1625 
L 3713 1100 
L 3047 1100 
L 3047 0 
L 2419 0 
L 2419 1100 
L 313 1100 
L 313 1709 
L 2253 4666 
z
" transform="scale(0.015625)"/>
       </defs>
       <use xlink:href="#DejaVuSans-30"/>
       <use xlink:href="#DejaVuSans-2e" x="63.623047"/>
       <use xlink:href="#DejaVuSans-34" x="95.410156"/>
      </g>
     </g>
    </g>
    <g id="ytick_4">
     <g id="line2d_21">
      <path d="M 57.6 147.9168 
L 414.72 147.9168 
" clip-path="url(#p2e629606ab)" style="fill: none; stroke: #b0b0b0; stroke-width: 0.8; stroke-linecap: square"/>
     </g>
     <g id="line2d_22">
      <g>
       <use xlink:href="#me5c0eea238" x="57.6" y="147.9168" style="stroke: #000000; stroke-width: 0.8"/>
      </g>
     </g>
     <g id="text_12">
      <!-- 0.6 -->
      <g transform="translate(34.696875 151.716019) scale(0.1 -0.1)">
       <defs>
        <path id="DejaVuSans-36" d="M 2113 2584 
Q 1688 2584 1439 2293 
Q 1191 2003 1191 1497 
Q 1191 994 1439 701 
Q 1688 409 2113 409 
Q 2538 409 2786 701 
Q 3034 994 3034 1497 
Q 3034 2003 2786 2293 
Q 2538 2584 2113 2584 
z
M 3366 4563 
L 3366 3988 
Q 3128 4100 2886 4159 
Q 2644 4219 2406 4219 
Q 1781 4219 1451 3797 
Q 1122 3375 1075 2522 
Q 1259 2794 1537 2939 
Q 1816 3084 2150 3084 
Q 2853 3084 3261 2657 
Q 3669 2231 3669 1497 
Q 3669 778 3244 343 
Q 2819 -91 2113 -91 
Q 1303 -91 875 529 
Q 447 1150 447 2328 
Q 447 3434 972 4092 
Q 1497 4750 2381 4750 
Q 2619 4750 2861 4703 
Q 3103 4656 3366 4563 
z
" transform="scale(0.015625)"/>
       </defs>
       <use xlink:href="#DejaVuSans-30"/>
       <use xlink:href="#DejaVuSans-2e" x="63.623047"/>
       <use xlink:href="#DejaVuSans-36" x="95.410156"/>
      </g>
     </g>
    </g>
    <g id="ytick_5">
     <g id="line2d_23">
      <path d="M 57.6 94.6944 
L 414.72 94.6944 
" clip-path="url(#p2e629606ab)" style="fill: none; stroke: #b0b0b0; stroke-width: 0.8; stroke-linecap: square"/>
     </g>
     <g id="line2d_24">
      <g>
       <use xlink:href="#me5c0eea238" x="57.6" y="94.6944" style="stroke: #000000; stroke-width: 0.8"/>
      </g>
     </g>
     <g id="text_13">
      <!-- 0.8 -->
      <g transform="translate(34.696875 98.493619) scale(0.1 -0.1)">
       <defs>
        <path id="DejaVuSans-38" d="M 2034 2216 
Q 1584 2216 1326 1975 
Q 1069 1734 1069 1313 
Q 1069 891 1326 650 
Q 1584 409 2034 409 
Q 2484 409 2743 651 
Q 3003 894 3003 1313 
Q 3003 1734 2745 1975 
Q 2488 2216 2034 2216 
z
M 1403 2484 
Q 997 2584 770 2862 
Q 544 3141 544 3541 
Q 544 4100 942 4425 
Q 1341 4750 2034 4750 
Q 2731 4750 3128 4425 
Q 3525 4100 3525 3541 
Q 3525 3141 3298 2862 
Q 3072 2584 2669 2484 
Q 3125 2378 3379 2068 
Q 3634 1759 3634 1313 
Q 3634 634 3220 271 
Q 2806 -91 2034 -91 
Q 1263 -91 848 271 
Q 434 634 434 1313 
Q 434 1759 690 2068 
Q 947 2378 1403 2484 
z
M 1172 3481 
Q 1172 3119 1398 2916 
Q 1625 2713 2034 2713 
Q 2441 2713 2670 2916 
Q 2900 3119 2900 3481 
Q 2900 3844 2670 4047 
Q 2441 4250 2034 4250 
Q 1625 4250 1398 4047 
Q 1172 3844 1172 3481 
z
" transform="scale(0.015625)"/>
       </defs>
       <use xlink:href="#DejaVuSans-30"/>
       <use xlink:href="#DejaVuSans-2e" x="63.623047"/>
       <use xlink:href="#DejaVuSans-38" x="95.410156"/>
      </g>
     </g>
    </g>
    <g id="ytick_6">
     <g id="line2d_25">
      <path d="M 57.6 41.472 
L 414.72 41.472 
" clip-path="url(#p2e629606ab)" style="fill: none; stroke: #b0b0b0; stroke-width: 0.8; stroke-linecap: square"/>
     </g>
     <g id="line2d_26">
      <g>
       <use xlink:href="#me5c0eea238" x="57.6" y="41.472" style="stroke: #000000; stroke-width: 0.8"/>
      </g>
     </g>
     <g id="text_14">
      <!-- 1.0 -->
      <g transform="translate(34.696875 45.271219) scale(0.1 -0.1)">
       <use xlink:href="#DejaVuSans-31"/>
       <use xlink:href="#DejaVuSans-2e" x="63.623047"/>
       <use xlink:href="#DejaVuSans-30" x="95.410156"/>
      </g>
     </g>
    </g>
    <g id="text_15">
     <!-- Propotion -->
     <g transform="translate(28.617187 198.268625) rotate(-90) scale(0.1 -0.1)">
      <defs>
       <path id="DejaVuSans-50" d="M 1259 4147 
L 1259 2394 
L 2053 2394 
Q 2494 2394 2734 2622 
Q 2975 2850 2975 3272 
Q 2975 3691 2734 3919 
Q 2494 4147 2053 4147 
L 1259 4147 
z
M 628 4666 
L 2053 4666 
Q 2838 4666 3239 4311 
Q 3641 3956 3641 3272 
Q 3641 2581 3239 2228 
Q 2838 1875 2053 1875 
L 1259 1875 
L 1259 0 
L 628 0 
L 628 4666 
z
" transform="scale(0.015625)"/>
       <path id="DejaVuSans-70" d="M 1159 525 
L 1159 -1331 
L 581 -1331 
L 581 3500 
L 1159 3500 
L 1159 2969 
Q 1341 3281 1617 3432 
Q 1894 3584 2278 3584 
Q 2916 3584 3314 3078 
Q 3713 2572 3713 1747 
Q 3713 922 3314 415 
Q 2916 -91 2278 -91 
Q 1894 -91 1617 61 
Q 1341 213 1159 525 
z
M 3116 1747 
Q 3116 2381 2855 2742 
Q 2594 3103 2138 3103 
Q 1681 3103 1420 2742 
Q 1159 2381 1159 1747 
Q 1159 1113 1420 752 
Q 1681 391 2138 391 
Q 2594 391 2855 752 
Q 3116 1113 3116 1747 
z
" transform="scale(0.015625)"/>
      </defs>
      <use xlink:href="#DejaVuSans-50"/>
      <use xlink:href="#DejaVuSans-72" x="58.552734"/>
      <use xlink:href="#DejaVuSans-6f" x="97.416016"/>
      <use xlink:href="#DejaVuSans-70" x="158.597656"/>
      <use xlink:href="#DejaVuSans-6f" x="222.074219"/>
      <use xlink:href="#DejaVuSans-74" x="283.255859"/>
      <use xlink:href="#DejaVuSans-69" x="322.464844"/>
      <use xlink:href="#DejaVuSans-6f" x="350.248047"/>
      <use xlink:href="#DejaVuSans-6e" x="411.429688"/>
     </g>
    </g>
   </g>
   <g id="line2d_27">
    <path d="M 73.86998 307.584 
L 73.86998 305.1648 
L 74.089363 305.1648 
L 74.167059 295.488 
L 74.413114 295.488 
L 74.413114 293.0688 
L 74.651596 293.0688 
L 74.741105 288.2304 
L 74.908647 288.2304 
L 74.998065 283.392 
L 75.174256 283.392 
L 75.259784 278.5536 
L 75.328351 278.5536 
L 75.413931 273.7152 
L 75.492794 273.7152 
L 75.571865 266.4576 
L 75.849506 266.4576 
L 75.849506 264.0384 
L 76.204585 264.0384 
L 76.289438 256.7808 
L 76.491096 256.7808 
L 76.491096 254.3616 
L 76.865468 254.3616 
L 76.865468 251.9424 
L 77.215568 251.9424 
L 77.215568 249.5232 
L 77.593104 249.5232 
L 77.593104 247.104 
L 77.732159 247.104 
L 77.791079 242.2656 
L 78.104249 242.2656 
L 78.104249 239.8464 
L 78.264413 239.8464 
L 78.351354 235.008 
L 78.496672 235.008 
L 78.496672 232.5888 
L 79.152628 232.5888 
L 79.152628 230.1696 
L 79.448734 230.1696 
L 79.448734 227.7504 
L 79.698627 227.7504 
L 79.698627 225.3312 
L 80.206816 225.3312 
L 80.206816 222.912 
L 80.736632 222.912 
L 80.736632 220.4928 
L 82.576119 220.4928 
L 82.578284 215.6544 
L 83.504958 215.6544 
L 83.504958 213.2352 
L 84.029018 213.2352 
L 84.029018 210.816 
L 84.859531 210.816 
L 84.881185 205.9776 
L 85.568858 205.9776 
L 85.622047 201.1392 
L 86.59579 201.1392 
L 86.59579 198.72 
L 86.709144 198.72 
L 86.763215 193.8816 
L 88.312158 193.8816 
L 88.312158 191.4624 
L 88.928488 191.4624 
L 88.976672 186.624 
L 90.547061 186.624 
L 90.637543 181.7856 
L 90.674912 181.7856 
L 90.763941 176.9472 
L 91.428871 176.9472 
L 91.428871 174.528 
L 92.269627 174.528 
L 92.269627 172.1088 
L 92.381504 172.1088 
L 92.381504 169.6896 
L 92.53534 169.6896 
L 92.53534 167.2704 
L 92.799392 167.2704 
L 92.896188 162.432 
L 94.69553 162.432 
L 94.69553 160.0128 
L 94.833391 160.0128 
L 94.833391 157.5936 
L 95.033804 157.5936 
L 95.08401 152.7552 
L 95.153615 152.7552 
L 95.153615 150.336 
L 96.276941 150.336 
L 96.276941 147.9168 
L 96.858469 147.9168 
L 96.858469 145.4976 
L 97.307996 145.4976 
L 97.394017 140.6592 
L 99.936386 140.6592 
L 99.936386 138.24 
L 100.102125 138.24 
L 100.102125 135.8208 
L 100.539101 135.8208 
L 100.543354 130.9824 
L 101.768779 130.9824 
L 101.768779 128.5632 
L 105.295498 128.5632 
L 105.295498 126.144 
L 106.952427 126.144 
L 106.952427 123.7248 
L 107.243657 123.7248 
L 107.243657 121.3056 
L 111.782759 121.3056 
L 111.883535 114.048 
L 112.395977 114.048 
L 112.395977 111.6288 
L 112.906759 111.6288 
L 112.906759 109.2096 
L 113.983872 109.2096 
L 113.983872 106.7904 
L 115.796867 106.7904 
L 115.866057 101.952 
L 115.991003 101.952 
L 115.991003 99.5328 
L 116.641773 99.5328 
L 116.641773 97.1136 
L 119.374233 97.1136 
L 119.374233 94.6944 
L 120.008016 94.6944 
L 120.008016 92.2752 
L 121.530092 92.2752 
L 121.530092 89.856 
L 124.099924 89.856 
L 124.099924 87.4368 
L 124.852482 87.4368 
L 124.852482 85.0176 
L 126.275052 85.0176 
L 126.275052 82.5984 
L 131.360879 82.5984 
L 131.360879 80.1792 
L 137.141458 80.1792 
L 137.141458 77.76 
L 143.785875 77.76 
L 143.785875 75.3408 
L 146.017848 75.3408 
L 146.017848 72.9216 
L 147.40004 72.9216 
L 147.414407 68.0832 
L 149.378282 68.0832 
L 149.378282 65.664 
L 151.606003 65.664 
L 151.606003 63.2448 
L 166.724844 63.2448 
L 166.724844 60.8256 
L 167.732507 60.8256 
L 167.732507 58.4064 
L 175.346154 58.4064 
L 175.346154 55.9872 
L 180.779746 55.9872 
L 180.779746 53.568 
L 197.46532 53.568 
L 197.46532 51.1488 
L 199.067764 51.1488 
L 199.067764 48.7296 
L 201.218747 48.7296 
L 201.218747 46.3104 
L 208.075869 46.3104 
L 208.075869 43.8912 
L 212.996138 43.8912 
L 212.996138 41.472 
L 212.996138 41.472 
" clip-path="url(#p2e629606ab)" style="fill: none; stroke: #8c564b; stroke-width: 1.5; stroke-linecap: square"/>
   </g>
   <g id="line2d_28">
    <path d="M 74.69283 307.584 
L 74.69283 305.1648 
L 74.851283 305.1648 
L 74.952215 300.3264 
L 75.753761 300.3264 
L 75.753761 297.9072 
L 75.933945 297.9072 
L 75.983633 293.0688 
L 77.481851 293.0688 
L 77.481851 290.6496 
L 78.162547 290.6496 
L 78.162547 288.2304 
L 80.5454 288.2304 
L 80.5454 285.8112 
L 80.784389 285.8112 
L 80.784389 283.392 
L 81.471218 283.392 
L 81.547151 278.5536 
L 81.922302 278.5536 
L 81.979718 273.7152 
L 82.273179 273.7152 
L 82.29827 268.8768 
L 82.59164 268.8768 
L 82.59164 266.4576 
L 83.283228 266.4576 
L 83.284032 261.6192 
L 83.616108 261.6192 
L 83.616108 259.2 
L 83.884673 259.2 
L 83.913303 254.3616 
L 84.5082 254.3616 
L 84.5082 251.9424 
L 85.820229 251.9424 
L 85.820229 249.5232 
L 86.756835 249.5232 
L 86.756835 247.104 
L 86.931509 247.104 
L 86.931509 244.6848 
L 87.093553 244.6848 
L 87.184216 239.8464 
L 87.413881 239.8464 
L 87.413881 237.4272 
L 87.827983 237.4272 
L 87.827983 235.008 
L 89.266243 235.008 
L 89.307217 230.1696 
L 91.397543 230.1696 
L 91.415178 225.3312 
L 92.187367 225.3312 
L 92.187367 222.912 
L 92.908001 222.912 
L 93.009037 218.0736 
L 93.411522 218.0736 
L 93.411522 215.6544 
L 93.831641 215.6544 
L 93.831641 213.2352 
L 94.914614 213.2352 
L 94.914614 210.816 
L 95.430064 210.816 
L 95.430064 208.3968 
L 96.13659 208.3968 
L 96.13659 205.9776 
L 96.333994 205.9776 
L 96.333994 203.5584 
L 96.46969 203.5584 
L 96.46969 201.1392 
L 97.448244 201.1392 
L 97.448244 198.72 
L 97.685637 198.72 
L 97.685637 196.3008 
L 98.007313 196.3008 
L 98.007313 193.8816 
L 98.144448 193.8816 
L 98.168852 186.624 
L 98.362858 186.624 
L 98.362858 184.2048 
L 99.681332 184.2048 
L 99.681332 181.7856 
L 99.792767 181.7856 
L 99.792767 179.3664 
L 100.645246 179.3664 
L 100.645246 176.9472 
L 100.870969 176.9472 
L 100.870969 174.528 
L 101.1108 174.528 
L 101.1108 172.1088 
L 102.066908 172.1088 
L 102.066908 169.6896 
L 102.404508 169.6896 
L 102.404508 167.2704 
L 105.527341 167.2704 
L 105.527341 164.8512 
L 109.670856 164.8512 
L 109.670856 162.432 
L 110.119346 162.432 
L 110.119346 160.0128 
L 110.595948 160.0128 
L 110.595948 157.5936 
L 114.571623 157.5936 
L 114.571623 155.1744 
L 115.936232 155.1744 
L 115.936232 152.7552 
L 116.783836 152.7552 
L 116.783836 150.336 
L 116.920245 150.336 
L 116.920245 147.9168 
L 117.368631 147.9168 
L 117.368631 145.4976 
L 119.846815 145.4976 
L 119.846815 143.0784 
L 120.613351 143.0784 
L 120.613351 140.6592 
L 123.004425 140.6592 
L 123.004425 138.24 
L 124.686327 138.24 
L 124.686327 135.8208 
L 125.25437 135.8208 
L 125.25437 133.4016 
L 125.913386 133.4016 
L 125.913386 130.9824 
L 126.635991 130.9824 
L 126.635991 128.5632 
L 127.995362 128.5632 
L 127.995362 126.144 
L 129.869975 126.144 
L 129.869975 123.7248 
L 130.381586 123.7248 
L 130.381586 121.3056 
L 132.531196 121.3056 
L 132.531196 118.8864 
L 132.870247 118.8864 
L 132.870247 116.4672 
L 136.770716 116.4672 
L 136.770716 114.048 
L 137.363966 114.048 
L 137.363966 111.6288 
L 137.546432 111.6288 
L 137.546432 109.2096 
L 141.081605 109.2096 
L 141.081605 106.7904 
L 141.859966 106.7904 
L 141.859966 104.3712 
L 146.514004 104.3712 
L 146.514004 101.952 
L 148.538303 101.952 
L 148.538303 99.5328 
L 152.186597 99.5328 
L 152.186597 97.1136 
L 152.58322 97.1136 
L 152.58322 94.6944 
L 162.687499 94.6944 
L 162.703993 89.856 
L 168.465641 89.856 
L 168.465641 87.4368 
L 170.634078 87.4368 
L 170.634078 85.0176 
L 172.097285 85.0176 
L 172.122804 80.1792 
L 172.91631 80.1792 
L 173.009151 75.3408 
L 175.848378 75.3408 
L 175.848378 72.9216 
L 178.86976 72.9216 
L 178.86976 70.5024 
L 181.175177 70.5024 
L 181.175177 68.0832 
L 182.807469 68.0832 
L 182.807469 65.664 
L 184.623628 65.664 
L 184.623628 63.2448 
L 193.599188 63.2448 
L 193.599188 60.8256 
L 194.726092 60.8256 
L 194.726092 58.4064 
L 201.48752 58.4064 
L 201.48752 55.9872 
L 201.622165 55.9872 
L 201.622165 53.568 
L 210.408878 53.568 
L 210.408878 51.1488 
L 211.034078 51.1488 
L 211.034078 48.7296 
L 214.996683 48.7296 
L 214.996683 46.3104 
L 223.919234 46.3104 
L 223.919234 43.8912 
L 226.1135 43.8912 
L 226.1135 41.472 
L 226.1135 41.472 
" clip-path="url(#p2e629606ab)" style="fill: none; stroke: #9467bd; stroke-width: 1.5; stroke-linecap: square"/>
   </g>
   <g id="line2d_29">
    <path d="M 73.862965 307.584 
L 73.955469 302.7456 
L 74.386156 302.7456 
L 74.386156 300.3264 
L 74.627051 300.3264 
L 74.692649 295.488 
L 74.98541 295.488 
L 75.042878 290.6496 
L 75.261443 290.6496 
L 75.261443 288.2304 
L 75.426522 288.2304 
L 75.525652 280.9728 
L 75.810477 280.9728 
L 75.835956 273.7152 
L 76.012393 273.7152 
L 76.050904 268.8768 
L 76.124088 268.8768 
L 76.213169 261.6192 
L 76.248568 261.6192 
L 76.248568 259.2 
L 76.37896 259.2 
L 76.37896 256.7808 
L 76.763914 256.7808 
L 76.794619 249.5232 
L 77.93143 249.5232 
L 77.93143 247.104 
L 78.334225 247.104 
L 78.334225 244.6848 
L 78.459328 244.6848 
L 78.459328 242.2656 
L 78.806315 242.2656 
L 78.806315 239.8464 
L 78.976126 239.8464 
L 78.976126 237.4272 
L 79.689499 237.4272 
L 79.689499 235.008 
L 80.198206 235.008 
L 80.198206 232.5888 
L 80.608781 232.5888 
L 80.608781 230.1696 
L 81.140932 230.1696 
L 81.140932 227.7504 
L 81.429414 227.7504 
L 81.429414 225.3312 
L 81.936565 225.3312 
L 81.936565 222.912 
L 82.453467 222.912 
L 82.453467 220.4928 
L 83.772071 220.4928 
L 83.80804 215.6544 
L 84.570375 215.6544 
L 84.570375 213.2352 
L 85.308721 213.2352 
L 85.39303 208.3968 
L 85.69772 208.3968 
L 85.69772 205.9776 
L 86.423022 205.9776 
L 86.423022 203.5584 
L 86.702375 203.5584 
L 86.702375 201.1392 
L 87.487842 201.1392 
L 87.487842 198.72 
L 87.706434 198.72 
L 87.713462 193.8816 
L 88.461326 193.8816 
L 88.461326 191.4624 
L 89.33188 191.4624 
L 89.33188 189.0432 
L 90.07269 189.0432 
L 90.07269 186.624 
L 91.691912 186.624 
L 91.75563 181.7856 
L 92.260188 181.7856 
L 92.260188 179.3664 
L 93.061241 179.3664 
L 93.061241 176.9472 
L 95.023742 176.9472 
L 95.023742 174.528 
L 95.217722 174.528 
L 95.237535 169.6896 
L 96.800275 169.6896 
L 96.800275 167.2704 
L 97.450993 167.2704 
L 97.450993 164.8512 
L 97.920826 164.8512 
L 97.920826 162.432 
L 98.065974 162.432 
L 98.065974 160.0128 
L 101.353328 160.0128 
L 101.353328 157.5936 
L 103.001621 157.5936 
L 103.001621 155.1744 
L 103.501745 155.1744 
L 103.501745 152.7552 
L 104.320821 152.7552 
L 104.320821 150.336 
L 104.580413 150.336 
L 104.627975 145.4976 
L 111.161657 145.4976 
L 111.161657 143.0784 
L 111.374258 143.0784 
L 111.374258 140.6592 
L 112.650279 140.6592 
L 112.650279 138.24 
L 112.993013 138.24 
L 113.061944 133.4016 
L 113.486471 133.4016 
L 113.486471 130.9824 
L 115.922643 130.9824 
L 115.922643 128.5632 
L 116.157288 128.5632 
L 116.157288 126.144 
L 116.898979 126.144 
L 116.898979 123.7248 
L 119.239509 123.7248 
L 119.239509 121.3056 
L 122.404407 121.3056 
L 122.404407 118.8864 
L 122.929815 118.8864 
L 122.929815 116.4672 
L 125.09348 116.4672 
L 125.09348 114.048 
L 130.870584 114.048 
L 130.953986 109.2096 
L 131.869456 109.2096 
L 131.869456 106.7904 
L 132.111855 106.7904 
L 132.111855 104.3712 
L 132.29152 104.3712 
L 132.29152 101.952 
L 133.199341 101.952 
L 133.199341 99.5328 
L 134.882047 99.5328 
L 134.882047 97.1136 
L 135.625969 97.1136 
L 135.625969 94.6944 
L 141.821688 94.6944 
L 141.821688 92.2752 
L 147.821715 92.2752 
L 147.821715 89.856 
L 148.465586 89.856 
L 148.465586 87.4368 
L 149.04006 87.4368 
L 149.04006 85.0176 
L 149.559556 85.0176 
L 149.559556 82.5984 
L 150.213515 82.5984 
L 150.213515 80.1792 
L 158.37132 80.1792 
L 158.37132 77.76 
L 158.656742 77.76 
L 158.656742 75.3408 
L 161.163867 75.3408 
L 161.163867 72.9216 
L 161.389643 72.9216 
L 161.389643 70.5024 
L 168.835112 70.5024 
L 168.835112 68.0832 
L 182.351666 68.0832 
L 182.369716 63.2448 
L 194.291554 63.2448 
L 194.291554 60.8256 
L 216.347988 60.8256 
L 216.347988 58.4064 
L 232.376205 58.4064 
L 232.376205 55.9872 
L 268.601388 55.9872 
L 268.601388 53.568 
L 271.786773 53.568 
L 271.786773 51.1488 
L 294.375331 51.1488 
L 294.375331 48.7296 
L 300.646516 48.7296 
L 300.646516 46.3104 
L 310.557489 46.3104 
L 310.557489 43.8912 
L 316.760262 43.8912 
L 316.760262 41.472 
L 316.760262 41.472 
" clip-path="url(#p2e629606ab)" style="fill: none; stroke: #d62728; stroke-width: 1.5; stroke-linecap: square"/>
   </g>
   <g id="line2d_30">
    <path d="M 73.832727 307.584 
L 73.935838 302.7456 
L 74.318198 302.7456 
L 74.318198 300.3264 
L 74.782508 300.3264 
L 74.872029 293.0688 
L 75.349617 293.0688 
L 75.349617 290.6496 
L 75.751401 290.6496 
L 75.751401 288.2304 
L 76.653023 288.2304 
L 76.653023 285.8112 
L 76.980612 285.8112 
L 77.000425 280.9728 
L 77.42682 280.9728 
L 77.42682 278.5536 
L 77.77137 278.5536 
L 77.863109 273.7152 
L 78.263013 273.7152 
L 78.263013 271.296 
L 79.237507 271.296 
L 79.237507 268.8768 
L 79.442043 268.8768 
L 79.442043 266.4576 
L 79.624328 266.4576 
L 79.624328 264.0384 
L 79.992983 264.0384 
L 80.088495 256.7808 
L 80.146923 256.7808 
L 80.166723 251.9424 
L 80.297569 251.9424 
L 80.38796 247.104 
L 80.886903 247.104 
L 80.886903 244.6848 
L 83.335847 244.6848 
L 83.335847 242.2656 
L 84.230208 242.2656 
L 84.230208 239.8464 
L 84.704553 239.8464 
L 84.704553 237.4272 
L 85.118604 237.4272 
L 85.118604 235.008 
L 86.847213 235.008 
L 86.847213 232.5888 
L 87.385769 232.5888 
L 87.385769 230.1696 
L 88.501159 230.1696 
L 88.598046 225.3312 
L 88.649342 225.3312 
L 88.649342 222.912 
L 88.860543 222.912 
L 88.860543 220.4928 
L 89.754774 220.4928 
L 89.803425 215.6544 
L 90.061046 215.6544 
L 90.061046 213.2352 
L 92.021524 213.2352 
L 92.021524 210.816 
L 92.733392 210.816 
L 92.733392 208.3968 
L 93.221223 208.3968 
L 93.221223 205.9776 
L 93.382061 205.9776 
L 93.382061 203.5584 
L 99.27545 203.5584 
L 99.27545 201.1392 
L 99.726326 201.1392 
L 99.726326 198.72 
L 101.244616 198.72 
L 101.244616 196.3008 
L 103.318396 196.3008 
L 103.318396 193.8816 
L 106.003943 193.8816 
L 106.003943 191.4624 
L 106.205081 191.4624 
L 106.205081 189.0432 
L 107.330067 189.0432 
L 107.330067 186.624 
L 112.594989 186.624 
L 112.594989 184.2048 
L 113.080356 184.2048 
L 113.080356 181.7856 
L 116.25962 181.7856 
L 116.25962 179.3664 
L 117.055331 179.3664 
L 117.055331 176.9472 
L 117.995698 176.9472 
L 118.045697 172.1088 
L 119.550657 172.1088 
L 119.550657 169.6896 
L 121.133909 169.6896 
L 121.133909 167.2704 
L 121.346796 167.2704 
L 121.346796 164.8512 
L 125.821998 164.8512 
L 125.821998 162.432 
L 127.163059 162.432 
L 127.163059 160.0128 
L 128.090537 160.0128 
L 128.090537 157.5936 
L 128.26958 157.5936 
L 128.37601 150.336 
L 131.034068 150.336 
L 131.034068 147.9168 
L 131.194076 147.9168 
L 131.194076 145.4976 
L 134.672091 145.4976 
L 134.703159 140.6592 
L 135.101572 140.6592 
L 135.101572 138.24 
L 135.96388 138.24 
L 135.96388 135.8208 
L 136.708061 135.8208 
L 136.708061 133.4016 
L 139.190913 133.4016 
L 139.190913 130.9824 
L 142.346591 130.9824 
L 142.360063 126.144 
L 144.486644 126.144 
L 144.486644 123.7248 
L 146.769343 123.7248 
L 146.769343 121.3056 
L 150.112816 121.3056 
L 150.112816 118.8864 
L 150.409856 118.8864 
L 150.409856 116.4672 
L 153.727033 116.4672 
L 153.727033 114.048 
L 157.251573 114.048 
L 157.251573 111.6288 
L 158.692271 111.6288 
L 158.692271 109.2096 
L 163.8129 109.2096 
L 163.8129 106.7904 
L 172.304336 106.7904 
L 172.304336 104.3712 
L 179.488062 104.3712 
L 179.488062 101.952 
L 186.135357 101.952 
L 186.135357 99.5328 
L 187.587698 99.5328 
L 187.587698 97.1136 
L 187.705747 97.1136 
L 187.705747 94.6944 
L 191.562025 94.6944 
L 191.562025 92.2752 
L 193.464568 92.2752 
L 193.464568 89.856 
L 203.482256 89.856 
L 203.482256 87.4368 
L 204.922305 87.4368 
L 204.922305 85.0176 
L 206.642433 85.0176 
L 206.642433 82.5984 
L 206.84243 82.5984 
L 206.84243 80.1792 
L 207.310863 80.1792 
L 207.310863 77.76 
L 208.957756 77.76 
L 208.957756 75.3408 
L 210.169359 75.3408 
L 210.169359 72.9216 
L 210.940147 72.9216 
L 210.940147 70.5024 
L 214.074858 70.5024 
L 214.074858 68.0832 
L 226.085389 68.0832 
L 226.085389 65.664 
L 228.11306 65.664 
L 228.11306 63.2448 
L 229.06839 63.2448 
L 229.06839 60.8256 
L 235.766333 60.8256 
L 235.766333 58.4064 
L 236.661135 58.4064 
L 236.661135 55.9872 
L 238.517076 55.9872 
L 238.517076 53.568 
L 243.198395 53.568 
L 243.198395 51.1488 
L 245.520824 51.1488 
L 245.520824 48.7296 
L 246.354708 48.7296 
L 246.354708 46.3104 
L 292.583757 46.3104 
L 292.583757 43.8912 
L 350.573132 43.8912 
L 350.573132 41.472 
L 350.573132 41.472 
" clip-path="url(#p2e629606ab)" style="fill: none; stroke: #2ca02c; stroke-width: 1.5; stroke-linecap: square"/>
   </g>
   <g id="line2d_31">
    <path d="M 74.508886 307.584 
L 74.508886 305.1648 
L 74.634066 305.1648 
L 74.634066 302.7456 
L 74.779538 302.7456 
L 74.779538 300.3264 
L 74.994525 300.3264 
L 75.026838 293.0688 
L 75.110628 293.0688 
L 75.110628 290.6496 
L 75.277003 290.6496 
L 75.277003 288.2304 
L 75.399927 288.2304 
L 75.399927 285.8112 
L 75.594634 285.8112 
L 75.629333 280.9728 
L 75.738253 280.9728 
L 75.738253 278.5536 
L 75.904407 278.5536 
L 75.945252 273.7152 
L 76.107685 273.7152 
L 76.213921 261.6192 
L 76.328857 261.6192 
L 76.420557 256.7808 
L 76.499602 256.7808 
L 76.507472 251.9424 
L 76.884763 251.9424 
L 76.975581 247.104 
L 77.292693 247.104 
L 77.292693 244.6848 
L 77.627751 244.6848 
L 77.627751 242.2656 
L 78.000101 242.2656 
L 78.000101 239.8464 
L 78.283293 239.8464 
L 78.303106 235.008 
L 78.492004 235.008 
L 78.534327 227.7504 
L 79.118863 227.7504 
L 79.118863 225.3312 
L 79.455918 225.3312 
L 79.46834 218.0736 
L 79.59894 218.0736 
L 79.59894 215.6544 
L 79.997067 215.6544 
L 79.997067 213.2352 
L 81.027656 213.2352 
L 81.027656 210.816 
L 81.250552 210.816 
L 81.250552 208.3968 
L 81.399746 208.3968 
L 81.501923 203.5584 
L 81.842609 203.5584 
L 81.842609 201.1392 
L 82.273075 201.1392 
L 82.344547 196.3008 
L 82.395792 196.3008 
L 82.395792 193.8816 
L 83.153458 193.8816 
L 83.153458 191.4624 
L 83.847744 191.4624 
L 83.847744 189.0432 
L 84.006248 189.0432 
L 84.072637 184.2048 
L 84.230727 184.2048 
L 84.230727 181.7856 
L 84.595789 181.7856 
L 84.673978 176.9472 
L 84.74392 176.9472 
L 84.74392 174.528 
L 84.901024 174.528 
L 84.901024 172.1088 
L 85.286003 172.1088 
L 85.32996 167.2704 
L 85.875934 167.2704 
L 85.876764 162.432 
L 86.49605 162.432 
L 86.49605 160.0128 
L 87.261678 160.0128 
L 87.261678 157.5936 
L 87.480477 157.5936 
L 87.580269 147.9168 
L 87.647695 147.9168 
L 87.647695 145.4976 
L 87.768492 145.4976 
L 87.768492 143.0784 
L 88.889069 143.0784 
L 88.89353 138.24 
L 89.859804 138.24 
L 89.859804 135.8208 
L 90.004511 135.8208 
L 90.004511 133.4016 
L 90.402846 133.4016 
L 90.48936 128.5632 
L 90.941247 128.5632 
L 90.941247 126.144 
L 93.173973 126.144 
L 93.173973 123.7248 
L 94.765654 123.7248 
L 94.765654 121.3056 
L 94.961813 121.3056 
L 94.961813 118.8864 
L 95.59583 118.8864 
L 95.685559 111.6288 
L 95.793493 111.6288 
L 95.793493 109.2096 
L 97.239481 109.2096 
L 97.239481 106.7904 
L 97.456179 106.7904 
L 97.456179 104.3712 
L 97.992583 104.3712 
L 97.992583 101.952 
L 98.839045 101.952 
L 98.839045 99.5328 
L 99.759365 99.5328 
L 99.759365 97.1136 
L 100.178136 97.1136 
L 100.178136 94.6944 
L 102.139625 94.6944 
L 102.139625 92.2752 
L 104.974859 92.2752 
L 104.976829 87.4368 
L 105.478172 87.4368 
L 105.478172 85.0176 
L 108.963889 85.0176 
L 108.963889 82.5984 
L 109.924588 82.5984 
L 109.924588 80.1792 
L 115.149209 80.1792 
L 115.149209 77.76 
L 121.464118 77.76 
L 121.486265 72.9216 
L 127.670599 72.9216 
L 127.670599 70.5024 
L 131.60849 70.5024 
L 131.60849 68.0832 
L 135.925499 68.0832 
L 135.925499 65.664 
L 138.018936 65.664 
L 138.018936 63.2448 
L 140.367661 63.2448 
L 140.367661 60.8256 
L 150.451298 60.8256 
L 150.451298 58.4064 
L 161.523121 58.4064 
L 161.523121 55.9872 
L 173.997339 55.9872 
L 173.997339 53.568 
L 180.194666 53.568 
L 180.194666 51.1488 
L 239.202181 51.1488 
L 239.202181 48.7296 
L 242.618631 48.7296 
L 242.618631 46.3104 
L 272.16099 46.3104 
L 272.16099 43.8912 
L 354.629018 43.8912 
L 354.629018 41.472 
L 354.629018 41.472 
" clip-path="url(#p2e629606ab)" style="fill: none; stroke: #ff7f0e; stroke-width: 1.5; stroke-linecap: square"/>
   </g>
   <g id="line2d_32">
    <path d="M 73.905289 307.584 
L 73.964883 302.7456 
L 74.635518 302.7456 
L 74.643298 297.9072 
L 74.781159 297.9072 
L 74.781159 295.488 
L 75.461959 295.488 
L 75.543597 290.6496 
L 76.180208 290.6496 
L 76.180208 288.2304 
L 76.529581 288.2304 
L 76.640575 280.9728 
L 76.813965 280.9728 
L 76.896277 273.7152 
L 77.35208 273.7152 
L 77.451146 268.8768 
L 77.983348 268.8768 
L 77.983348 266.4576 
L 78.478726 266.4576 
L 78.478726 264.0384 
L 79.403195 264.0384 
L 79.486182 259.2 
L 79.854279 259.2 
L 79.854279 256.7808 
L 80.501833 256.7808 
L 80.501833 254.3616 
L 80.789796 254.3616 
L 80.789796 251.9424 
L 81.018112 251.9424 
L 81.018112 249.5232 
L 81.178484 249.5232 
L 81.178484 247.104 
L 82.263739 247.104 
L 82.263739 244.6848 
L 82.749418 244.6848 
L 82.749418 242.2656 
L 83.090181 242.2656 
L 83.090181 239.8464 
L 83.211756 239.8464 
L 83.215698 235.008 
L 83.373684 235.008 
L 83.373684 232.5888 
L 83.850856 232.5888 
L 83.948313 227.7504 
L 84.253029 227.7504 
L 84.253029 225.3312 
L 84.578025 225.3312 
L 84.578025 222.912 
L 85.03965 222.912 
L 85.03965 220.4928 
L 85.233722 220.4928 
L 85.233722 218.0736 
L 85.541602 218.0736 
L 85.541602 215.6544 
L 86.253016 215.6544 
L 86.268265 210.816 
L 86.620906 210.816 
L 86.711815 201.1392 
L 87.689668 201.1392 
L 87.689668 198.72 
L 88.430335 198.72 
L 88.430335 196.3008 
L 88.933674 196.3008 
L 88.933674 193.8816 
L 89.268382 193.8816 
L 89.334136 189.0432 
L 89.638204 189.0432 
L 89.638204 186.624 
L 91.541629 186.624 
L 91.541629 184.2048 
L 91.973262 184.2048 
L 91.973262 181.7856 
L 92.412261 181.7856 
L 92.412261 179.3664 
L 92.668481 179.3664 
L 92.668481 176.9472 
L 93.100218 176.9472 
L 93.100218 174.528 
L 93.517174 174.528 
L 93.517174 172.1088 
L 96.262522 172.1088 
L 96.262522 169.6896 
L 97.332633 169.6896 
L 97.332633 167.2704 
L 99.697748 167.2704 
L 99.697748 164.8512 
L 100.151684 164.8512 
L 100.180833 160.0128 
L 100.961865 160.0128 
L 100.961865 157.5936 
L 101.523606 157.5936 
L 101.523606 155.1744 
L 101.962086 155.1744 
L 101.962086 152.7552 
L 102.673851 152.7552 
L 102.673851 150.336 
L 103.017259 150.336 
L 103.017259 147.9168 
L 103.552263 147.9168 
L 103.552263 145.4976 
L 104.757019 145.4976 
L 104.757019 143.0784 
L 105.358152 143.0784 
L 105.358152 140.6592 
L 106.559278 140.6592 
L 106.559278 138.24 
L 107.569483 138.24 
L 107.569483 135.8208 
L 108.817652 135.8208 
L 108.817652 133.4016 
L 110.819337 133.4016 
L 110.819337 130.9824 
L 111.845517 130.9824 
L 111.845517 128.5632 
L 112.031822 128.5632 
L 112.031822 126.144 
L 114.702846 126.144 
L 114.702846 123.7248 
L 116.929269 123.7248 
L 116.929269 121.3056 
L 117.136321 121.3056 
L 117.136321 118.8864 
L 118.296679 118.8864 
L 118.296679 116.4672 
L 118.438353 116.4672 
L 118.438353 114.048 
L 124.169633 114.048 
L 124.169633 111.6288 
L 124.337369 111.6288 
L 124.337369 109.2096 
L 124.488379 109.2096 
L 124.488379 106.7904 
L 129.616866 106.7904 
L 129.616866 104.3712 
L 132.242869 104.3712 
L 132.242869 101.952 
L 132.881865 101.952 
L 132.881865 99.5328 
L 133.344515 99.5328 
L 133.344515 97.1136 
L 133.966162 97.1136 
L 133.966162 94.6944 
L 134.135221 94.6944 
L 134.135221 92.2752 
L 138.033044 92.2752 
L 138.033044 89.856 
L 141.834033 89.856 
L 141.834033 87.4368 
L 142.177182 87.4368 
L 142.177182 85.0176 
L 146.81789 85.0176 
L 146.81789 82.5984 
L 149.898711 82.5984 
L 149.898711 80.1792 
L 150.200004 80.1792 
L 150.200004 77.76 
L 151.0363 77.76 
L 151.0363 75.3408 
L 152.464135 75.3408 
L 152.464135 72.9216 
L 153.122684 72.9216 
L 153.122684 70.5024 
L 153.941502 70.5024 
L 153.941502 68.0832 
L 155.068717 68.0832 
L 155.068717 65.664 
L 155.656184 65.664 
L 155.656184 63.2448 
L 168.243496 63.2448 
L 168.243496 60.8256 
L 170.970173 60.8256 
L 170.970173 58.4064 
L 179.474213 58.4064 
L 179.474213 55.9872 
L 186.326719 55.9872 
L 186.326719 53.568 
L 206.073249 53.568 
L 206.073249 51.1488 
L 208.621764 51.1488 
L 208.621764 48.7296 
L 229.500179 48.7296 
L 229.500179 46.3104 
L 242.891708 46.3104 
L 242.891708 43.8912 
L 398.487273 43.8912 
L 398.487273 41.472 
L 398.487273 41.472 
" clip-path="url(#p2e629606ab)" style="fill: none; stroke: #1f77b4; stroke-width: 1.5; stroke-linecap: square"/>
   </g>
   <g id="patch_3">
    <path d="M 57.6 307.584 
L 57.6 41.472 
" style="fill: none; stroke: #000000; stroke-width: 0.8; stroke-linejoin: miter; stroke-linecap: square"/>
   </g>
   <g id="patch_4">
    <path d="M 414.72 307.584 
L 414.72 41.472 
" style="fill: none; stroke: #000000; stroke-width: 0.8; stroke-linejoin: miter; stroke-linecap: square"/>
   </g>
   <g id="patch_5">
    <path d="M 57.6 307.584 
L 414.72 307.584 
" style="fill: none; stroke: #000000; stroke-width: 0.8; stroke-linejoin: miter; stroke-linecap: square"/>
   </g>
   <g id="patch_6">
    <path d="M 57.6 41.472 
L 414.72 41.472 
" style="fill: none; stroke: #000000; stroke-width: 0.8; stroke-linejoin: miter; stroke-linecap: square"/>
   </g>
   <g id="legend_1">
    <g id="patch_7">
     <path d="M 246.893438 302.584 
L 407.72 302.584 
Q 409.72 302.584 409.72 300.584 
L 409.72 211.8465 
Q 409.72 209.8465 407.72 209.8465 
L 246.893438 209.8465 
Q 244.893438 209.8465 244.893438 211.8465 
L 244.893438 300.584 
Q 244.893438 302.584 246.893438 302.584 
z
" style="fill: #ffffff; opacity: 0.8; stroke: #cccccc; stroke-linejoin: miter"/>
    </g>
    <g id="line2d_33">
     <path d="M 248.893438 217.944937 
L 258.893438 217.944937 
L 258.893438 217.944937 
L 268.893438 217.944937 
L 268.893438 217.944937 
" style="fill: none; stroke: #1f77b4; stroke-width: 1.5; stroke-linecap: square"/>
    </g>
    <g id="text_16">
     <!-- Playground_without_GMM -->
     <g transform="translate(276.893438 221.444937) scale(0.1 -0.1)">
      <defs>
       <path id="DejaVuSans-6c" d="M 603 4863 
L 1178 4863 
L 1178 0 
L 603 0 
L 603 4863 
z
" transform="scale(0.015625)"/>
       <path id="DejaVuSans-79" d="M 2059 -325 
Q 1816 -950 1584 -1140 
Q 1353 -1331 966 -1331 
L 506 -1331 
L 506 -850 
L 844 -850 
Q 1081 -850 1212 -737 
Q 1344 -625 1503 -206 
L 1606 56 
L 191 3500 
L 800 3500 
L 1894 763 
L 2988 3500 
L 3597 3500 
L 2059 -325 
z
" transform="scale(0.015625)"/>
       <path id="DejaVuSans-67" d="M 2906 1791 
Q 2906 2416 2648 2759 
Q 2391 3103 1925 3103 
Q 1463 3103 1205 2759 
Q 947 2416 947 1791 
Q 947 1169 1205 825 
Q 1463 481 1925 481 
Q 2391 481 2648 825 
Q 2906 1169 2906 1791 
z
M 3481 434 
Q 3481 -459 3084 -895 
Q 2688 -1331 1869 -1331 
Q 1566 -1331 1297 -1286 
Q 1028 -1241 775 -1147 
L 775 -588 
Q 1028 -725 1275 -790 
Q 1522 -856 1778 -856 
Q 2344 -856 2625 -561 
Q 2906 -266 2906 331 
L 2906 616 
Q 2728 306 2450 153 
Q 2172 0 1784 0 
Q 1141 0 747 490 
Q 353 981 353 1791 
Q 353 2603 747 3093 
Q 1141 3584 1784 3584 
Q 2172 3584 2450 3431 
Q 2728 3278 2906 2969 
L 2906 3500 
L 3481 3500 
L 3481 434 
z
" transform="scale(0.015625)"/>
       <path id="DejaVuSans-75" d="M 544 1381 
L 544 3500 
L 1119 3500 
L 1119 1403 
Q 1119 906 1312 657 
Q 1506 409 1894 409 
Q 2359 409 2629 706 
Q 2900 1003 2900 1516 
L 2900 3500 
L 3475 3500 
L 3475 0 
L 2900 0 
L 2900 538 
Q 2691 219 2414 64 
Q 2138 -91 1772 -91 
Q 1169 -91 856 284 
Q 544 659 544 1381 
z
M 1991 3584 
L 1991 3584 
z
" transform="scale(0.015625)"/>
       <path id="DejaVuSans-64" d="M 2906 2969 
L 2906 4863 
L 3481 4863 
L 3481 0 
L 2906 0 
L 2906 525 
Q 2725 213 2448 61 
Q 2172 -91 1784 -91 
Q 1150 -91 751 415 
Q 353 922 353 1747 
Q 353 2572 751 3078 
Q 1150 3584 1784 3584 
Q 2172 3584 2448 3432 
Q 2725 3281 2906 2969 
z
M 947 1747 
Q 947 1113 1208 752 
Q 1469 391 1925 391 
Q 2381 391 2643 752 
Q 2906 1113 2906 1747 
Q 2906 2381 2643 2742 
Q 2381 3103 1925 3103 
Q 1469 3103 1208 2742 
Q 947 2381 947 1747 
z
" transform="scale(0.015625)"/>
       <path id="DejaVuSans-5f" d="M 3263 -1063 
L 3263 -1509 
L -63 -1509 
L -63 -1063 
L 3263 -1063 
z
" transform="scale(0.015625)"/>
       <path id="DejaVuSans-77" d="M 269 3500 
L 844 3500 
L 1563 769 
L 2278 3500 
L 2956 3500 
L 3675 769 
L 4391 3500 
L 4966 3500 
L 4050 0 
L 3372 0 
L 2619 2869 
L 1863 0 
L 1184 0 
L 269 3500 
z
" transform="scale(0.015625)"/>
       <path id="DejaVuSans-68" d="M 3513 2113 
L 3513 0 
L 2938 0 
L 2938 2094 
Q 2938 2591 2744 2837 
Q 2550 3084 2163 3084 
Q 1697 3084 1428 2787 
Q 1159 2491 1159 1978 
L 1159 0 
L 581 0 
L 581 4863 
L 1159 4863 
L 1159 2956 
Q 1366 3272 1645 3428 
Q 1925 3584 2291 3584 
Q 2894 3584 3203 3211 
Q 3513 2838 3513 2113 
z
" transform="scale(0.015625)"/>
       <path id="DejaVuSans-47" d="M 3809 666 
L 3809 1919 
L 2778 1919 
L 2778 2438 
L 4434 2438 
L 4434 434 
Q 4069 175 3628 42 
Q 3188 -91 2688 -91 
Q 1594 -91 976 548 
Q 359 1188 359 2328 
Q 359 3472 976 4111 
Q 1594 4750 2688 4750 
Q 3144 4750 3555 4637 
Q 3966 4525 4313 4306 
L 4313 3634 
Q 3963 3931 3569 4081 
Q 3175 4231 2741 4231 
Q 1884 4231 1454 3753 
Q 1025 3275 1025 2328 
Q 1025 1384 1454 906 
Q 1884 428 2741 428 
Q 3075 428 3337 486 
Q 3600 544 3809 666 
z
" transform="scale(0.015625)"/>
       <path id="DejaVuSans-4d" d="M 628 4666 
L 1569 4666 
L 2759 1491 
L 3956 4666 
L 4897 4666 
L 4897 0 
L 4281 0 
L 4281 4097 
L 3078 897 
L 2444 897 
L 1241 4097 
L 1241 0 
L 628 0 
L 628 4666 
z
" transform="scale(0.015625)"/>
      </defs>
      <use xlink:href="#DejaVuSans-50"/>
      <use xlink:href="#DejaVuSans-6c" x="60.302734"/>
      <use xlink:href="#DejaVuSans-61" x="88.085938"/>
      <use xlink:href="#DejaVuSans-79" x="149.365234"/>
      <use xlink:href="#DejaVuSans-67" x="208.544922"/>
      <use xlink:href="#DejaVuSans-72" x="272.021484"/>
      <use xlink:href="#DejaVuSans-6f" x="310.884766"/>
      <use xlink:href="#DejaVuSans-75" x="372.066406"/>
      <use xlink:href="#DejaVuSans-6e" x="435.445312"/>
      <use xlink:href="#DejaVuSans-64" x="498.824219"/>
      <use xlink:href="#DejaVuSans-5f" x="562.300781"/>
      <use xlink:href="#DejaVuSans-77" x="612.300781"/>
      <use xlink:href="#DejaVuSans-69" x="694.087891"/>
      <use xlink:href="#DejaVuSans-74" x="721.871094"/>
      <use xlink:href="#DejaVuSans-68" x="761.080078"/>
      <use xlink:href="#DejaVuSans-6f" x="824.458984"/>
      <use xlink:href="#DejaVuSans-75" x="885.640625"/>
      <use xlink:href="#DejaVuSans-74" x="949.019531"/>
      <use xlink:href="#DejaVuSans-5f" x="988.228516"/>
      <use xlink:href="#DejaVuSans-47" x="1038.228516"/>
      <use xlink:href="#DejaVuSans-4d" x="1115.71875"/>
      <use xlink:href="#DejaVuSans-4d" x="1201.998047"/>
     </g>
    </g>
    <g id="line2d_34">
     <path d="M 248.893438 232.901187 
L 258.893438 232.901187 
L 258.893438 232.901187 
L 268.893438 232.901187 
L 268.893438 232.901187 
" style="fill: none; stroke: #ff7f0e; stroke-width: 1.5; stroke-linecap: square"/>
    </g>
    <g id="text_17">
     <!-- Playground_with_GMM -->
     <g transform="translate(276.893438 236.401187) scale(0.1 -0.1)">
      <use xlink:href="#DejaVuSans-50"/>
      <use xlink:href="#DejaVuSans-6c" x="60.302734"/>
      <use xlink:href="#DejaVuSans-61" x="88.085938"/>
      <use xlink:href="#DejaVuSans-79" x="149.365234"/>
      <use xlink:href="#DejaVuSans-67" x="208.544922"/>
      <use xlink:href="#DejaVuSans-72" x="272.021484"/>
      <use xlink:href="#DejaVuSans-6f" x="310.884766"/>
      <use xlink:href="#DejaVuSans-75" x="372.066406"/>
      <use xlink:href="#DejaVuSans-6e" x="435.445312"/>
      <use xlink:href="#DejaVuSans-64" x="498.824219"/>
      <use xlink:href="#DejaVuSans-5f" x="562.300781"/>
      <use xlink:href="#DejaVuSans-77" x="612.300781"/>
      <use xlink:href="#DejaVuSans-69" x="694.087891"/>
      <use xlink:href="#DejaVuSans-74" x="721.871094"/>
      <use xlink:href="#DejaVuSans-68" x="761.080078"/>
      <use xlink:href="#DejaVuSans-5f" x="824.458984"/>
      <use xlink:href="#DejaVuSans-47" x="874.458984"/>
      <use xlink:href="#DejaVuSans-4d" x="951.949219"/>
      <use xlink:href="#DejaVuSans-4d" x="1038.228516"/>
     </g>
    </g>
    <g id="line2d_35">
     <path d="M 248.893438 247.857437 
L 258.893438 247.857437 
L 258.893438 247.857437 
L 268.893438 247.857437 
L 268.893438 247.857437 
" style="fill: none; stroke: #2ca02c; stroke-width: 1.5; stroke-linecap: square"/>
    </g>
    <g id="text_18">
     <!-- Office_without_GMM -->
     <g transform="translate(276.893438 251.357437) scale(0.1 -0.1)">
      <defs>
       <path id="DejaVuSans-4f" d="M 2522 4238 
Q 1834 4238 1429 3725 
Q 1025 3213 1025 2328 
Q 1025 1447 1429 934 
Q 1834 422 2522 422 
Q 3209 422 3611 934 
Q 4013 1447 4013 2328 
Q 4013 3213 3611 3725 
Q 3209 4238 2522 4238 
z
M 2522 4750 
Q 3503 4750 4090 4092 
Q 4678 3434 4678 2328 
Q 4678 1225 4090 567 
Q 3503 -91 2522 -91 
Q 1538 -91 948 565 
Q 359 1222 359 2328 
Q 359 3434 948 4092 
Q 1538 4750 2522 4750 
z
" transform="scale(0.015625)"/>
       <path id="DejaVuSans-66" d="M 2375 4863 
L 2375 4384 
L 1825 4384 
Q 1516 4384 1395 4259 
Q 1275 4134 1275 3809 
L 1275 3500 
L 2222 3500 
L 2222 3053 
L 1275 3053 
L 1275 0 
L 697 0 
L 697 3053 
L 147 3053 
L 147 3500 
L 697 3500 
L 697 3744 
Q 697 4328 969 4595 
Q 1241 4863 1831 4863 
L 2375 4863 
z
" transform="scale(0.015625)"/>
       <path id="DejaVuSans-63" d="M 3122 3366 
L 3122 2828 
Q 2878 2963 2633 3030 
Q 2388 3097 2138 3097 
Q 1578 3097 1268 2742 
Q 959 2388 959 1747 
Q 959 1106 1268 751 
Q 1578 397 2138 397 
Q 2388 397 2633 464 
Q 2878 531 3122 666 
L 3122 134 
Q 2881 22 2623 -34 
Q 2366 -91 2075 -91 
Q 1284 -91 818 406 
Q 353 903 353 1747 
Q 353 2603 823 3093 
Q 1294 3584 2113 3584 
Q 2378 3584 2631 3529 
Q 2884 3475 3122 3366 
z
" transform="scale(0.015625)"/>
       <path id="DejaVuSans-65" d="M 3597 1894 
L 3597 1613 
L 953 1613 
Q 991 1019 1311 708 
Q 1631 397 2203 397 
Q 2534 397 2845 478 
Q 3156 559 3463 722 
L 3463 178 
Q 3153 47 2828 -22 
Q 2503 -91 2169 -91 
Q 1331 -91 842 396 
Q 353 884 353 1716 
Q 353 2575 817 3079 
Q 1281 3584 2069 3584 
Q 2775 3584 3186 3129 
Q 3597 2675 3597 1894 
z
M 3022 2063 
Q 3016 2534 2758 2815 
Q 2500 3097 2075 3097 
Q 1594 3097 1305 2825 
Q 1016 2553 972 2059 
L 3022 2063 
z
" transform="scale(0.015625)"/>
      </defs>
      <use xlink:href="#DejaVuSans-4f"/>
      <use xlink:href="#DejaVuSans-66" x="78.710938"/>
      <use xlink:href="#DejaVuSans-66" x="113.916016"/>
      <use xlink:href="#DejaVuSans-69" x="149.121094"/>
      <use xlink:href="#DejaVuSans-63" x="176.904297"/>
      <use xlink:href="#DejaVuSans-65" x="231.884766"/>
      <use xlink:href="#DejaVuSans-5f" x="293.408203"/>
      <use xlink:href="#DejaVuSans-77" x="343.408203"/>
      <use xlink:href="#DejaVuSans-69" x="425.195312"/>
      <use xlink:href="#DejaVuSans-74" x="452.978516"/>
      <use xlink:href="#DejaVuSans-68" x="492.1875"/>
      <use xlink:href="#DejaVuSans-6f" x="555.566406"/>
      <use xlink:href="#DejaVuSans-75" x="616.748047"/>
      <use xlink:href="#DejaVuSans-74" x="680.126953"/>
      <use xlink:href="#DejaVuSans-5f" x="719.335938"/>
      <use xlink:href="#DejaVuSans-47" x="769.335938"/>
      <use xlink:href="#DejaVuSans-4d" x="846.826172"/>
      <use xlink:href="#DejaVuSans-4d" x="933.105469"/>
     </g>
    </g>
    <g id="line2d_36">
     <path d="M 248.893438 262.813688 
L 258.893438 262.813688 
L 258.893438 262.813688 
L 268.893438 262.813688 
L 268.893438 262.813688 
" style="fill: none; stroke: #d62728; stroke-width: 1.5; stroke-linecap: square"/>
    </g>
    <g id="text_19">
     <!-- Office_with_GMM -->
     <g transform="translate(276.893438 266.313688) scale(0.1 -0.1)">
      <use xlink:href="#DejaVuSans-4f"/>
      <use xlink:href="#DejaVuSans-66" x="78.710938"/>
      <use xlink:href="#DejaVuSans-66" x="113.916016"/>
      <use xlink:href="#DejaVuSans-69" x="149.121094"/>
      <use xlink:href="#DejaVuSans-63" x="176.904297"/>
      <use xlink:href="#DejaVuSans-65" x="231.884766"/>
      <use xlink:href="#DejaVuSans-5f" x="293.408203"/>
      <use xlink:href="#DejaVuSans-77" x="343.408203"/>
      <use xlink:href="#DejaVuSans-69" x="425.195312"/>
      <use xlink:href="#DejaVuSans-74" x="452.978516"/>
      <use xlink:href="#DejaVuSans-68" x="492.1875"/>
      <use xlink:href="#DejaVuSans-5f" x="555.566406"/>
      <use xlink:href="#DejaVuSans-47" x="605.566406"/>
      <use xlink:href="#DejaVuSans-4d" x="683.056641"/>
      <use xlink:href="#DejaVuSans-4d" x="769.335938"/>
     </g>
    </g>
    <g id="line2d_37">
     <path d="M 248.893438 277.769937 
L 258.893438 277.769937 
L 258.893438 277.769937 
L 268.893438 277.769937 
L 268.893438 277.769937 
" style="fill: none; stroke: #9467bd; stroke-width: 1.5; stroke-linecap: square"/>
    </g>
    <g id="text_20">
     <!-- Parking_lot_without_GMM -->
     <g transform="translate(276.893438 281.269937) scale(0.1 -0.1)">
      <defs>
       <path id="DejaVuSans-6b" d="M 581 4863 
L 1159 4863 
L 1159 1991 
L 2875 3500 
L 3609 3500 
L 1753 1863 
L 3688 0 
L 2938 0 
L 1159 1709 
L 1159 0 
L 581 0 
L 581 4863 
z
" transform="scale(0.015625)"/>
      </defs>
      <use xlink:href="#DejaVuSans-50"/>
      <use xlink:href="#DejaVuSans-61" x="55.802734"/>
      <use xlink:href="#DejaVuSans-72" x="117.082031"/>
      <use xlink:href="#DejaVuSans-6b" x="158.195312"/>
      <use xlink:href="#DejaVuSans-69" x="216.105469"/>
      <use xlink:href="#DejaVuSans-6e" x="243.888672"/>
      <use xlink:href="#DejaVuSans-67" x="307.267578"/>
      <use xlink:href="#DejaVuSans-5f" x="370.744141"/>
      <use xlink:href="#DejaVuSans-6c" x="420.744141"/>
      <use xlink:href="#DejaVuSans-6f" x="448.527344"/>
      <use xlink:href="#DejaVuSans-74" x="509.708984"/>
      <use xlink:href="#DejaVuSans-5f" x="548.917969"/>
      <use xlink:href="#DejaVuSans-77" x="598.917969"/>
      <use xlink:href="#DejaVuSans-69" x="680.705078"/>
      <use xlink:href="#DejaVuSans-74" x="708.488281"/>
      <use xlink:href="#DejaVuSans-68" x="747.697266"/>
      <use xlink:href="#DejaVuSans-6f" x="811.076172"/>
      <use xlink:href="#DejaVuSans-75" x="872.257812"/>
      <use xlink:href="#DejaVuSans-74" x="935.636719"/>
      <use xlink:href="#DejaVuSans-5f" x="974.845703"/>
      <use xlink:href="#DejaVuSans-47" x="1024.845703"/>
      <use xlink:href="#DejaVuSans-4d" x="1102.335938"/>
      <use xlink:href="#DejaVuSans-4d" x="1188.615234"/>
     </g>
    </g>
    <g id="line2d_38">
     <path d="M 248.893438 292.726187 
L 258.893438 292.726187 
L 258.893438 292.726187 
L 268.893438 292.726187 
L 268.893438 292.726187 
" style="fill: none; stroke: #8c564b; stroke-width: 1.5; stroke-linecap: square"/>
    </g>
    <g id="text_21">
     <!-- Parking_lot_with_GMM -->
     <g transform="translate(276.893438 296.226187) scale(0.1 -0.1)">
      <use xlink:href="#DejaVuSans-50"/>
      <use xlink:href="#DejaVuSans-61" x="55.802734"/>
      <use xlink:href="#DejaVuSans-72" x="117.082031"/>
      <use xlink:href="#DejaVuSans-6b" x="158.195312"/>
      <use xlink:href="#DejaVuSans-69" x="216.105469"/>
      <use xlink:href="#DejaVuSans-6e" x="243.888672"/>
      <use xlink:href="#DejaVuSans-67" x="307.267578"/>
      <use xlink:href="#DejaVuSans-5f" x="370.744141"/>
      <use xlink:href="#DejaVuSans-6c" x="420.744141"/>
      <use xlink:href="#DejaVuSans-6f" x="448.527344"/>
      <use xlink:href="#DejaVuSans-74" x="509.708984"/>
      <use xlink:href="#DejaVuSans-5f" x="548.917969"/>
      <use xlink:href="#DejaVuSans-77" x="598.917969"/>
      <use xlink:href="#DejaVuSans-69" x="680.705078"/>
      <use xlink:href="#DejaVuSans-74" x="708.488281"/>
      <use xlink:href="#DejaVuSans-68" x="747.697266"/>
      <use xlink:href="#DejaVuSans-5f" x="811.076172"/>
      <use xlink:href="#DejaVuSans-47" x="861.076172"/>
      <use xlink:href="#DejaVuSans-4d" x="938.566406"/>
      <use xlink:href="#DejaVuSans-4d" x="1024.845703"/>
     </g>
    </g>
   </g>
  </g>
 </g>
 <defs>
  <clipPath id="p2e629606ab">
   <rect x="57.6" y="41.472" width="357.12" height="266.112"/>
  </clipPath>
 </defs>
</svg>
