<?xml version="1.0" encoding="utf-8" standalone="no"?>
<!DOCTYPE svg PUBLIC "-//W3C//DTD SVG 1.1//EN"
  "http://www.w3.org/Graphics/SVG/1.1/DTD/svg11.dtd">
<svg xmlns:xlink="http://www.w3.org/1999/xlink" width="576pt" height="432pt" viewBox="0 0 576 432" xmlns="http://www.w3.org/2000/svg" version="1.1">
 <metadata>
  <rdf:RDF xmlns:dc="http://purl.org/dc/elements/1.1/" xmlns:cc="http://creativecommons.org/ns#" xmlns:rdf="http://www.w3.org/1999/02/22-rdf-syntax-ns#">
   <cc:Work>
    <dc:type rdf:resource="http://purl.org/dc/dcmitype/StillImage"/>
    <dc:date>2025-04-15T10:38:36.790414</dc:date>
    <dc:format>image/svg+xml</dc:format>
    <dc:creator>
     <cc:Agent>
      <dc:title>Matplotlib v3.8.0, https://matplotlib.org/</dc:title>
     </cc:Agent>
    </dc:creator>
   </cc:Work>
  </rdf:RDF>
 </metadata>
 <defs>
  <style type="text/css">*{stroke-linejoin: round; stroke-linecap: butt}</style>
 </defs>
 <g id="figure_1">
  <g id="patch_1">
   <path d="M 0 432 
L 576 432 
L 576 0 
L 0 0 
z
" style="fill: #ffffff"/>
  </g>
  <g id="axes_1">
   <g id="patch_2">
    <path d="M 72 384.48 
L 518.4 384.48 
L 518.4 51.84 
L 72 51.84 
z
" style="fill: #ffffff"/>
   </g>
   <g id="matplotlib.axis_1">
    <g id="xtick_1">
     <g id="line2d_1">
      <path d="M 92.084477 384.48 
L 92.084477 51.84 
" clip-path="url(#p46f60242b3)" style="fill: none; stroke: #b0b0b0; stroke-width: 0.8; stroke-linecap: square"/>
     </g>
     <g id="line2d_2">
      <defs>
       <path id="mebb5156992" d="M 0 0 
L 0 3.5 
" style="stroke: #000000; stroke-width: 0.8"/>
      </defs>
      <g>
       <use xlink:href="#mebb5156992" x="92.084477" y="384.48" style="stroke: #000000; stroke-width: 0.8"/>
      </g>
     </g>
     <g id="text_1">
      <!-- 0 -->
      <g transform="translate(88.903227 399.078438) scale(0.1 -0.1)">
       <defs>
        <path id="DejaVuSans-30" d="M 2034 4250 
Q 1547 4250 1301 3770 
Q 1056 3291 1056 2328 
Q 1056 1369 1301 889 
Q 1547 409 2034 409 
Q 2525 409 2770 889 
Q 3016 1369 3016 2328 
Q 3016 3291 2770 3770 
Q 2525 4250 2034 4250 
z
M 2034 4750 
Q 2819 4750 3233 4129 
Q 3647 3509 3647 2328 
Q 3647 1150 3233 529 
Q 2819 -91 2034 -91 
Q 1250 -91 836 529 
Q 422 1150 422 2328 
Q 422 3509 836 4129 
Q 1250 4750 2034 4750 
z
" transform="scale(0.015625)"/>
       </defs>
       <use xlink:href="#DejaVuSans-30"/>
      </g>
     </g>
    </g>
    <g id="xtick_2">
     <g id="line2d_3">
      <path d="M 149.538884 384.48 
L 149.538884 51.84 
" clip-path="url(#p46f60242b3)" style="fill: none; stroke: #b0b0b0; stroke-width: 0.8; stroke-linecap: square"/>
     </g>
     <g id="line2d_4">
      <g>
       <use xlink:href="#mebb5156992" x="149.538884" y="384.48" style="stroke: #000000; stroke-width: 0.8"/>
      </g>
     </g>
     <g id="text_2">
      <!-- 1 -->
      <g transform="translate(146.357634 399.078438) scale(0.1 -0.1)">
       <defs>
        <path id="DejaVuSans-31" d="M 794 531 
L 1825 531 
L 1825 4091 
L 703 3866 
L 703 4441 
L 1819 4666 
L 2450 4666 
L 2450 531 
L 3481 531 
L 3481 0 
L 794 0 
L 794 531 
z
" transform="scale(0.015625)"/>
       </defs>
       <use xlink:href="#DejaVuSans-31"/>
      </g>
     </g>
    </g>
    <g id="xtick_3">
     <g id="line2d_5">
      <path d="M 206.99329 384.48 
L 206.99329 51.84 
" clip-path="url(#p46f60242b3)" style="fill: none; stroke: #b0b0b0; stroke-width: 0.8; stroke-linecap: square"/>
     </g>
     <g id="line2d_6">
      <g>
       <use xlink:href="#mebb5156992" x="206.99329" y="384.48" style="stroke: #000000; stroke-width: 0.8"/>
      </g>
     </g>
     <g id="text_3">
      <!-- 2 -->
      <g transform="translate(203.81204 399.078438) scale(0.1 -0.1)">
       <defs>
        <path id="DejaVuSans-32" d="M 1228 531 
L 3431 531 
L 3431 0 
L 469 0 
L 469 531 
Q 828 903 1448 1529 
Q 2069 2156 2228 2338 
Q 2531 2678 2651 2914 
Q 2772 3150 2772 3378 
Q 2772 3750 2511 3984 
Q 2250 4219 1831 4219 
Q 1534 4219 1204 4116 
Q 875 4013 500 3803 
L 500 4441 
Q 881 4594 1212 4672 
Q 1544 4750 1819 4750 
Q 2544 4750 2975 4387 
Q 3406 4025 3406 3419 
Q 3406 3131 3298 2873 
Q 3191 2616 2906 2266 
Q 2828 2175 2409 1742 
Q 1991 1309 1228 531 
z
" transform="scale(0.015625)"/>
       </defs>
       <use xlink:href="#DejaVuSans-32"/>
      </g>
     </g>
    </g>
    <g id="xtick_4">
     <g id="line2d_7">
      <path d="M 264.447696 384.48 
L 264.447696 51.84 
" clip-path="url(#p46f60242b3)" style="fill: none; stroke: #b0b0b0; stroke-width: 0.8; stroke-linecap: square"/>
     </g>
     <g id="line2d_8">
      <g>
       <use xlink:href="#mebb5156992" x="264.447696" y="384.48" style="stroke: #000000; stroke-width: 0.8"/>
      </g>
     </g>
     <g id="text_4">
      <!-- 3 -->
      <g transform="translate(261.266446 399.078438) scale(0.1 -0.1)">
       <defs>
        <path id="DejaVuSans-33" d="M 2597 2516 
Q 3050 2419 3304 2112 
Q 3559 1806 3559 1356 
Q 3559 666 3084 287 
Q 2609 -91 1734 -91 
Q 1441 -91 1130 -33 
Q 819 25 488 141 
L 488 750 
Q 750 597 1062 519 
Q 1375 441 1716 441 
Q 2309 441 2620 675 
Q 2931 909 2931 1356 
Q 2931 1769 2642 2001 
Q 2353 2234 1838 2234 
L 1294 2234 
L 1294 2753 
L 1863 2753 
Q 2328 2753 2575 2939 
Q 2822 3125 2822 3475 
Q 2822 3834 2567 4026 
Q 2313 4219 1838 4219 
Q 1578 4219 1281 4162 
Q 984 4106 628 3988 
L 628 4550 
Q 988 4650 1302 4700 
Q 1616 4750 1894 4750 
Q 2613 4750 3031 4423 
Q 3450 4097 3450 3541 
Q 3450 3153 3228 2886 
Q 3006 2619 2597 2516 
z
" transform="scale(0.015625)"/>
       </defs>
       <use xlink:href="#DejaVuSans-33"/>
      </g>
     </g>
    </g>
    <g id="xtick_5">
     <g id="line2d_9">
      <path d="M 321.902103 384.48 
L 321.902103 51.84 
" clip-path="url(#p46f60242b3)" style="fill: none; stroke: #b0b0b0; stroke-width: 0.8; stroke-linecap: square"/>
     </g>
     <g id="line2d_10">
      <g>
       <use xlink:href="#mebb5156992" x="321.902103" y="384.48" style="stroke: #000000; stroke-width: 0.8"/>
      </g>
     </g>
     <g id="text_5">
      <!-- 4 -->
      <g transform="translate(318.720853 399.078438) scale(0.1 -0.1)">
       <defs>
        <path id="DejaVuSans-34" d="M 2419 4116 
L 825 1625 
L 2419 1625 
L 2419 4116 
z
M 2253 4666 
L 3047 4666 
L 3047 1625 
L 3713 1625 
L 3713 1100 
L 3047 1100 
L 3047 0 
L 2419 0 
L 2419 1100 
L 313 1100 
L 313 1709 
L 2253 4666 
z
" transform="scale(0.015625)"/>
       </defs>
       <use xlink:href="#DejaVuSans-34"/>
      </g>
     </g>
    </g>
    <g id="xtick_6">
     <g id="line2d_11">
      <path d="M 379.356509 384.48 
L 379.356509 51.84 
" clip-path="url(#p46f60242b3)" style="fill: none; stroke: #b0b0b0; stroke-width: 0.8; stroke-linecap: square"/>
     </g>
     <g id="line2d_12">
      <g>
       <use xlink:href="#mebb5156992" x="379.356509" y="384.48" style="stroke: #000000; stroke-width: 0.8"/>
      </g>
     </g>
     <g id="text_6">
      <!-- 5 -->
      <g transform="translate(376.175259 399.078438) scale(0.1 -0.1)">
       <defs>
        <path id="DejaVuSans-35" d="M 691 4666 
L 3169 4666 
L 3169 4134 
L 1269 4134 
L 1269 2991 
Q 1406 3038 1543 3061 
Q 1681 3084 1819 3084 
Q 2600 3084 3056 2656 
Q 3513 2228 3513 1497 
Q 3513 744 3044 326 
Q 2575 -91 1722 -91 
Q 1428 -91 1123 -41 
Q 819 9 494 109 
L 494 744 
Q 775 591 1075 516 
Q 1375 441 1709 441 
Q 2250 441 2565 725 
Q 2881 1009 2881 1497 
Q 2881 1984 2565 2268 
Q 2250 2553 1709 2553 
Q 1456 2553 1204 2497 
Q 953 2441 691 2322 
L 691 4666 
z
" transform="scale(0.015625)"/>
       </defs>
       <use xlink:href="#DejaVuSans-35"/>
      </g>
     </g>
    </g>
    <g id="xtick_7">
     <g id="line2d_13">
      <path d="M 436.810915 384.48 
L 436.810915 51.84 
" clip-path="url(#p46f60242b3)" style="fill: none; stroke: #b0b0b0; stroke-width: 0.8; stroke-linecap: square"/>
     </g>
     <g id="line2d_14">
      <g>
       <use xlink:href="#mebb5156992" x="436.810915" y="384.48" style="stroke: #000000; stroke-width: 0.8"/>
      </g>
     </g>
     <g id="text_7">
      <!-- 6 -->
      <g transform="translate(433.629665 399.078438) scale(0.1 -0.1)">
       <defs>
        <path id="DejaVuSans-36" d="M 2113 2584 
Q 1688 2584 1439 2293 
Q 1191 2003 1191 1497 
Q 1191 994 1439 701 
Q 1688 409 2113 409 
Q 2538 409 2786 701 
Q 3034 994 3034 1497 
Q 3034 2003 2786 2293 
Q 2538 2584 2113 2584 
z
M 3366 4563 
L 3366 3988 
Q 3128 4100 2886 4159 
Q 2644 4219 2406 4219 
Q 1781 4219 1451 3797 
Q 1122 3375 1075 2522 
Q 1259 2794 1537 2939 
Q 1816 3084 2150 3084 
Q 2853 3084 3261 2657 
Q 3669 2231 3669 1497 
Q 3669 778 3244 343 
Q 2819 -91 2113 -91 
Q 1303 -91 875 529 
Q 447 1150 447 2328 
Q 447 3434 972 4092 
Q 1497 4750 2381 4750 
Q 2619 4750 2861 4703 
Q 3103 4656 3366 4563 
z
" transform="scale(0.015625)"/>
       </defs>
       <use xlink:href="#DejaVuSans-36"/>
      </g>
     </g>
    </g>
    <g id="xtick_8">
     <g id="line2d_15">
      <path d="M 494.265322 384.48 
L 494.265322 51.84 
" clip-path="url(#p46f60242b3)" style="fill: none; stroke: #b0b0b0; stroke-width: 0.8; stroke-linecap: square"/>
     </g>
     <g id="line2d_16">
      <g>
       <use xlink:href="#mebb5156992" x="494.265322" y="384.48" style="stroke: #000000; stroke-width: 0.8"/>
      </g>
     </g>
     <g id="text_8">
      <!-- 7 -->
      <g transform="translate(491.084072 399.078438) scale(0.1 -0.1)">
       <defs>
        <path id="DejaVuSans-37" d="M 525 4666 
L 3525 4666 
L 3525 4397 
L 1831 0 
L 1172 0 
L 2766 4134 
L 525 4134 
L 525 4666 
z
" transform="scale(0.015625)"/>
       </defs>
       <use xlink:href="#DejaVuSans-37"/>
      </g>
     </g>
    </g>
    <g id="text_9">
     <!-- Prediction Error(m) -->
     <g transform="translate(238.340625 414.27625) scale(0.12 -0.12)">
      <defs>
       <path id="DejaVuSans-50" d="M 1259 4147 
L 1259 2394 
L 2053 2394 
Q 2494 2394 2734 2622 
Q 2975 2850 2975 3272 
Q 2975 3691 2734 3919 
Q 2494 4147 2053 4147 
L 1259 4147 
z
M 628 4666 
L 2053 4666 
Q 2838 4666 3239 4311 
Q 3641 3956 3641 3272 
Q 3641 2581 3239 2228 
Q 2838 1875 2053 1875 
L 1259 1875 
L 1259 0 
L 628 0 
L 628 4666 
z
" transform="scale(0.015625)"/>
       <path id="DejaVuSans-72" d="M 2631 2963 
Q 2534 3019 2420 3045 
Q 2306 3072 2169 3072 
Q 1681 3072 1420 2755 
Q 1159 2438 1159 1844 
L 1159 0 
L 581 0 
L 581 3500 
L 1159 3500 
L 1159 2956 
Q 1341 3275 1631 3429 
Q 1922 3584 2338 3584 
Q 2397 3584 2469 3576 
Q 2541 3569 2628 3553 
L 2631 2963 
z
" transform="scale(0.015625)"/>
       <path id="DejaVuSans-65" d="M 3597 1894 
L 3597 1613 
L 953 1613 
Q 991 1019 1311 708 
Q 1631 397 2203 397 
Q 2534 397 2845 478 
Q 3156 559 3463 722 
L 3463 178 
Q 3153 47 2828 -22 
Q 2503 -91 2169 -91 
Q 1331 -91 842 396 
Q 353 884 353 1716 
Q 353 2575 817 3079 
Q 1281 3584 2069 3584 
Q 2775 3584 3186 3129 
Q 3597 2675 3597 1894 
z
M 3022 2063 
Q 3016 2534 2758 2815 
Q 2500 3097 2075 3097 
Q 1594 3097 1305 2825 
Q 1016 2553 972 2059 
L 3022 2063 
z
" transform="scale(0.015625)"/>
       <path id="DejaVuSans-64" d="M 2906 2969 
L 2906 4863 
L 3481 4863 
L 3481 0 
L 2906 0 
L 2906 525 
Q 2725 213 2448 61 
Q 2172 -91 1784 -91 
Q 1150 -91 751 415 
Q 353 922 353 1747 
Q 353 2572 751 3078 
Q 1150 3584 1784 3584 
Q 2172 3584 2448 3432 
Q 2725 3281 2906 2969 
z
M 947 1747 
Q 947 1113 1208 752 
Q 1469 391 1925 391 
Q 2381 391 2643 752 
Q 2906 1113 2906 1747 
Q 2906 2381 2643 2742 
Q 2381 3103 1925 3103 
Q 1469 3103 1208 2742 
Q 947 2381 947 1747 
z
" transform="scale(0.015625)"/>
       <path id="DejaVuSans-69" d="M 603 3500 
L 1178 3500 
L 1178 0 
L 603 0 
L 603 3500 
z
M 603 4863 
L 1178 4863 
L 1178 4134 
L 603 4134 
L 603 4863 
z
" transform="scale(0.015625)"/>
       <path id="DejaVuSans-63" d="M 3122 3366 
L 3122 2828 
Q 2878 2963 2633 3030 
Q 2388 3097 2138 3097 
Q 1578 3097 1268 2742 
Q 959 2388 959 1747 
Q 959 1106 1268 751 
Q 1578 397 2138 397 
Q 2388 397 2633 464 
Q 2878 531 3122 666 
L 3122 134 
Q 2881 22 2623 -34 
Q 2366 -91 2075 -91 
Q 1284 -91 818 406 
Q 353 903 353 1747 
Q 353 2603 823 3093 
Q 1294 3584 2113 3584 
Q 2378 3584 2631 3529 
Q 2884 3475 3122 3366 
z
" transform="scale(0.015625)"/>
       <path id="DejaVuSans-74" d="M 1172 4494 
L 1172 3500 
L 2356 3500 
L 2356 3053 
L 1172 3053 
L 1172 1153 
Q 1172 725 1289 603 
Q 1406 481 1766 481 
L 2356 481 
L 2356 0 
L 1766 0 
Q 1100 0 847 248 
Q 594 497 594 1153 
L 594 3053 
L 172 3053 
L 172 3500 
L 594 3500 
L 594 4494 
L 1172 4494 
z
" transform="scale(0.015625)"/>
       <path id="DejaVuSans-6f" d="M 1959 3097 
Q 1497 3097 1228 2736 
Q 959 2375 959 1747 
Q 959 1119 1226 758 
Q 1494 397 1959 397 
Q 2419 397 2687 759 
Q 2956 1122 2956 1747 
Q 2956 2369 2687 2733 
Q 2419 3097 1959 3097 
z
M 1959 3584 
Q 2709 3584 3137 3096 
Q 3566 2609 3566 1747 
Q 3566 888 3137 398 
Q 2709 -91 1959 -91 
Q 1206 -91 779 398 
Q 353 888 353 1747 
Q 353 2609 779 3096 
Q 1206 3584 1959 3584 
z
" transform="scale(0.015625)"/>
       <path id="DejaVuSans-6e" d="M 3513 2113 
L 3513 0 
L 2938 0 
L 2938 2094 
Q 2938 2591 2744 2837 
Q 2550 3084 2163 3084 
Q 1697 3084 1428 2787 
Q 1159 2491 1159 1978 
L 1159 0 
L 581 0 
L 581 3500 
L 1159 3500 
L 1159 2956 
Q 1366 3272 1645 3428 
Q 1925 3584 2291 3584 
Q 2894 3584 3203 3211 
Q 3513 2838 3513 2113 
z
" transform="scale(0.015625)"/>
       <path id="DejaVuSans-20" transform="scale(0.015625)"/>
       <path id="DejaVuSans-45" d="M 628 4666 
L 3578 4666 
L 3578 4134 
L 1259 4134 
L 1259 2753 
L 3481 2753 
L 3481 2222 
L 1259 2222 
L 1259 531 
L 3634 531 
L 3634 0 
L 628 0 
L 628 4666 
z
" transform="scale(0.015625)"/>
       <path id="DejaVuSans-28" d="M 1984 4856 
Q 1566 4138 1362 3434 
Q 1159 2731 1159 2009 
Q 1159 1288 1364 580 
Q 1569 -128 1984 -844 
L 1484 -844 
Q 1016 -109 783 600 
Q 550 1309 550 2009 
Q 550 2706 781 3412 
Q 1013 4119 1484 4856 
L 1984 4856 
z
" transform="scale(0.015625)"/>
       <path id="DejaVuSans-6d" d="M 3328 2828 
Q 3544 3216 3844 3400 
Q 4144 3584 4550 3584 
Q 5097 3584 5394 3201 
Q 5691 2819 5691 2113 
L 5691 0 
L 5113 0 
L 5113 2094 
Q 5113 2597 4934 2840 
Q 4756 3084 4391 3084 
Q 3944 3084 3684 2787 
Q 3425 2491 3425 1978 
L 3425 0 
L 2847 0 
L 2847 2094 
Q 2847 2600 2669 2842 
Q 2491 3084 2119 3084 
Q 1678 3084 1418 2786 
Q 1159 2488 1159 1978 
L 1159 0 
L 581 0 
L 581 3500 
L 1159 3500 
L 1159 2956 
Q 1356 3278 1631 3431 
Q 1906 3584 2284 3584 
Q 2666 3584 2933 3390 
Q 3200 3197 3328 2828 
z
" transform="scale(0.015625)"/>
       <path id="DejaVuSans-29" d="M 513 4856 
L 1013 4856 
Q 1481 4119 1714 3412 
Q 1947 2706 1947 2009 
Q 1947 1309 1714 600 
Q 1481 -109 1013 -844 
L 513 -844 
Q 928 -128 1133 580 
Q 1338 1288 1338 2009 
Q 1338 2731 1133 3434 
Q 928 4138 513 4856 
z
" transform="scale(0.015625)"/>
      </defs>
      <use xlink:href="#DejaVuSans-50"/>
      <use xlink:href="#DejaVuSans-72" x="58.552734"/>
      <use xlink:href="#DejaVuSans-65" x="97.416016"/>
      <use xlink:href="#DejaVuSans-64" x="158.939453"/>
      <use xlink:href="#DejaVuSans-69" x="222.416016"/>
      <use xlink:href="#DejaVuSans-63" x="250.199219"/>
      <use xlink:href="#DejaVuSans-74" x="305.179688"/>
      <use xlink:href="#DejaVuSans-69" x="344.388672"/>
      <use xlink:href="#DejaVuSans-6f" x="372.171875"/>
      <use xlink:href="#DejaVuSans-6e" x="433.353516"/>
      <use xlink:href="#DejaVuSans-20" x="496.732422"/>
      <use xlink:href="#DejaVuSans-45" x="528.519531"/>
      <use xlink:href="#DejaVuSans-72" x="591.703125"/>
      <use xlink:href="#DejaVuSans-72" x="631.066406"/>
      <use xlink:href="#DejaVuSans-6f" x="669.929688"/>
      <use xlink:href="#DejaVuSans-72" x="731.111328"/>
      <use xlink:href="#DejaVuSans-28" x="772.224609"/>
      <use xlink:href="#DejaVuSans-6d" x="811.238281"/>
      <use xlink:href="#DejaVuSans-29" x="908.650391"/>
     </g>
    </g>
   </g>
   <g id="matplotlib.axis_2">
    <g id="ytick_1">
     <g id="line2d_17">
      <path d="M 72 384.48 
L 518.4 384.48 
" clip-path="url(#p46f60242b3)" style="fill: none; stroke: #b0b0b0; stroke-width: 0.8; stroke-linecap: square"/>
     </g>
     <g id="line2d_18">
      <defs>
       <path id="m3e313ac57b" d="M 0 0 
L -3.5 0 
" style="stroke: #000000; stroke-width: 0.8"/>
      </defs>
      <g>
       <use xlink:href="#m3e313ac57b" x="72" y="384.48" style="stroke: #000000; stroke-width: 0.8"/>
      </g>
     </g>
     <g id="text_10">
      <!-- 0.0 -->
      <g transform="translate(49.096875 388.279219) scale(0.1 -0.1)">
       <defs>
        <path id="DejaVuSans-2e" d="M 684 794 
L 1344 794 
L 1344 0 
L 684 0 
L 684 794 
z
" transform="scale(0.015625)"/>
       </defs>
       <use xlink:href="#DejaVuSans-30"/>
       <use xlink:href="#DejaVuSans-2e" x="63.623047"/>
       <use xlink:href="#DejaVuSans-30" x="95.410156"/>
      </g>
     </g>
    </g>
    <g id="ytick_2">
     <g id="line2d_19">
      <path d="M 72 317.952 
L 518.4 317.952 
" clip-path="url(#p46f60242b3)" style="fill: none; stroke: #b0b0b0; stroke-width: 0.8; stroke-linecap: square"/>
     </g>
     <g id="line2d_20">
      <g>
       <use xlink:href="#m3e313ac57b" x="72" y="317.952" style="stroke: #000000; stroke-width: 0.8"/>
      </g>
     </g>
     <g id="text_11">
      <!-- 0.2 -->
      <g transform="translate(49.096875 321.751219) scale(0.1 -0.1)">
       <use xlink:href="#DejaVuSans-30"/>
       <use xlink:href="#DejaVuSans-2e" x="63.623047"/>
       <use xlink:href="#DejaVuSans-32" x="95.410156"/>
      </g>
     </g>
    </g>
    <g id="ytick_3">
     <g id="line2d_21">
      <path d="M 72 251.424 
L 518.4 251.424 
" clip-path="url(#p46f60242b3)" style="fill: none; stroke: #b0b0b0; stroke-width: 0.8; stroke-linecap: square"/>
     </g>
     <g id="line2d_22">
      <g>
       <use xlink:href="#m3e313ac57b" x="72" y="251.424" style="stroke: #000000; stroke-width: 0.8"/>
      </g>
     </g>
     <g id="text_12">
      <!-- 0.4 -->
      <g transform="translate(49.096875 255.223219) scale(0.1 -0.1)">
       <use xlink:href="#DejaVuSans-30"/>
       <use xlink:href="#DejaVuSans-2e" x="63.623047"/>
       <use xlink:href="#DejaVuSans-34" x="95.410156"/>
      </g>
     </g>
    </g>
    <g id="ytick_4">
     <g id="line2d_23">
      <path d="M 72 184.896 
L 518.4 184.896 
" clip-path="url(#p46f60242b3)" style="fill: none; stroke: #b0b0b0; stroke-width: 0.8; stroke-linecap: square"/>
     </g>
     <g id="line2d_24">
      <g>
       <use xlink:href="#m3e313ac57b" x="72" y="184.896" style="stroke: #000000; stroke-width: 0.8"/>
      </g>
     </g>
     <g id="text_13">
      <!-- 0.6 -->
      <g transform="translate(49.096875 188.695219) scale(0.1 -0.1)">
       <use xlink:href="#DejaVuSans-30"/>
       <use xlink:href="#DejaVuSans-2e" x="63.623047"/>
       <use xlink:href="#DejaVuSans-36" x="95.410156"/>
      </g>
     </g>
    </g>
    <g id="ytick_5">
     <g id="line2d_25">
      <path d="M 72 118.368 
L 518.4 118.368 
" clip-path="url(#p46f60242b3)" style="fill: none; stroke: #b0b0b0; stroke-width: 0.8; stroke-linecap: square"/>
     </g>
     <g id="line2d_26">
      <g>
       <use xlink:href="#m3e313ac57b" x="72" y="118.368" style="stroke: #000000; stroke-width: 0.8"/>
      </g>
     </g>
     <g id="text_14">
      <!-- 0.8 -->
      <g transform="translate(49.096875 122.167219) scale(0.1 -0.1)">
       <defs>
        <path id="DejaVuSans-38" d="M 2034 2216 
Q 1584 2216 1326 1975 
Q 1069 1734 1069 1313 
Q 1069 891 1326 650 
Q 1584 409 2034 409 
Q 2484 409 2743 651 
Q 3003 894 3003 1313 
Q 3003 1734 2745 1975 
Q 2488 2216 2034 2216 
z
M 1403 2484 
Q 997 2584 770 2862 
Q 544 3141 544 3541 
Q 544 4100 942 4425 
Q 1341 4750 2034 4750 
Q 2731 4750 3128 4425 
Q 3525 4100 3525 3541 
Q 3525 3141 3298 2862 
Q 3072 2584 2669 2484 
Q 3125 2378 3379 2068 
Q 3634 1759 3634 1313 
Q 3634 634 3220 271 
Q 2806 -91 2034 -91 
Q 1263 -91 848 271 
Q 434 634 434 1313 
Q 434 1759 690 2068 
Q 947 2378 1403 2484 
z
M 1172 3481 
Q 1172 3119 1398 2916 
Q 1625 2713 2034 2713 
Q 2441 2713 2670 2916 
Q 2900 3119 2900 3481 
Q 2900 3844 2670 4047 
Q 2441 4250 2034 4250 
Q 1625 4250 1398 4047 
Q 1172 3844 1172 3481 
z
" transform="scale(0.015625)"/>
       </defs>
       <use xlink:href="#DejaVuSans-30"/>
       <use xlink:href="#DejaVuSans-2e" x="63.623047"/>
       <use xlink:href="#DejaVuSans-38" x="95.410156"/>
      </g>
     </g>
    </g>
    <g id="ytick_6">
     <g id="line2d_27">
      <path d="M 72 51.84 
L 518.4 51.84 
" clip-path="url(#p46f60242b3)" style="fill: none; stroke: #b0b0b0; stroke-width: 0.8; stroke-linecap: square"/>
     </g>
     <g id="line2d_28">
      <g>
       <use xlink:href="#m3e313ac57b" x="72" y="51.84" style="stroke: #000000; stroke-width: 0.8"/>
      </g>
     </g>
     <g id="text_15">
      <!-- 1.0 -->
      <g transform="translate(49.096875 55.639219) scale(0.1 -0.1)">
       <use xlink:href="#DejaVuSans-31"/>
       <use xlink:href="#DejaVuSans-2e" x="63.623047"/>
       <use xlink:href="#DejaVuSans-30" x="95.410156"/>
      </g>
     </g>
    </g>
    <g id="text_16">
     <!-- CDF -->
     <g transform="translate(42.60125 230.420625) rotate(-90) scale(0.12 -0.12)">
      <defs>
       <path id="DejaVuSans-43" d="M 4122 4306 
L 4122 3641 
Q 3803 3938 3442 4084 
Q 3081 4231 2675 4231 
Q 1875 4231 1450 3742 
Q 1025 3253 1025 2328 
Q 1025 1406 1450 917 
Q 1875 428 2675 428 
Q 3081 428 3442 575 
Q 3803 722 4122 1019 
L 4122 359 
Q 3791 134 3420 21 
Q 3050 -91 2638 -91 
Q 1578 -91 968 557 
Q 359 1206 359 2328 
Q 359 3453 968 4101 
Q 1578 4750 2638 4750 
Q 3056 4750 3426 4639 
Q 3797 4528 4122 4306 
z
" transform="scale(0.015625)"/>
       <path id="DejaVuSans-44" d="M 1259 4147 
L 1259 519 
L 2022 519 
Q 2988 519 3436 956 
Q 3884 1394 3884 2338 
Q 3884 3275 3436 3711 
Q 2988 4147 2022 4147 
L 1259 4147 
z
M 628 4666 
L 1925 4666 
Q 3281 4666 3915 4102 
Q 4550 3538 4550 2338 
Q 4550 1131 3912 565 
Q 3275 0 1925 0 
L 628 0 
L 628 4666 
z
" transform="scale(0.015625)"/>
       <path id="DejaVuSans-46" d="M 628 4666 
L 3309 4666 
L 3309 4134 
L 1259 4134 
L 1259 2759 
L 3109 2759 
L 3109 2228 
L 1259 2228 
L 1259 0 
L 628 0 
L 628 4666 
z
" transform="scale(0.015625)"/>
      </defs>
      <use xlink:href="#DejaVuSans-43"/>
      <use xlink:href="#DejaVuSans-44" x="69.824219"/>
      <use xlink:href="#DejaVuSans-46" x="146.826172"/>
     </g>
    </g>
   </g>
   <g id="line2d_29">
    <path d="M 93.11776 384.48 
L 93.11776 381.456 
L 93.892311 381.456 
L 93.892311 378.432 
L 94.09351 378.432 
L 94.169891 372.384 
L 94.255607 372.384 
L 94.272573 366.336 
L 95.038795 366.336 
L 95.038795 363.312 
L 95.371579 363.312 
L 95.371579 360.288 
L 95.528204 360.288 
L 95.528204 357.264 
L 96.040558 357.264 
L 96.040558 354.24 
L 96.266263 354.24 
L 96.361746 345.168 
L 96.397985 345.168 
L 96.397985 342.144 
L 97.364756 342.144 
L 97.364756 339.12 
L 98.271734 339.12 
L 98.271734 336.096 
L 98.431948 336.096 
L 98.474659 330.048 
L 99.789042 330.048 
L 99.789042 327.024 
L 99.981105 327.024 
L 100.063315 320.976 
L 101.806499 320.976 
L 101.806499 317.952 
L 102.356318 317.952 
L 102.356318 314.928 
L 106.407066 314.928 
L 106.407066 311.904 
L 107.240794 311.904 
L 107.240794 308.88 
L 110.304615 308.88 
L 110.304615 305.856 
L 112.794892 305.856 
L 112.794892 302.832 
L 115.803674 302.832 
L 115.803674 299.808 
L 116.136239 299.808 
L 116.136239 296.784 
L 116.677016 296.784 
L 116.677016 293.76 
L 118.803552 293.76 
L 118.803552 290.736 
L 123.685097 290.736 
L 123.685097 287.712 
L 124.02399 287.712 
L 124.02399 284.688 
L 127.770776 284.688 
L 127.770776 281.664 
L 129.484147 281.664 
L 129.484147 278.64 
L 130.460143 278.64 
L 130.460143 275.616 
L 134.37054 275.616 
L 134.37054 272.592 
L 134.494975 272.592 
L 134.494975 269.568 
L 135.110736 269.568 
L 135.110736 266.544 
L 137.542331 266.544 
L 137.542331 263.52 
L 140.123455 263.52 
L 140.123455 260.496 
L 142.1495 260.496 
L 142.1495 257.472 
L 143.006377 257.472 
L 143.068622 251.424 
L 143.675781 251.424 
L 143.716876 245.376 
L 145.171241 245.376 
L 145.171241 242.352 
L 146.16973 242.352 
L 146.16973 239.328 
L 146.998471 239.328 
L 146.998471 236.304 
L 147.260051 236.304 
L 147.260051 233.28 
L 147.823979 233.28 
L 147.881703 227.232 
L 148.722909 227.232 
L 148.722909 224.208 
L 149.357465 224.208 
L 149.430832 218.16 
L 151.023166 218.16 
L 151.023166 215.136 
L 151.998094 215.136 
L 151.998094 212.112 
L 152.923489 212.112 
L 152.923489 209.088 
L 153.419145 209.088 
L 153.419145 206.064 
L 154.688475 206.064 
L 154.688475 203.04 
L 155.323085 203.04 
L 155.323085 200.016 
L 168.925066 200.016 
L 168.925066 196.992 
L 172.400902 196.992 
L 172.400902 193.968 
L 177.660298 193.968 
L 177.660298 190.944 
L 178.265265 190.944 
L 178.265265 187.92 
L 186.762257 187.92 
L 186.762257 184.896 
L 188.503846 184.896 
L 188.503846 181.872 
L 191.833878 181.872 
L 191.833878 178.848 
L 193.294708 178.848 
L 193.294708 175.824 
L 193.766803 175.824 
L 193.766803 172.8 
L 195.13139 172.8 
L 195.13139 169.776 
L 196.280094 169.776 
L 196.345407 163.728 
L 197.503562 163.728 
L 197.503562 160.704 
L 198.40441 160.704 
L 198.40441 157.68 
L 198.690977 157.68 
L 198.690977 154.656 
L 199.056883 154.656 
L 199.056883 151.632 
L 200.171533 151.632 
L 200.171533 148.608 
L 201.16783 148.608 
L 201.16783 145.584 
L 203.752844 145.584 
L 203.752844 142.56 
L 204.029493 142.56 
L 204.029493 139.536 
L 204.183735 139.536 
L 204.183735 136.512 
L 207.194599 136.512 
L 207.300787 130.464 
L 208.668251 130.464 
L 208.754878 124.416 
L 208.977118 124.416 
L 208.977118 121.392 
L 211.502408 121.392 
L 211.502408 118.368 
L 216.773146 118.368 
L 216.773146 115.344 
L 217.56408 115.344 
L 217.620544 109.296 
L 218.672921 109.296 
L 218.672921 106.272 
L 222.782326 106.272 
L 222.782326 103.248 
L 226.371446 103.248 
L 226.371446 100.224 
L 227.161777 100.224 
L 227.161777 97.2 
L 234.617158 97.2 
L 234.617158 94.176 
L 236.162561 94.176 
L 236.162561 91.152 
L 241.802356 91.152 
L 241.802356 88.128 
L 247.253061 88.128 
L 247.253061 85.104 
L 266.037783 85.104 
L 266.037783 82.08 
L 318.556729 82.08 
L 318.556729 79.056 
L 323.686485 79.056 
L 323.686485 76.032 
L 324.771163 76.032 
L 324.771163 73.008 
L 325.511633 73.008 
L 325.511633 69.984 
L 326.122572 69.984 
L 326.122572 66.96 
L 327.323411 66.96 
L 327.323411 63.936 
L 328.305791 63.936 
L 328.389569 57.888 
L 328.622987 57.888 
L 328.622987 54.864 
L 329.173764 54.864 
L 329.173764 51.84 
L 329.173764 51.84 
" clip-path="url(#p46f60242b3)" style="fill: none; stroke: #1f77b4; stroke-width: 1.5; stroke-linecap: square"/>
   </g>
   <g id="line2d_30">
    <path d="M 96.918955 384.48 
L 96.918955 381.456 
L 98.002318 381.456 
L 98.002318 378.432 
L 100.703712 378.432 
L 100.703712 375.408 
L 103.013941 375.408 
L 103.013941 372.384 
L 104.010183 372.384 
L 104.010183 369.36 
L 104.656567 369.36 
L 104.656567 366.336 
L 104.769228 366.336 
L 104.769228 363.312 
L 105.11971 363.312 
L 105.11971 360.288 
L 106.314686 360.288 
L 106.314686 357.264 
L 106.823978 357.264 
L 106.823978 354.24 
L 107.063244 354.24 
L 107.126414 348.192 
L 107.342352 348.192 
L 107.342352 345.168 
L 108.069713 345.168 
L 108.069713 342.144 
L 108.564396 342.144 
L 108.564396 339.12 
L 108.895673 339.12 
L 108.895673 336.096 
L 109.807624 336.096 
L 109.807624 333.072 
L 110.224083 333.072 
L 110.224083 330.048 
L 110.908527 330.048 
L 110.908527 327.024 
L 112.00741 327.024 
L 112.00741 324 
L 113.049501 324 
L 113.049501 320.976 
L 113.332245 320.976 
L 113.332245 317.952 
L 115.325169 317.952 
L 115.325169 314.928 
L 115.479684 314.928 
L 115.479684 311.904 
L 116.720303 311.904 
L 116.720303 308.88 
L 120.513635 308.88 
L 120.513635 305.856 
L 122.338564 305.856 
L 122.338564 302.832 
L 123.748629 302.832 
L 123.748629 299.808 
L 124.396992 299.808 
L 124.396992 296.784 
L 125.997681 296.784 
L 125.997681 293.76 
L 126.805889 293.76 
L 126.805889 290.736 
L 130.339311 290.736 
L 130.339311 287.712 
L 131.009003 287.712 
L 131.009003 284.688 
L 131.988095 284.688 
L 131.988095 281.664 
L 133.044719 281.664 
L 133.044719 278.64 
L 134.249284 278.64 
L 134.249284 275.616 
L 134.719625 275.616 
L 134.719625 272.592 
L 137.053935 272.592 
L 137.053935 269.568 
L 138.365538 269.568 
L 138.365538 266.544 
L 138.523094 266.544 
L 138.523094 263.52 
L 139.72659 263.52 
L 139.72659 260.496 
L 140.297257 260.496 
L 140.315723 254.448 
L 142.596418 254.448 
L 142.596418 251.424 
L 146.697603 251.424 
L 146.697603 248.4 
L 148.518532 248.4 
L 148.518532 245.376 
L 150.270587 245.376 
L 150.270587 242.352 
L 150.762187 242.352 
L 150.762187 239.328 
L 154.167012 239.328 
L 154.167012 236.304 
L 154.720748 236.304 
L 154.720748 233.28 
L 154.903536 233.28 
L 154.903536 230.256 
L 158.618049 230.256 
L 158.618049 227.232 
L 160.129454 227.232 
L 160.129454 224.208 
L 163.682657 224.208 
L 163.682657 221.184 
L 165.948585 221.184 
L 165.948585 218.16 
L 167.313857 218.16 
L 167.313857 215.136 
L 169.817312 215.136 
L 169.817312 212.112 
L 170.324639 212.112 
L 170.324639 209.088 
L 174.213639 209.088 
L 174.213639 206.064 
L 174.486261 206.064 
L 174.487685 200.016 
L 177.366718 200.016 
L 177.366718 196.992 
L 183.518633 196.992 
L 183.518633 193.968 
L 186.105839 193.968 
L 186.105839 190.944 
L 187.446838 190.944 
L 187.446838 187.92 
L 189.674576 187.92 
L 189.674576 184.896 
L 191.169241 184.896 
L 191.169241 181.872 
L 192.783327 181.872 
L 192.783327 178.848 
L 193.464785 178.848 
L 193.464785 175.824 
L 195.716824 175.824 
L 195.716824 172.8 
L 197.346964 172.8 
L 197.346964 169.776 
L 200.145725 169.776 
L 200.145725 166.752 
L 201.091449 166.752 
L 201.091449 163.728 
L 203.215601 163.728 
L 203.215601 160.704 
L 203.39039 160.704 
L 203.39039 157.68 
L 204.171269 157.68 
L 204.171269 154.656 
L 205.201127 154.656 
L 205.201127 151.632 
L 206.342626 151.632 
L 206.342626 148.608 
L 207.090876 148.608 
L 207.090876 145.584 
L 207.47996 145.584 
L 207.47996 142.56 
L 209.384256 142.56 
L 209.465787 136.512 
L 209.758381 136.512 
L 209.758381 133.488 
L 210.236667 133.488 
L 210.343979 127.44 
L 211.042039 127.44 
L 211.042039 124.416 
L 227.476918 124.416 
L 227.476918 121.392 
L 241.036983 121.392 
L 241.036983 118.368 
L 243.258611 118.368 
L 243.258611 115.344 
L 245.279424 115.344 
L 245.279424 112.32 
L 253.178134 112.32 
L 253.178134 109.296 
L 254.680991 109.296 
L 254.680991 106.272 
L 267.686169 106.272 
L 267.686169 103.248 
L 271.100144 103.248 
L 271.100144 100.224 
L 276.735802 100.224 
L 276.735802 97.2 
L 277.205266 97.2 
L 277.205266 94.176 
L 282.393322 94.176 
L 282.393322 91.152 
L 284.472982 91.152 
L 284.472982 88.128 
L 287.55568 88.128 
L 287.55568 85.104 
L 291.654372 85.104 
L 291.654372 82.08 
L 299.797184 82.08 
L 299.797184 79.056 
L 300.205801 79.056 
L 300.205801 76.032 
L 308.707971 76.032 
L 308.707971 73.008 
L 312.383472 73.008 
L 312.383472 69.984 
L 312.951974 69.984 
L 312.951974 66.96 
L 317.49857 66.96 
L 317.49857 63.936 
L 319.441468 63.936 
L 319.441468 60.912 
L 319.744801 60.912 
L 319.744801 57.888 
L 321.023336 57.888 
L 321.023336 54.864 
L 327.463955 54.864 
L 327.463955 51.84 
L 327.463955 51.84 
" clip-path="url(#p46f60242b3)" style="fill: none; stroke-dasharray: 5.55,2.4; stroke-dashoffset: 0; stroke: #1f77b4; stroke-width: 1.5"/>
   </g>
   <g id="line2d_31">
    <path d="M 92.787469 384.48 
L 92.787469 381.456 
L 94.514976 381.456 
L 94.514976 378.432 
L 94.764057 378.432 
L 94.764057 375.408 
L 95.124053 375.408 
L 95.124053 372.384 
L 95.370326 372.384 
L 95.370326 369.36 
L 95.832263 369.36 
L 95.832263 366.336 
L 96.853916 366.336 
L 96.934311 360.288 
L 98.528308 360.288 
L 98.528308 357.264 
L 98.990328 357.264 
L 98.990328 354.24 
L 99.525701 354.24 
L 99.630465 348.192 
L 100.666453 348.192 
L 100.666453 345.168 
L 100.991703 345.168 
L 100.991703 342.144 
L 104.760077 342.144 
L 104.760077 339.12 
L 104.922209 339.12 
L 104.922209 336.096 
L 106.583801 336.096 
L 106.583801 333.072 
L 116.513652 333.072 
L 116.513652 330.048 
L 127.364953 330.048 
L 127.364953 327.024 
L 128.03622 327.024 
L 128.03622 324 
L 128.435604 324 
L 128.435604 320.976 
L 130.441952 320.976 
L 130.441952 317.952 
L 130.763312 317.952 
L 130.763312 314.928 
L 132.086695 314.928 
L 132.086695 311.904 
L 133.45298 311.904 
L 133.45298 308.88 
L 134.661928 308.88 
L 134.661928 305.856 
L 137.833883 305.856 
L 137.833883 302.832 
L 144.267735 302.832 
L 144.267735 299.808 
L 144.578163 299.808 
L 144.578163 296.784 
L 148.194652 296.784 
L 148.194652 293.76 
L 150.072785 293.76 
L 150.072785 290.736 
L 150.279134 290.736 
L 150.279134 287.712 
L 150.98692 287.712 
L 150.98692 284.688 
L 151.646434 284.688 
L 151.646434 281.664 
L 153.359832 281.664 
L 153.359832 278.64 
L 154.554397 278.64 
L 154.554397 275.616 
L 156.146072 275.616 
L 156.146072 272.592 
L 156.328806 272.592 
L 156.328806 269.568 
L 156.440529 269.568 
L 156.457679 263.52 
L 156.867748 263.52 
L 156.867748 260.496 
L 158.586447 260.496 
L 158.586447 257.472 
L 159.770013 257.472 
L 159.770013 254.448 
L 161.406783 254.448 
L 161.406783 251.424 
L 161.753019 251.424 
L 161.753019 248.4 
L 165.980337 248.4 
L 166.040883 242.352 
L 166.965895 242.352 
L 167.073289 236.304 
L 169.255577 236.304 
L 169.255577 233.28 
L 169.638962 233.28 
L 169.638962 230.256 
L 171.642625 230.256 
L 171.642625 227.232 
L 176.366421 227.232 
L 176.366421 224.208 
L 179.51854 224.208 
L 179.51854 221.184 
L 180.200492 221.184 
L 180.200492 218.16 
L 182.510213 218.16 
L 182.510213 215.136 
L 182.759616 215.136 
L 182.759616 212.112 
L 183.343748 212.112 
L 183.343748 209.088 
L 185.498407 209.088 
L 185.498407 206.064 
L 186.381009 206.064 
L 186.381009 203.04 
L 188.042408 203.04 
L 188.042408 200.016 
L 188.326098 200.016 
L 188.326098 196.992 
L 189.370613 196.992 
L 189.370613 193.968 
L 189.575155 193.968 
L 189.575155 190.944 
L 191.661322 190.944 
L 191.661322 187.92 
L 194.451877 187.92 
L 194.505506 181.872 
L 195.791671 181.872 
L 195.791671 178.848 
L 197.81821 178.848 
L 197.81821 175.824 
L 198.274003 175.824 
L 198.274003 172.8 
L 200.958179 172.8 
L 200.958179 169.776 
L 201.465081 169.776 
L 201.465081 166.752 
L 203.741667 166.752 
L 203.741667 163.728 
L 208.822164 163.728 
L 208.822164 160.704 
L 211.81659 160.704 
L 211.835986 154.656 
L 212.6284 154.656 
L 212.6284 151.632 
L 214.453 151.632 
L 214.453 148.608 
L 218.565199 148.608 
L 218.565199 145.584 
L 224.424356 145.584 
L 224.424356 142.56 
L 225.820121 142.56 
L 225.820121 139.536 
L 226.285859 139.536 
L 226.285859 136.512 
L 228.701893 136.512 
L 228.701893 133.488 
L 230.026426 133.488 
L 230.026426 130.464 
L 237.537587 130.464 
L 237.537587 127.44 
L 238.30622 127.44 
L 238.321781 121.392 
L 247.697869 121.392 
L 247.697869 118.368 
L 248.047501 118.368 
L 248.047501 115.344 
L 250.728842 115.344 
L 250.728842 112.32 
L 252.563688 112.32 
L 252.563688 109.296 
L 253.396319 109.296 
L 253.396319 106.272 
L 254.195664 106.272 
L 254.195664 103.248 
L 254.651403 103.248 
L 254.651403 100.224 
L 255.145798 100.224 
L 255.145798 97.2 
L 257.34077 97.2 
L 257.34077 94.176 
L 259.377473 94.176 
L 259.377473 91.152 
L 259.508619 91.152 
L 259.508619 88.128 
L 265.730067 88.128 
L 265.730067 85.104 
L 282.985303 85.104 
L 283.006234 79.056 
L 284.768206 79.056 
L 284.768206 76.032 
L 285.50084 76.032 
L 285.50084 73.008 
L 287.188705 73.008 
L 287.188705 69.984 
L 287.587569 69.984 
L 287.587569 66.96 
L 287.742633 66.96 
L 287.742633 63.936 
L 289.780842 63.936 
L 289.780842 60.912 
L 300.218568 60.912 
L 300.218568 57.888 
L 308.192124 57.888 
L 308.192124 54.864 
L 314.988814 54.864 
L 314.988814 51.84 
L 314.988814 51.84 
" clip-path="url(#p46f60242b3)" style="fill: none; stroke: #fd8c3b; stroke-width: 1.5; stroke-linecap: square"/>
   </g>
   <g id="line2d_32">
    <path d="M 95.370511 384.48 
L 95.370511 381.456 
L 96.4869 381.456 
L 96.597992 375.408 
L 100.674562 375.408 
L 100.674562 372.384 
L 100.926068 372.384 
L 100.926068 369.36 
L 102.714847 369.36 
L 102.714847 366.336 
L 103.027324 366.336 
L 103.030899 360.288 
L 104.360405 360.288 
L 104.360405 357.264 
L 107.746038 357.264 
L 107.746038 354.24 
L 109.621417 354.24 
L 109.621417 351.216 
L 109.79148 351.216 
L 109.79148 348.192 
L 110.040322 348.192 
L 110.040322 345.168 
L 119.551398 345.168 
L 119.551398 342.144 
L 120.886527 342.144 
L 120.886527 339.12 
L 122.041998 339.12 
L 122.041998 336.096 
L 122.713374 336.096 
L 122.713374 333.072 
L 123.279603 333.072 
L 123.279603 330.048 
L 123.839201 330.048 
L 123.839201 327.024 
L 126.830121 327.024 
L 126.830121 324 
L 127.108139 324 
L 127.108139 320.976 
L 130.840542 320.976 
L 130.840542 317.952 
L 131.408538 317.952 
L 131.408538 314.928 
L 135.655376 314.928 
L 135.655376 311.904 
L 141.342759 311.904 
L 141.342759 308.88 
L 141.848962 308.88 
L 141.957753 302.832 
L 144.491043 302.832 
L 144.491043 299.808 
L 144.709611 299.808 
L 144.709611 296.784 
L 146.303041 296.784 
L 146.303041 293.76 
L 149.091939 293.76 
L 149.091939 290.736 
L 149.498337 290.736 
L 149.498337 287.712 
L 150.429047 287.712 
L 150.429047 284.688 
L 151.677501 284.688 
L 151.677501 281.664 
L 152.244332 281.664 
L 152.244332 278.64 
L 153.414707 278.64 
L 153.414707 275.616 
L 155.284401 275.616 
L 155.284401 272.592 
L 157.623724 272.592 
L 157.623724 269.568 
L 161.175393 269.568 
L 161.175393 266.544 
L 162.80252 266.544 
L 162.80252 263.52 
L 163.940511 263.52 
L 163.940511 260.496 
L 164.651325 260.496 
L 164.651325 257.472 
L 169.672878 257.472 
L 169.672878 254.448 
L 172.045105 254.448 
L 172.045105 251.424 
L 172.884887 251.424 
L 172.884887 248.4 
L 177.811019 248.4 
L 177.811019 245.376 
L 180.197724 245.376 
L 180.197724 242.352 
L 180.607698 242.352 
L 180.607698 239.328 
L 180.882278 239.328 
L 180.882278 236.304 
L 183.177713 236.304 
L 183.177713 233.28 
L 185.641443 233.28 
L 185.641443 230.256 
L 187.967466 230.256 
L 187.967466 227.232 
L 194.24498 227.232 
L 194.24498 224.208 
L 194.755827 224.208 
L 194.755827 221.184 
L 196.877979 221.184 
L 196.877979 218.16 
L 197.431359 218.16 
L 197.431359 215.136 
L 199.329203 215.136 
L 199.329203 212.112 
L 199.461308 212.112 
L 199.461308 209.088 
L 200.327582 209.088 
L 200.327582 206.064 
L 200.492605 206.064 
L 200.492605 203.04 
L 202.181031 203.04 
L 202.181031 200.016 
L 202.740246 200.016 
L 202.740246 196.992 
L 203.188287 196.992 
L 203.188287 193.968 
L 203.37624 193.968 
L 203.37624 190.944 
L 204.014918 190.944 
L 204.014918 187.92 
L 204.613036 187.92 
L 204.651432 181.872 
L 206.834254 181.872 
L 206.834254 178.848 
L 207.35021 178.848 
L 207.35021 175.824 
L 207.92926 175.824 
L 207.92926 172.8 
L 209.631837 172.8 
L 209.631837 169.776 
L 211.387425 169.776 
L 211.387425 166.752 
L 212.693151 166.752 
L 212.693151 163.728 
L 215.990376 163.728 
L 215.990376 160.704 
L 217.128778 160.704 
L 217.128778 157.68 
L 218.463805 157.68 
L 218.463805 154.656 
L 226.698257 154.656 
L 226.698257 151.632 
L 230.190818 151.632 
L 230.190818 148.608 
L 235.073281 148.608 
L 235.073281 145.584 
L 235.707452 145.584 
L 235.707452 142.56 
L 238.123719 142.56 
L 238.123719 139.536 
L 238.799697 139.536 
L 238.799697 136.512 
L 240.287308 136.512 
L 240.287308 133.488 
L 247.476163 133.488 
L 247.476163 130.464 
L 249.500113 130.464 
L 249.500113 127.44 
L 250.735965 127.44 
L 250.735965 124.416 
L 253.817374 124.416 
L 253.817374 121.392 
L 253.976095 121.392 
L 253.976095 118.368 
L 254.708552 118.368 
L 254.708552 115.344 
L 255.159743 115.344 
L 255.159743 112.32 
L 256.040948 112.32 
L 256.040948 109.296 
L 257.50271 109.296 
L 257.50271 106.272 
L 263.563341 106.272 
L 263.563341 103.248 
L 267.908738 103.248 
L 267.908738 100.224 
L 273.397524 100.224 
L 273.397524 97.2 
L 287.254949 97.2 
L 287.254949 94.176 
L 288.524498 94.176 
L 288.524498 91.152 
L 293.238843 91.152 
L 293.238843 88.128 
L 311.047651 88.128 
L 311.047651 85.104 
L 313.058108 85.104 
L 313.058108 82.08 
L 313.278649 82.08 
L 313.278649 79.056 
L 314.539814 79.056 
L 314.539814 76.032 
L 316.848372 76.032 
L 316.848372 73.008 
L 317.259838 73.008 
L 317.259838 69.984 
L 319.613846 69.984 
L 319.613846 66.96 
L 321.516909 66.96 
L 321.516909 63.936 
L 347.644058 63.936 
L 347.644058 60.912 
L 382.822126 60.912 
L 382.822126 57.888 
L 394.761941 57.888 
L 394.761941 54.864 
L 439.884955 54.864 
L 439.884955 51.84 
L 439.884955 51.84 
" clip-path="url(#p46f60242b3)" style="fill: none; stroke-dasharray: 5.55,2.4; stroke-dashoffset: 0; stroke: #fd8c3b; stroke-width: 1.5"/>
   </g>
   <g id="line2d_33">
    <path d="M 92.412446 384.48 
L 92.412446 381.456 
L 93.079432 381.456 
L 93.079432 378.432 
L 94.158193 378.432 
L 94.158193 375.408 
L 94.321235 375.408 
L 94.321235 372.384 
L 94.60474 372.384 
L 94.60474 369.36 
L 95.22931 369.36 
L 95.22931 366.336 
L 95.580586 366.336 
L 95.580586 363.312 
L 95.815223 363.312 
L 95.815223 360.288 
L 96.561884 360.288 
L 96.56713 354.24 
L 97.131722 354.24 
L 97.131722 351.216 
L 97.280067 351.216 
L 97.280067 348.192 
L 97.437473 348.192 
L 97.437473 345.168 
L 97.640987 345.168 
L 97.640987 342.144 
L 97.845761 342.144 
L 97.845761 339.12 
L 97.957949 339.12 
L 97.957949 336.096 
L 98.680516 336.096 
L 98.680516 333.072 
L 99.260826 333.072 
L 99.260826 330.048 
L 99.616596 330.048 
L 99.616596 327.024 
L 100.098033 327.024 
L 100.098033 324 
L 101.246791 324 
L 101.246791 320.976 
L 102.276594 320.976 
L 102.276594 317.952 
L 102.610104 317.952 
L 102.610104 314.928 
L 102.93482 314.928 
L 102.93482 311.904 
L 103.116184 311.904 
L 103.116184 308.88 
L 103.75804 308.88 
L 103.75804 305.856 
L 105.725198 305.856 
L 105.725198 302.832 
L 106.224469 302.832 
L 106.279344 296.784 
L 106.587855 296.784 
L 106.587855 293.76 
L 107.914944 293.76 
L 107.993153 287.712 
L 108.51174 287.712 
L 108.51174 284.688 
L 108.737185 284.688 
L 108.737185 281.664 
L 111.354034 281.664 
L 111.354034 278.64 
L 111.608094 278.64 
L 111.608094 275.616 
L 112.582228 275.616 
L 112.582228 272.592 
L 113.612277 272.592 
L 113.612277 269.568 
L 116.122363 269.568 
L 116.122363 266.544 
L 116.687256 266.544 
L 116.687256 263.52 
L 119.076584 263.52 
L 119.076584 260.496 
L 122.843082 260.496 
L 122.843082 257.472 
L 126.28548 257.472 
L 126.28548 254.448 
L 129.359411 254.448 
L 129.359411 251.424 
L 130.057649 251.424 
L 130.057649 248.4 
L 133.096224 248.4 
L 133.130251 242.352 
L 137.390089 242.352 
L 137.390089 239.328 
L 138.410029 239.328 
L 138.410029 236.304 
L 139.802711 236.304 
L 139.802711 233.28 
L 143.590112 233.28 
L 143.590112 230.256 
L 144.663147 230.256 
L 144.663147 227.232 
L 144.97437 227.232 
L 144.97437 224.208 
L 146.319917 224.208 
L 146.319917 221.184 
L 147.102043 221.184 
L 147.102043 218.16 
L 147.426348 218.16 
L 147.426348 215.136 
L 150.84739 215.136 
L 150.84739 212.112 
L 152.793384 212.112 
L 152.793384 209.088 
L 154.152985 209.088 
L 154.152985 206.064 
L 155.177774 206.064 
L 155.177774 203.04 
L 156.090732 203.04 
L 156.090732 200.016 
L 157.942947 200.016 
L 157.942947 196.992 
L 159.132745 196.992 
L 159.132745 193.968 
L 160.371076 193.968 
L 160.371076 190.944 
L 160.660122 190.944 
L 160.660122 187.92 
L 161.406221 187.92 
L 161.406221 184.896 
L 163.332366 184.896 
L 163.332366 181.872 
L 164.655571 181.872 
L 164.655571 178.848 
L 164.821415 178.848 
L 164.821415 175.824 
L 165.313454 175.824 
L 165.313454 172.8 
L 168.018575 172.8 
L 168.018575 169.776 
L 168.754113 169.776 
L 168.799755 163.728 
L 169.576443 163.728 
L 169.66481 157.68 
L 170.928455 157.68 
L 170.928455 154.656 
L 171.481643 154.656 
L 171.481643 151.632 
L 172.027434 151.632 
L 172.027434 148.608 
L 173.456074 148.608 
L 173.456074 145.584 
L 173.600645 145.584 
L 173.600645 142.56 
L 173.975756 142.56 
L 173.975756 139.536 
L 174.137286 139.536 
L 174.137286 136.512 
L 178.525339 136.512 
L 178.636185 130.464 
L 180.183177 130.464 
L 180.183177 127.44 
L 182.748192 127.44 
L 182.748192 124.416 
L 184.304033 124.416 
L 184.304033 121.392 
L 187.04696 121.392 
L 187.04696 118.368 
L 187.310308 118.368 
L 187.310308 115.344 
L 190.688051 115.344 
L 190.734296 109.296 
L 193.697874 109.296 
L 193.697874 106.272 
L 194.395824 106.272 
L 194.395824 103.248 
L 228.303248 103.248 
L 228.303248 100.224 
L 228.644826 100.224 
L 228.644826 97.2 
L 234.081915 97.2 
L 234.081915 94.176 
L 234.757455 94.176 
L 234.757455 91.152 
L 237.546682 91.152 
L 237.546682 88.128 
L 244.774947 88.128 
L 244.774947 85.104 
L 252.786393 85.104 
L 252.786393 82.08 
L 258.14669 82.08 
L 258.14669 79.056 
L 269.285188 79.056 
L 269.285188 76.032 
L 271.117322 76.032 
L 271.117322 73.008 
L 277.265237 73.008 
L 277.265237 69.984 
L 282.476059 69.984 
L 282.476059 66.96 
L 282.98407 66.96 
L 282.98407 63.936 
L 284.928557 63.936 
L 284.928557 60.912 
L 286.953562 60.912 
L 286.953562 57.888 
L 291.090417 57.888 
L 291.090417 54.864 
L 311.893871 54.864 
L 311.893871 51.84 
L 311.893871 51.84 
" clip-path="url(#p46f60242b3)" style="fill: none; stroke: #73c476; stroke-width: 1.5; stroke-linecap: square"/>
   </g>
   <g id="line2d_34">
    <path d="M 92.290909 384.48 
L 92.290909 381.456 
L 93.272419 381.456 
L 93.272419 378.432 
L 93.934768 378.432 
L 93.934768 375.408 
L 95.027425 375.408 
L 95.094738 366.336 
L 95.26887 366.336 
L 95.26887 363.312 
L 96.127761 363.312 
L 96.127761 360.288 
L 96.659258 360.288 
L 96.659258 357.264 
L 97.481362 357.264 
L 97.481362 354.24 
L 97.7138 354.24 
L 97.7138 351.216 
L 99.543447 351.216 
L 99.543447 348.192 
L 102.045807 348.192 
L 102.045807 345.168 
L 104.600548 345.168 
L 104.600548 342.144 
L 109.816438 342.144 
L 109.816438 339.12 
L 113.054966 339.12 
L 113.054966 336.096 
L 117.144618 336.096 
L 117.144618 333.072 
L 121.325226 333.072 
L 121.325226 330.048 
L 123.641153 330.048 
L 123.641153 327.024 
L 126.28222 327.024 
L 126.28222 324 
L 128.004769 324 
L 128.004769 320.976 
L 129.095611 320.976 
L 129.095611 317.952 
L 134.002086 317.952 
L 134.002086 314.928 
L 139.173567 314.928 
L 139.173567 311.904 
L 139.284796 311.904 
L 139.284796 308.88 
L 147.766172 308.88 
L 147.766172 305.856 
L 148.403029 305.856 
L 148.403029 302.832 
L 151.328909 302.832 
L 151.328909 299.808 
L 151.601065 299.808 
L 151.672351 293.76 
L 151.872454 293.76 
L 151.872454 290.736 
L 152.029052 290.736 
L 152.029052 287.712 
L 152.163404 287.712 
L 152.163404 284.688 
L 156.15851 284.688 
L 156.15851 281.664 
L 171.949053 281.664 
L 171.949053 278.64 
L 172.569801 278.64 
L 172.569801 275.616 
L 179.17551 275.616 
L 179.17551 272.592 
L 183.785091 272.592 
L 183.785091 269.568 
L 186.81842 269.568 
L 186.81842 266.544 
L 189.369052 266.544 
L 189.369052 263.52 
L 190.284475 263.52 
L 190.284475 260.496 
L 193.671382 260.496 
L 193.671382 257.472 
L 197.23042 257.472 
L 197.23042 254.448 
L 198.795384 254.448 
L 198.795384 251.424 
L 203.331214 251.424 
L 203.331214 248.4 
L 205.098172 248.4 
L 205.098172 245.376 
L 206.219342 245.376 
L 206.219342 242.352 
L 209.736382 242.352 
L 209.736382 239.328 
L 210.630655 239.328 
L 210.630655 236.304 
L 211.175131 236.304 
L 211.175131 233.28 
L 211.594843 233.28 
L 211.699278 227.232 
L 211.896094 227.232 
L 211.992803 221.184 
L 212.265069 221.184 
L 212.265069 218.16 
L 213.251777 218.16 
L 213.317364 212.112 
L 217.75843 212.112 
L 217.75843 209.088 
L 219.768531 209.088 
L 219.769846 203.04 
L 222.298478 203.04 
L 222.298478 200.016 
L 224.319593 200.016 
L 224.319593 196.992 
L 226.043511 196.992 
L 226.043511 193.968 
L 228.696413 193.968 
L 228.696413 190.944 
L 229.250232 190.944 
L 229.250232 187.92 
L 230.802347 187.92 
L 230.901193 181.872 
L 236.724461 181.872 
L 236.724461 178.848 
L 236.872279 178.848 
L 236.872279 175.824 
L 240.561436 175.824 
L 240.561436 172.8 
L 241.613622 172.8 
L 241.613622 169.776 
L 243.409538 169.776 
L 243.409538 166.752 
L 249.842185 166.752 
L 249.842185 163.728 
L 251.018805 163.728 
L 251.018805 160.704 
L 253.668187 160.704 
L 253.761294 154.656 
L 253.90507 154.656 
L 253.90507 151.632 
L 260.806113 151.632 
L 260.806113 148.608 
L 261.889037 148.608 
L 261.889037 145.584 
L 262.099003 145.584 
L 262.099003 142.56 
L 263.191133 142.56 
L 263.191133 139.536 
L 268.954376 139.536 
L 268.954376 136.512 
L 275.000432 136.512 
L 275.000432 133.488 
L 277.22617 133.488 
L 277.22617 130.464 
L 284.789685 130.464 
L 284.789685 127.44 
L 290.47282 127.44 
L 290.47282 124.416 
L 304.414079 124.416 
L 304.414079 121.392 
L 304.633415 121.392 
L 304.633415 118.368 
L 308.180152 118.368 
L 308.180152 115.344 
L 310.290962 115.344 
L 310.290962 112.32 
L 322.977411 112.32 
L 322.977411 109.296 
L 323.786043 109.296 
L 323.786043 106.272 
L 325.650971 106.272 
L 325.650971 103.248 
L 325.765488 103.248 
L 325.765488 100.224 
L 325.986029 100.224 
L 325.986029 97.2 
L 326.332045 97.2 
L 326.332045 94.176 
L 327.273604 94.176 
L 327.273604 91.152 
L 327.433928 91.152 
L 327.491844 85.104 
L 347.746657 85.104 
L 347.746657 82.08 
L 377.092608 82.08 
L 377.092608 79.056 
L 379.370783 79.056 
L 379.370783 76.032 
L 384.607439 76.032 
L 384.607439 73.008 
L 398.412072 73.008 
L 398.412072 69.984 
L 398.589738 69.984 
L 398.589738 66.96 
L 405.533437 66.96 
L 405.533437 63.936 
L 435.083381 63.936 
L 435.083381 60.912 
L 436.891899 60.912 
L 436.891899 57.888 
L 457.891839 57.888 
L 457.891839 54.864 
L 498.109091 54.864 
L 498.109091 51.84 
L 498.109091 51.84 
" clip-path="url(#p46f60242b3)" style="fill: none; stroke-dasharray: 5.55,2.4; stroke-dashoffset: 0; stroke: #73c476; stroke-width: 1.5"/>
   </g>
   <g id="line2d_35">
    <path d="M 212.556556 384.48 
L 212.556556 51.84 
" clip-path="url(#p46f60242b3)" style="fill: none; stroke-dasharray: 5.55,2.4; stroke-dashoffset: 0; stroke: #808080; stroke-opacity: 0.5; stroke-width: 1.5"/>
   </g>
   <g id="line2d_36">
    <path d="M 241.481309 384.48 
L 241.481309 51.84 
" clip-path="url(#p46f60242b3)" style="fill: none; stroke-dasharray: 5.55,2.4; stroke-dashoffset: 0; stroke: #808080; stroke-opacity: 0.5; stroke-width: 1.5"/>
   </g>
   <g id="line2d_37">
    <path d="M 247.767795 384.48 
L 247.767795 51.84 
" clip-path="url(#p46f60242b3)" style="fill: none; stroke-dasharray: 5.55,2.4; stroke-dashoffset: 0; stroke: #808080; stroke-opacity: 0.5; stroke-width: 1.5"/>
   </g>
   <g id="line2d_38">
    <path d="M 254.122586 384.48 
L 254.122586 51.84 
" clip-path="url(#p46f60242b3)" style="fill: none; stroke-dasharray: 5.55,2.4; stroke-dashoffset: 0; stroke: #808080; stroke-opacity: 0.5; stroke-width: 1.5"/>
   </g>
   <g id="line2d_39">
    <path d="M 187.09963 384.48 
L 187.09963 51.84 
" clip-path="url(#p46f60242b3)" style="fill: none; stroke-dasharray: 5.55,2.4; stroke-dashoffset: 0; stroke: #808080; stroke-opacity: 0.5; stroke-width: 1.5"/>
   </g>
   <g id="line2d_40">
    <path d="M 305.342762 384.48 
L 305.342762 51.84 
" clip-path="url(#p46f60242b3)" style="fill: none; stroke-dasharray: 5.55,2.4; stroke-dashoffset: 0; stroke: #808080; stroke-opacity: 0.5; stroke-width: 1.5"/>
   </g>
   <g id="patch_3">
    <path d="M 72 384.48 
L 72 51.84 
" style="fill: none; stroke: #000000; stroke-width: 0.8; stroke-linejoin: miter; stroke-linecap: square"/>
   </g>
   <g id="patch_4">
    <path d="M 518.4 384.48 
L 518.4 51.84 
" style="fill: none; stroke: #000000; stroke-width: 0.8; stroke-linejoin: miter; stroke-linecap: square"/>
   </g>
   <g id="patch_5">
    <path d="M 72 384.48 
L 518.4 384.48 
" style="fill: none; stroke: #000000; stroke-width: 0.8; stroke-linejoin: miter; stroke-linecap: square"/>
   </g>
   <g id="patch_6">
    <path d="M 72 51.84 
L 518.4 51.84 
" style="fill: none; stroke: #000000; stroke-width: 0.8; stroke-linejoin: miter; stroke-linecap: square"/>
   </g>
   <g id="text_17">
    <!-- 2.10 -->
    <g transform="translate(202.537024 384.48) scale(0.09 -0.09)">
     <use xlink:href="#DejaVuSans-32"/>
     <use xlink:href="#DejaVuSans-2e" x="63.623047"/>
     <use xlink:href="#DejaVuSans-31" x="95.410156"/>
     <use xlink:href="#DejaVuSans-30" x="159.033203"/>
    </g>
   </g>
   <g id="text_18">
    <!-- 2.60 -->
    <g transform="translate(231.461777 371.1744) scale(0.09 -0.09)">
     <use xlink:href="#DejaVuSans-32"/>
     <use xlink:href="#DejaVuSans-2e" x="63.623047"/>
     <use xlink:href="#DejaVuSans-36" x="95.410156"/>
     <use xlink:href="#DejaVuSans-30" x="159.033203"/>
    </g>
   </g>
   <g id="text_19">
    <!-- 2.71 -->
    <g transform="translate(237.748264 357.8688) scale(0.09 -0.09)">
     <use xlink:href="#DejaVuSans-32"/>
     <use xlink:href="#DejaVuSans-2e" x="63.623047"/>
     <use xlink:href="#DejaVuSans-37" x="95.410156"/>
     <use xlink:href="#DejaVuSans-31" x="159.033203"/>
    </g>
   </g>
   <g id="text_20">
    <!-- 2.82 -->
    <g transform="translate(244.103055 344.5632) scale(0.09 -0.09)">
     <use xlink:href="#DejaVuSans-32"/>
     <use xlink:href="#DejaVuSans-2e" x="63.623047"/>
     <use xlink:href="#DejaVuSans-38" x="95.410156"/>
     <use xlink:href="#DejaVuSans-32" x="159.033203"/>
    </g>
   </g>
   <g id="text_21">
    <!-- 1.65 -->
    <g transform="translate(177.080099 331.2576) scale(0.09 -0.09)">
     <use xlink:href="#DejaVuSans-31"/>
     <use xlink:href="#DejaVuSans-2e" x="63.623047"/>
     <use xlink:href="#DejaVuSans-36" x="95.410156"/>
     <use xlink:href="#DejaVuSans-35" x="159.033203"/>
    </g>
   </g>
   <g id="text_22">
    <!-- 3.71 -->
    <g transform="translate(295.323231 317.952) scale(0.09 -0.09)">
     <use xlink:href="#DejaVuSans-33"/>
     <use xlink:href="#DejaVuSans-2e" x="63.623047"/>
     <use xlink:href="#DejaVuSans-37" x="95.410156"/>
     <use xlink:href="#DejaVuSans-31" x="159.033203"/>
    </g>
   </g>
   <g id="legend_1">
    <g id="patch_7">
     <path d="M 326.370312 379.48 
L 511.4 379.48 
Q 513.4 379.48 513.4 377.48 
L 513.4 288.7425 
Q 513.4 286.7425 511.4 286.7425 
L 326.370312 286.7425 
Q 324.370312 286.7425 324.370312 288.7425 
L 324.370312 377.48 
Q 324.370312 379.48 326.370312 379.48 
z
" style="fill: #ffffff; opacity: 0.8; stroke: #cccccc; stroke-linejoin: miter"/>
    </g>
    <g id="line2d_41">
     <path d="M 328.370312 294.840937 
L 338.370312 294.840937 
L 338.370312 294.840937 
L 348.370312 294.840937 
L 348.370312 294.840937 
" style="fill: none; stroke: #1f77b4; stroke-width: 1.5; stroke-linecap: square"/>
    </g>
    <g id="text_23">
     <!-- Playground_model_parking_lot -->
     <g transform="translate(356.370312 298.340937) scale(0.1 -0.1)">
      <defs>
       <path id="DejaVuSans-6c" d="M 603 4863 
L 1178 4863 
L 1178 0 
L 603 0 
L 603 4863 
z
" transform="scale(0.015625)"/>
       <path id="DejaVuSans-61" d="M 2194 1759 
Q 1497 1759 1228 1600 
Q 959 1441 959 1056 
Q 959 750 1161 570 
Q 1363 391 1709 391 
Q 2188 391 2477 730 
Q 2766 1069 2766 1631 
L 2766 1759 
L 2194 1759 
z
M 3341 1997 
L 3341 0 
L 2766 0 
L 2766 531 
Q 2569 213 2275 61 
Q 1981 -91 1556 -91 
Q 1019 -91 701 211 
Q 384 513 384 1019 
Q 384 1609 779 1909 
Q 1175 2209 1959 2209 
L 2766 2209 
L 2766 2266 
Q 2766 2663 2505 2880 
Q 2244 3097 1772 3097 
Q 1472 3097 1187 3025 
Q 903 2953 641 2809 
L 641 3341 
Q 956 3463 1253 3523 
Q 1550 3584 1831 3584 
Q 2591 3584 2966 3190 
Q 3341 2797 3341 1997 
z
" transform="scale(0.015625)"/>
       <path id="DejaVuSans-79" d="M 2059 -325 
Q 1816 -950 1584 -1140 
Q 1353 -1331 966 -1331 
L 506 -1331 
L 506 -850 
L 844 -850 
Q 1081 -850 1212 -737 
Q 1344 -625 1503 -206 
L 1606 56 
L 191 3500 
L 800 3500 
L 1894 763 
L 2988 3500 
L 3597 3500 
L 2059 -325 
z
" transform="scale(0.015625)"/>
       <path id="DejaVuSans-67" d="M 2906 1791 
Q 2906 2416 2648 2759 
Q 2391 3103 1925 3103 
Q 1463 3103 1205 2759 
Q 947 2416 947 1791 
Q 947 1169 1205 825 
Q 1463 481 1925 481 
Q 2391 481 2648 825 
Q 2906 1169 2906 1791 
z
M 3481 434 
Q 3481 -459 3084 -895 
Q 2688 -1331 1869 -1331 
Q 1566 -1331 1297 -1286 
Q 1028 -1241 775 -1147 
L 775 -588 
Q 1028 -725 1275 -790 
Q 1522 -856 1778 -856 
Q 2344 -856 2625 -561 
Q 2906 -266 2906 331 
L 2906 616 
Q 2728 306 2450 153 
Q 2172 0 1784 0 
Q 1141 0 747 490 
Q 353 981 353 1791 
Q 353 2603 747 3093 
Q 1141 3584 1784 3584 
Q 2172 3584 2450 3431 
Q 2728 3278 2906 2969 
L 2906 3500 
L 3481 3500 
L 3481 434 
z
" transform="scale(0.015625)"/>
       <path id="DejaVuSans-75" d="M 544 1381 
L 544 3500 
L 1119 3500 
L 1119 1403 
Q 1119 906 1312 657 
Q 1506 409 1894 409 
Q 2359 409 2629 706 
Q 2900 1003 2900 1516 
L 2900 3500 
L 3475 3500 
L 3475 0 
L 2900 0 
L 2900 538 
Q 2691 219 2414 64 
Q 2138 -91 1772 -91 
Q 1169 -91 856 284 
Q 544 659 544 1381 
z
M 1991 3584 
L 1991 3584 
z
" transform="scale(0.015625)"/>
       <path id="DejaVuSans-5f" d="M 3263 -1063 
L 3263 -1509 
L -63 -1509 
L -63 -1063 
L 3263 -1063 
z
" transform="scale(0.015625)"/>
       <path id="DejaVuSans-70" d="M 1159 525 
L 1159 -1331 
L 581 -1331 
L 581 3500 
L 1159 3500 
L 1159 2969 
Q 1341 3281 1617 3432 
Q 1894 3584 2278 3584 
Q 2916 3584 3314 3078 
Q 3713 2572 3713 1747 
Q 3713 922 3314 415 
Q 2916 -91 2278 -91 
Q 1894 -91 1617 61 
Q 1341 213 1159 525 
z
M 3116 1747 
Q 3116 2381 2855 2742 
Q 2594 3103 2138 3103 
Q 1681 3103 1420 2742 
Q 1159 2381 1159 1747 
Q 1159 1113 1420 752 
Q 1681 391 2138 391 
Q 2594 391 2855 752 
Q 3116 1113 3116 1747 
z
" transform="scale(0.015625)"/>
       <path id="DejaVuSans-6b" d="M 581 4863 
L 1159 4863 
L 1159 1991 
L 2875 3500 
L 3609 3500 
L 1753 1863 
L 3688 0 
L 2938 0 
L 1159 1709 
L 1159 0 
L 581 0 
L 581 4863 
z
" transform="scale(0.015625)"/>
      </defs>
      <use xlink:href="#DejaVuSans-50"/>
      <use xlink:href="#DejaVuSans-6c" x="60.302734"/>
      <use xlink:href="#DejaVuSans-61" x="88.085938"/>
      <use xlink:href="#DejaVuSans-79" x="149.365234"/>
      <use xlink:href="#DejaVuSans-67" x="208.544922"/>
      <use xlink:href="#DejaVuSans-72" x="272.021484"/>
      <use xlink:href="#DejaVuSans-6f" x="310.884766"/>
      <use xlink:href="#DejaVuSans-75" x="372.066406"/>
      <use xlink:href="#DejaVuSans-6e" x="435.445312"/>
      <use xlink:href="#DejaVuSans-64" x="498.824219"/>
      <use xlink:href="#DejaVuSans-5f" x="562.300781"/>
      <use xlink:href="#DejaVuSans-6d" x="612.300781"/>
      <use xlink:href="#DejaVuSans-6f" x="709.712891"/>
      <use xlink:href="#DejaVuSans-64" x="770.894531"/>
      <use xlink:href="#DejaVuSans-65" x="834.371094"/>
      <use xlink:href="#DejaVuSans-6c" x="895.894531"/>
      <use xlink:href="#DejaVuSans-5f" x="923.677734"/>
      <use xlink:href="#DejaVuSans-70" x="973.677734"/>
      <use xlink:href="#DejaVuSans-61" x="1037.154297"/>
      <use xlink:href="#DejaVuSans-72" x="1098.433594"/>
      <use xlink:href="#DejaVuSans-6b" x="1139.546875"/>
      <use xlink:href="#DejaVuSans-69" x="1197.457031"/>
      <use xlink:href="#DejaVuSans-6e" x="1225.240234"/>
      <use xlink:href="#DejaVuSans-67" x="1288.619141"/>
      <use xlink:href="#DejaVuSans-5f" x="1352.095703"/>
      <use xlink:href="#DejaVuSans-6c" x="1402.095703"/>
      <use xlink:href="#DejaVuSans-6f" x="1429.878906"/>
      <use xlink:href="#DejaVuSans-74" x="1491.060547"/>
     </g>
    </g>
    <g id="line2d_42">
     <path d="M 328.370312 309.797188 
L 338.370312 309.797188 
L 338.370312 309.797188 
L 348.370312 309.797188 
L 348.370312 309.797188 
" style="fill: none; stroke-dasharray: 5.55,2.4; stroke-dashoffset: 0; stroke: #1f77b4; stroke-width: 1.5"/>
    </g>
    <g id="text_24">
     <!-- Playground_model_office -->
     <g transform="translate(356.370312 313.297188) scale(0.1 -0.1)">
      <defs>
       <path id="DejaVuSans-66" d="M 2375 4863 
L 2375 4384 
L 1825 4384 
Q 1516 4384 1395 4259 
Q 1275 4134 1275 3809 
L 1275 3500 
L 2222 3500 
L 2222 3053 
L 1275 3053 
L 1275 0 
L 697 0 
L 697 3053 
L 147 3053 
L 147 3500 
L 697 3500 
L 697 3744 
Q 697 4328 969 4595 
Q 1241 4863 1831 4863 
L 2375 4863 
z
" transform="scale(0.015625)"/>
      </defs>
      <use xlink:href="#DejaVuSans-50"/>
      <use xlink:href="#DejaVuSans-6c" x="60.302734"/>
      <use xlink:href="#DejaVuSans-61" x="88.085938"/>
      <use xlink:href="#DejaVuSans-79" x="149.365234"/>
      <use xlink:href="#DejaVuSans-67" x="208.544922"/>
      <use xlink:href="#DejaVuSans-72" x="272.021484"/>
      <use xlink:href="#DejaVuSans-6f" x="310.884766"/>
      <use xlink:href="#DejaVuSans-75" x="372.066406"/>
      <use xlink:href="#DejaVuSans-6e" x="435.445312"/>
      <use xlink:href="#DejaVuSans-64" x="498.824219"/>
      <use xlink:href="#DejaVuSans-5f" x="562.300781"/>
      <use xlink:href="#DejaVuSans-6d" x="612.300781"/>
      <use xlink:href="#DejaVuSans-6f" x="709.712891"/>
      <use xlink:href="#DejaVuSans-64" x="770.894531"/>
      <use xlink:href="#DejaVuSans-65" x="834.371094"/>
      <use xlink:href="#DejaVuSans-6c" x="895.894531"/>
      <use xlink:href="#DejaVuSans-5f" x="923.677734"/>
      <use xlink:href="#DejaVuSans-6f" x="973.677734"/>
      <use xlink:href="#DejaVuSans-66" x="1034.859375"/>
      <use xlink:href="#DejaVuSans-66" x="1070.064453"/>
      <use xlink:href="#DejaVuSans-69" x="1105.269531"/>
      <use xlink:href="#DejaVuSans-63" x="1133.052734"/>
      <use xlink:href="#DejaVuSans-65" x="1188.033203"/>
     </g>
    </g>
    <g id="line2d_43">
     <path d="M 328.370312 324.753438 
L 338.370312 324.753438 
L 338.370312 324.753438 
L 348.370312 324.753438 
L 348.370312 324.753438 
" style="fill: none; stroke: #fd8c3b; stroke-width: 1.5; stroke-linecap: square"/>
    </g>
    <g id="text_25">
     <!-- Office_model_parking_lot -->
     <g transform="translate(356.370312 328.253438) scale(0.1 -0.1)">
      <defs>
       <path id="DejaVuSans-4f" d="M 2522 4238 
Q 1834 4238 1429 3725 
Q 1025 3213 1025 2328 
Q 1025 1447 1429 934 
Q 1834 422 2522 422 
Q 3209 422 3611 934 
Q 4013 1447 4013 2328 
Q 4013 3213 3611 3725 
Q 3209 4238 2522 4238 
z
M 2522 4750 
Q 3503 4750 4090 4092 
Q 4678 3434 4678 2328 
Q 4678 1225 4090 567 
Q 3503 -91 2522 -91 
Q 1538 -91 948 565 
Q 359 1222 359 2328 
Q 359 3434 948 4092 
Q 1538 4750 2522 4750 
z
" transform="scale(0.015625)"/>
      </defs>
      <use xlink:href="#DejaVuSans-4f"/>
      <use xlink:href="#DejaVuSans-66" x="78.710938"/>
      <use xlink:href="#DejaVuSans-66" x="113.916016"/>
      <use xlink:href="#DejaVuSans-69" x="149.121094"/>
      <use xlink:href="#DejaVuSans-63" x="176.904297"/>
      <use xlink:href="#DejaVuSans-65" x="231.884766"/>
      <use xlink:href="#DejaVuSans-5f" x="293.408203"/>
      <use xlink:href="#DejaVuSans-6d" x="343.408203"/>
      <use xlink:href="#DejaVuSans-6f" x="440.820312"/>
      <use xlink:href="#DejaVuSans-64" x="502.001953"/>
      <use xlink:href="#DejaVuSans-65" x="565.478516"/>
      <use xlink:href="#DejaVuSans-6c" x="627.001953"/>
      <use xlink:href="#DejaVuSans-5f" x="654.785156"/>
      <use xlink:href="#DejaVuSans-70" x="704.785156"/>
      <use xlink:href="#DejaVuSans-61" x="768.261719"/>
      <use xlink:href="#DejaVuSans-72" x="829.541016"/>
      <use xlink:href="#DejaVuSans-6b" x="870.654297"/>
      <use xlink:href="#DejaVuSans-69" x="928.564453"/>
      <use xlink:href="#DejaVuSans-6e" x="956.347656"/>
      <use xlink:href="#DejaVuSans-67" x="1019.726562"/>
      <use xlink:href="#DejaVuSans-5f" x="1083.203125"/>
      <use xlink:href="#DejaVuSans-6c" x="1133.203125"/>
      <use xlink:href="#DejaVuSans-6f" x="1160.986328"/>
      <use xlink:href="#DejaVuSans-74" x="1222.167969"/>
     </g>
    </g>
    <g id="line2d_44">
     <path d="M 328.370312 339.709687 
L 338.370312 339.709687 
L 338.370312 339.709687 
L 348.370312 339.709687 
L 348.370312 339.709687 
" style="fill: none; stroke-dasharray: 5.55,2.4; stroke-dashoffset: 0; stroke: #fd8c3b; stroke-width: 1.5"/>
    </g>
    <g id="text_26">
     <!-- Office_model_playground -->
     <g transform="translate(356.370312 343.209687) scale(0.1 -0.1)">
      <use xlink:href="#DejaVuSans-4f"/>
      <use xlink:href="#DejaVuSans-66" x="78.710938"/>
      <use xlink:href="#DejaVuSans-66" x="113.916016"/>
      <use xlink:href="#DejaVuSans-69" x="149.121094"/>
      <use xlink:href="#DejaVuSans-63" x="176.904297"/>
      <use xlink:href="#DejaVuSans-65" x="231.884766"/>
      <use xlink:href="#DejaVuSans-5f" x="293.408203"/>
      <use xlink:href="#DejaVuSans-6d" x="343.408203"/>
      <use xlink:href="#DejaVuSans-6f" x="440.820312"/>
      <use xlink:href="#DejaVuSans-64" x="502.001953"/>
      <use xlink:href="#DejaVuSans-65" x="565.478516"/>
      <use xlink:href="#DejaVuSans-6c" x="627.001953"/>
      <use xlink:href="#DejaVuSans-5f" x="654.785156"/>
      <use xlink:href="#DejaVuSans-70" x="704.785156"/>
      <use xlink:href="#DejaVuSans-6c" x="768.261719"/>
      <use xlink:href="#DejaVuSans-61" x="796.044922"/>
      <use xlink:href="#DejaVuSans-79" x="857.324219"/>
      <use xlink:href="#DejaVuSans-67" x="916.503906"/>
      <use xlink:href="#DejaVuSans-72" x="979.980469"/>
      <use xlink:href="#DejaVuSans-6f" x="1018.84375"/>
      <use xlink:href="#DejaVuSans-75" x="1080.025391"/>
      <use xlink:href="#DejaVuSans-6e" x="1143.404297"/>
      <use xlink:href="#DejaVuSans-64" x="1206.783203"/>
     </g>
    </g>
    <g id="line2d_45">
     <path d="M 328.370312 354.665937 
L 338.370312 354.665937 
L 338.370312 354.665937 
L 348.370312 354.665937 
L 348.370312 354.665937 
" style="fill: none; stroke: #73c476; stroke-width: 1.5; stroke-linecap: square"/>
    </g>
    <g id="text_27">
     <!-- Parking_lot_model_playground -->
     <g transform="translate(356.370312 358.165937) scale(0.1 -0.1)">
      <use xlink:href="#DejaVuSans-50"/>
      <use xlink:href="#DejaVuSans-61" x="55.802734"/>
      <use xlink:href="#DejaVuSans-72" x="117.082031"/>
      <use xlink:href="#DejaVuSans-6b" x="158.195312"/>
      <use xlink:href="#DejaVuSans-69" x="216.105469"/>
      <use xlink:href="#DejaVuSans-6e" x="243.888672"/>
      <use xlink:href="#DejaVuSans-67" x="307.267578"/>
      <use xlink:href="#DejaVuSans-5f" x="370.744141"/>
      <use xlink:href="#DejaVuSans-6c" x="420.744141"/>
      <use xlink:href="#DejaVuSans-6f" x="448.527344"/>
      <use xlink:href="#DejaVuSans-74" x="509.708984"/>
      <use xlink:href="#DejaVuSans-5f" x="548.917969"/>
      <use xlink:href="#DejaVuSans-6d" x="598.917969"/>
      <use xlink:href="#DejaVuSans-6f" x="696.330078"/>
      <use xlink:href="#DejaVuSans-64" x="757.511719"/>
      <use xlink:href="#DejaVuSans-65" x="820.988281"/>
      <use xlink:href="#DejaVuSans-6c" x="882.511719"/>
      <use xlink:href="#DejaVuSans-5f" x="910.294922"/>
      <use xlink:href="#DejaVuSans-70" x="960.294922"/>
      <use xlink:href="#DejaVuSans-6c" x="1023.771484"/>
      <use xlink:href="#DejaVuSans-61" x="1051.554688"/>
      <use xlink:href="#DejaVuSans-79" x="1112.833984"/>
      <use xlink:href="#DejaVuSans-67" x="1172.013672"/>
      <use xlink:href="#DejaVuSans-72" x="1235.490234"/>
      <use xlink:href="#DejaVuSans-6f" x="1274.353516"/>
      <use xlink:href="#DejaVuSans-75" x="1335.535156"/>
      <use xlink:href="#DejaVuSans-6e" x="1398.914062"/>
      <use xlink:href="#DejaVuSans-64" x="1462.292969"/>
     </g>
    </g>
    <g id="line2d_46">
     <path d="M 328.370312 369.622187 
L 338.370312 369.622187 
L 338.370312 369.622187 
L 348.370312 369.622187 
L 348.370312 369.622187 
" style="fill: none; stroke-dasharray: 5.55,2.4; stroke-dashoffset: 0; stroke: #73c476; stroke-width: 1.5"/>
    </g>
    <g id="text_28">
     <!-- Parking_lot_model_office -->
     <g transform="translate(356.370312 373.122187) scale(0.1 -0.1)">
      <use xlink:href="#DejaVuSans-50"/>
      <use xlink:href="#DejaVuSans-61" x="55.802734"/>
      <use xlink:href="#DejaVuSans-72" x="117.082031"/>
      <use xlink:href="#DejaVuSans-6b" x="158.195312"/>
      <use xlink:href="#DejaVuSans-69" x="216.105469"/>
      <use xlink:href="#DejaVuSans-6e" x="243.888672"/>
      <use xlink:href="#DejaVuSans-67" x="307.267578"/>
      <use xlink:href="#DejaVuSans-5f" x="370.744141"/>
      <use xlink:href="#DejaVuSans-6c" x="420.744141"/>
      <use xlink:href="#DejaVuSans-6f" x="448.527344"/>
      <use xlink:href="#DejaVuSans-74" x="509.708984"/>
      <use xlink:href="#DejaVuSans-5f" x="548.917969"/>
      <use xlink:href="#DejaVuSans-6d" x="598.917969"/>
      <use xlink:href="#DejaVuSans-6f" x="696.330078"/>
      <use xlink:href="#DejaVuSans-64" x="757.511719"/>
      <use xlink:href="#DejaVuSans-65" x="820.988281"/>
      <use xlink:href="#DejaVuSans-6c" x="882.511719"/>
      <use xlink:href="#DejaVuSans-5f" x="910.294922"/>
      <use xlink:href="#DejaVuSans-6f" x="960.294922"/>
      <use xlink:href="#DejaVuSans-66" x="1021.476562"/>
      <use xlink:href="#DejaVuSans-66" x="1056.681641"/>
      <use xlink:href="#DejaVuSans-69" x="1091.886719"/>
      <use xlink:href="#DejaVuSans-63" x="1119.669922"/>
      <use xlink:href="#DejaVuSans-65" x="1174.650391"/>
     </g>
    </g>
   </g>
  </g>
 </g>
 <defs>
  <clipPath id="p46f60242b3">
   <rect x="72" y="51.84" width="446.4" height="332.64"/>
  </clipPath>
 </defs>
</svg>
