<?xml version="1.0" encoding="utf-8" standalone="no"?>
<!DOCTYPE svg PUBLIC "-//W3C//DTD SVG 1.1//EN"
  "http://www.w3.org/Graphics/SVG/1.1/DTD/svg11.dtd">
<svg xmlns:xlink="http://www.w3.org/1999/xlink" width="460.8pt" height="345.6pt" viewBox="0 0 460.8 345.6" xmlns="http://www.w3.org/2000/svg" version="1.1">
 <metadata>
  <rdf:RDF xmlns:dc="http://purl.org/dc/elements/1.1/" xmlns:cc="http://creativecommons.org/ns#" xmlns:rdf="http://www.w3.org/1999/02/22-rdf-syntax-ns#">
   <cc:Work>
    <dc:type rdf:resource="http://purl.org/dc/dcmitype/StillImage"/>
    <dc:date>2024-11-08T14:19:46.279841</dc:date>
    <dc:format>image/svg+xml</dc:format>
    <dc:creator>
     <cc:Agent>
      <dc:title>Matplotlib v3.8.0, https://matplotlib.org/</dc:title>
     </cc:Agent>
    </dc:creator>
   </cc:Work>
  </rdf:RDF>
 </metadata>
 <defs>
  <style type="text/css">*{stroke-linejoin: round; stroke-linecap: butt}</style>
 </defs>
 <g id="figure_1">
  <g id="patch_1">
   <path d="M 0 345.6 
L 460.8 345.6 
L 460.8 0 
L 0 0 
z
" style="fill: #ffffff"/>
  </g>
  <g id="axes_1">
   <g id="patch_2">
    <path d="M 57.6 307.584 
L 414.72 307.584 
L 414.72 41.472 
L 57.6 41.472 
z
" style="fill: #ffffff"/>
   </g>
   <g id="matplotlib.axis_1">
    <g id="xtick_1">
     <g id="line2d_1">
      <path d="M 73.816777 307.584 
L 73.816777 41.472 
" clip-path="url(#p3cab01567b)" style="fill: none; stroke: #b0b0b0; stroke-width: 0.8; stroke-linecap: square"/>
     </g>
     <g id="line2d_2">
      <defs>
       <path id="mdf1ad876c5" d="M 0 0 
L 0 3.5 
" style="stroke: #000000; stroke-width: 0.8"/>
      </defs>
      <g>
       <use xlink:href="#mdf1ad876c5" x="73.816777" y="307.584" style="stroke: #000000; stroke-width: 0.8"/>
      </g>
     </g>
     <g id="text_1">
      <!-- 0.0 -->
      <g transform="translate(65.865214 322.182437) scale(0.1 -0.1)">
       <defs>
        <path id="DejaVuSans-30" d="M 2034 4250 
Q 1547 4250 1301 3770 
Q 1056 3291 1056 2328 
Q 1056 1369 1301 889 
Q 1547 409 2034 409 
Q 2525 409 2770 889 
Q 3016 1369 3016 2328 
Q 3016 3291 2770 3770 
Q 2525 4250 2034 4250 
z
M 2034 4750 
Q 2819 4750 3233 4129 
Q 3647 3509 3647 2328 
Q 3647 1150 3233 529 
Q 2819 -91 2034 -91 
Q 1250 -91 836 529 
Q 422 1150 422 2328 
Q 422 3509 836 4129 
Q 1250 4750 2034 4750 
z
" transform="scale(0.015625)"/>
        <path id="DejaVuSans-2e" d="M 684 794 
L 1344 794 
L 1344 0 
L 684 0 
L 684 794 
z
" transform="scale(0.015625)"/>
       </defs>
       <use xlink:href="#DejaVuSans-30"/>
       <use xlink:href="#DejaVuSans-2e" x="63.623047"/>
       <use xlink:href="#DejaVuSans-30" x="95.410156"/>
      </g>
     </g>
    </g>
    <g id="xtick_2">
     <g id="line2d_3">
      <path d="M 128.56359 307.584 
L 128.56359 41.472 
" clip-path="url(#p3cab01567b)" style="fill: none; stroke: #b0b0b0; stroke-width: 0.8; stroke-linecap: square"/>
     </g>
     <g id="line2d_4">
      <g>
       <use xlink:href="#mdf1ad876c5" x="128.56359" y="307.584" style="stroke: #000000; stroke-width: 0.8"/>
      </g>
     </g>
     <g id="text_2">
      <!-- 0.5 -->
      <g transform="translate(120.612028 322.182437) scale(0.1 -0.1)">
       <defs>
        <path id="DejaVuSans-35" d="M 691 4666 
L 3169 4666 
L 3169 4134 
L 1269 4134 
L 1269 2991 
Q 1406 3038 1543 3061 
Q 1681 3084 1819 3084 
Q 2600 3084 3056 2656 
Q 3513 2228 3513 1497 
Q 3513 744 3044 326 
Q 2575 -91 1722 -91 
Q 1428 -91 1123 -41 
Q 819 9 494 109 
L 494 744 
Q 775 591 1075 516 
Q 1375 441 1709 441 
Q 2250 441 2565 725 
Q 2881 1009 2881 1497 
Q 2881 1984 2565 2268 
Q 2250 2553 1709 2553 
Q 1456 2553 1204 2497 
Q 953 2441 691 2322 
L 691 4666 
z
" transform="scale(0.015625)"/>
       </defs>
       <use xlink:href="#DejaVuSans-30"/>
       <use xlink:href="#DejaVuSans-2e" x="63.623047"/>
       <use xlink:href="#DejaVuSans-35" x="95.410156"/>
      </g>
     </g>
    </g>
    <g id="xtick_3">
     <g id="line2d_5">
      <path d="M 183.310404 307.584 
L 183.310404 41.472 
" clip-path="url(#p3cab01567b)" style="fill: none; stroke: #b0b0b0; stroke-width: 0.8; stroke-linecap: square"/>
     </g>
     <g id="line2d_6">
      <g>
       <use xlink:href="#mdf1ad876c5" x="183.310404" y="307.584" style="stroke: #000000; stroke-width: 0.8"/>
      </g>
     </g>
     <g id="text_3">
      <!-- 1.0 -->
      <g transform="translate(175.358841 322.182437) scale(0.1 -0.1)">
       <defs>
        <path id="DejaVuSans-31" d="M 794 531 
L 1825 531 
L 1825 4091 
L 703 3866 
L 703 4441 
L 1819 4666 
L 2450 4666 
L 2450 531 
L 3481 531 
L 3481 0 
L 794 0 
L 794 531 
z
" transform="scale(0.015625)"/>
       </defs>
       <use xlink:href="#DejaVuSans-31"/>
       <use xlink:href="#DejaVuSans-2e" x="63.623047"/>
       <use xlink:href="#DejaVuSans-30" x="95.410156"/>
      </g>
     </g>
    </g>
    <g id="xtick_4">
     <g id="line2d_7">
      <path d="M 238.057217 307.584 
L 238.057217 41.472 
" clip-path="url(#p3cab01567b)" style="fill: none; stroke: #b0b0b0; stroke-width: 0.8; stroke-linecap: square"/>
     </g>
     <g id="line2d_8">
      <g>
       <use xlink:href="#mdf1ad876c5" x="238.057217" y="307.584" style="stroke: #000000; stroke-width: 0.8"/>
      </g>
     </g>
     <g id="text_4">
      <!-- 1.5 -->
      <g transform="translate(230.105654 322.182437) scale(0.1 -0.1)">
       <use xlink:href="#DejaVuSans-31"/>
       <use xlink:href="#DejaVuSans-2e" x="63.623047"/>
       <use xlink:href="#DejaVuSans-35" x="95.410156"/>
      </g>
     </g>
    </g>
    <g id="xtick_5">
     <g id="line2d_9">
      <path d="M 292.80403 307.584 
L 292.80403 41.472 
" clip-path="url(#p3cab01567b)" style="fill: none; stroke: #b0b0b0; stroke-width: 0.8; stroke-linecap: square"/>
     </g>
     <g id="line2d_10">
      <g>
       <use xlink:href="#mdf1ad876c5" x="292.80403" y="307.584" style="stroke: #000000; stroke-width: 0.8"/>
      </g>
     </g>
     <g id="text_5">
      <!-- 2.0 -->
      <g transform="translate(284.852468 322.182437) scale(0.1 -0.1)">
       <defs>
        <path id="DejaVuSans-32" d="M 1228 531 
L 3431 531 
L 3431 0 
L 469 0 
L 469 531 
Q 828 903 1448 1529 
Q 2069 2156 2228 2338 
Q 2531 2678 2651 2914 
Q 2772 3150 2772 3378 
Q 2772 3750 2511 3984 
Q 2250 4219 1831 4219 
Q 1534 4219 1204 4116 
Q 875 4013 500 3803 
L 500 4441 
Q 881 4594 1212 4672 
Q 1544 4750 1819 4750 
Q 2544 4750 2975 4387 
Q 3406 4025 3406 3419 
Q 3406 3131 3298 2873 
Q 3191 2616 2906 2266 
Q 2828 2175 2409 1742 
Q 1991 1309 1228 531 
z
" transform="scale(0.015625)"/>
       </defs>
       <use xlink:href="#DejaVuSans-32"/>
       <use xlink:href="#DejaVuSans-2e" x="63.623047"/>
       <use xlink:href="#DejaVuSans-30" x="95.410156"/>
      </g>
     </g>
    </g>
    <g id="xtick_6">
     <g id="line2d_11">
      <path d="M 347.550843 307.584 
L 347.550843 41.472 
" clip-path="url(#p3cab01567b)" style="fill: none; stroke: #b0b0b0; stroke-width: 0.8; stroke-linecap: square"/>
     </g>
     <g id="line2d_12">
      <g>
       <use xlink:href="#mdf1ad876c5" x="347.550843" y="307.584" style="stroke: #000000; stroke-width: 0.8"/>
      </g>
     </g>
     <g id="text_6">
      <!-- 2.5 -->
      <g transform="translate(339.599281 322.182437) scale(0.1 -0.1)">
       <use xlink:href="#DejaVuSans-32"/>
       <use xlink:href="#DejaVuSans-2e" x="63.623047"/>
       <use xlink:href="#DejaVuSans-35" x="95.410156"/>
      </g>
     </g>
    </g>
    <g id="xtick_7">
     <g id="line2d_13">
      <path d="M 402.297657 307.584 
L 402.297657 41.472 
" clip-path="url(#p3cab01567b)" style="fill: none; stroke: #b0b0b0; stroke-width: 0.8; stroke-linecap: square"/>
     </g>
     <g id="line2d_14">
      <g>
       <use xlink:href="#mdf1ad876c5" x="402.297657" y="307.584" style="stroke: #000000; stroke-width: 0.8"/>
      </g>
     </g>
     <g id="text_7">
      <!-- 3.0 -->
      <g transform="translate(394.346094 322.182437) scale(0.1 -0.1)">
       <defs>
        <path id="DejaVuSans-33" d="M 2597 2516 
Q 3050 2419 3304 2112 
Q 3559 1806 3559 1356 
Q 3559 666 3084 287 
Q 2609 -91 1734 -91 
Q 1441 -91 1130 -33 
Q 819 25 488 141 
L 488 750 
Q 750 597 1062 519 
Q 1375 441 1716 441 
Q 2309 441 2620 675 
Q 2931 909 2931 1356 
Q 2931 1769 2642 2001 
Q 2353 2234 1838 2234 
L 1294 2234 
L 1294 2753 
L 1863 2753 
Q 2328 2753 2575 2939 
Q 2822 3125 2822 3475 
Q 2822 3834 2567 4026 
Q 2313 4219 1838 4219 
Q 1578 4219 1281 4162 
Q 984 4106 628 3988 
L 628 4550 
Q 988 4650 1302 4700 
Q 1616 4750 1894 4750 
Q 2613 4750 3031 4423 
Q 3450 4097 3450 3541 
Q 3450 3153 3228 2886 
Q 3006 2619 2597 2516 
z
" transform="scale(0.015625)"/>
       </defs>
       <use xlink:href="#DejaVuSans-33"/>
       <use xlink:href="#DejaVuSans-2e" x="63.623047"/>
       <use xlink:href="#DejaVuSans-30" x="95.410156"/>
      </g>
     </g>
    </g>
    <g id="text_8">
     <!-- Prediction Error(m) -->
     <g transform="translate(179.300625 337.38025) scale(0.12 -0.12)">
      <defs>
       <path id="DejaVuSans-50" d="M 1259 4147 
L 1259 2394 
L 2053 2394 
Q 2494 2394 2734 2622 
Q 2975 2850 2975 3272 
Q 2975 3691 2734 3919 
Q 2494 4147 2053 4147 
L 1259 4147 
z
M 628 4666 
L 2053 4666 
Q 2838 4666 3239 4311 
Q 3641 3956 3641 3272 
Q 3641 2581 3239 2228 
Q 2838 1875 2053 1875 
L 1259 1875 
L 1259 0 
L 628 0 
L 628 4666 
z
" transform="scale(0.015625)"/>
       <path id="DejaVuSans-72" d="M 2631 2963 
Q 2534 3019 2420 3045 
Q 2306 3072 2169 3072 
Q 1681 3072 1420 2755 
Q 1159 2438 1159 1844 
L 1159 0 
L 581 0 
L 581 3500 
L 1159 3500 
L 1159 2956 
Q 1341 3275 1631 3429 
Q 1922 3584 2338 3584 
Q 2397 3584 2469 3576 
Q 2541 3569 2628 3553 
L 2631 2963 
z
" transform="scale(0.015625)"/>
       <path id="DejaVuSans-65" d="M 3597 1894 
L 3597 1613 
L 953 1613 
Q 991 1019 1311 708 
Q 1631 397 2203 397 
Q 2534 397 2845 478 
Q 3156 559 3463 722 
L 3463 178 
Q 3153 47 2828 -22 
Q 2503 -91 2169 -91 
Q 1331 -91 842 396 
Q 353 884 353 1716 
Q 353 2575 817 3079 
Q 1281 3584 2069 3584 
Q 2775 3584 3186 3129 
Q 3597 2675 3597 1894 
z
M 3022 2063 
Q 3016 2534 2758 2815 
Q 2500 3097 2075 3097 
Q 1594 3097 1305 2825 
Q 1016 2553 972 2059 
L 3022 2063 
z
" transform="scale(0.015625)"/>
       <path id="DejaVuSans-64" d="M 2906 2969 
L 2906 4863 
L 3481 4863 
L 3481 0 
L 2906 0 
L 2906 525 
Q 2725 213 2448 61 
Q 2172 -91 1784 -91 
Q 1150 -91 751 415 
Q 353 922 353 1747 
Q 353 2572 751 3078 
Q 1150 3584 1784 3584 
Q 2172 3584 2448 3432 
Q 2725 3281 2906 2969 
z
M 947 1747 
Q 947 1113 1208 752 
Q 1469 391 1925 391 
Q 2381 391 2643 752 
Q 2906 1113 2906 1747 
Q 2906 2381 2643 2742 
Q 2381 3103 1925 3103 
Q 1469 3103 1208 2742 
Q 947 2381 947 1747 
z
" transform="scale(0.015625)"/>
       <path id="DejaVuSans-69" d="M 603 3500 
L 1178 3500 
L 1178 0 
L 603 0 
L 603 3500 
z
M 603 4863 
L 1178 4863 
L 1178 4134 
L 603 4134 
L 603 4863 
z
" transform="scale(0.015625)"/>
       <path id="DejaVuSans-63" d="M 3122 3366 
L 3122 2828 
Q 2878 2963 2633 3030 
Q 2388 3097 2138 3097 
Q 1578 3097 1268 2742 
Q 959 2388 959 1747 
Q 959 1106 1268 751 
Q 1578 397 2138 397 
Q 2388 397 2633 464 
Q 2878 531 3122 666 
L 3122 134 
Q 2881 22 2623 -34 
Q 2366 -91 2075 -91 
Q 1284 -91 818 406 
Q 353 903 353 1747 
Q 353 2603 823 3093 
Q 1294 3584 2113 3584 
Q 2378 3584 2631 3529 
Q 2884 3475 3122 3366 
z
" transform="scale(0.015625)"/>
       <path id="DejaVuSans-74" d="M 1172 4494 
L 1172 3500 
L 2356 3500 
L 2356 3053 
L 1172 3053 
L 1172 1153 
Q 1172 725 1289 603 
Q 1406 481 1766 481 
L 2356 481 
L 2356 0 
L 1766 0 
Q 1100 0 847 248 
Q 594 497 594 1153 
L 594 3053 
L 172 3053 
L 172 3500 
L 594 3500 
L 594 4494 
L 1172 4494 
z
" transform="scale(0.015625)"/>
       <path id="DejaVuSans-6f" d="M 1959 3097 
Q 1497 3097 1228 2736 
Q 959 2375 959 1747 
Q 959 1119 1226 758 
Q 1494 397 1959 397 
Q 2419 397 2687 759 
Q 2956 1122 2956 1747 
Q 2956 2369 2687 2733 
Q 2419 3097 1959 3097 
z
M 1959 3584 
Q 2709 3584 3137 3096 
Q 3566 2609 3566 1747 
Q 3566 888 3137 398 
Q 2709 -91 1959 -91 
Q 1206 -91 779 398 
Q 353 888 353 1747 
Q 353 2609 779 3096 
Q 1206 3584 1959 3584 
z
" transform="scale(0.015625)"/>
       <path id="DejaVuSans-6e" d="M 3513 2113 
L 3513 0 
L 2938 0 
L 2938 2094 
Q 2938 2591 2744 2837 
Q 2550 3084 2163 3084 
Q 1697 3084 1428 2787 
Q 1159 2491 1159 1978 
L 1159 0 
L 581 0 
L 581 3500 
L 1159 3500 
L 1159 2956 
Q 1366 3272 1645 3428 
Q 1925 3584 2291 3584 
Q 2894 3584 3203 3211 
Q 3513 2838 3513 2113 
z
" transform="scale(0.015625)"/>
       <path id="DejaVuSans-20" transform="scale(0.015625)"/>
       <path id="DejaVuSans-45" d="M 628 4666 
L 3578 4666 
L 3578 4134 
L 1259 4134 
L 1259 2753 
L 3481 2753 
L 3481 2222 
L 1259 2222 
L 1259 531 
L 3634 531 
L 3634 0 
L 628 0 
L 628 4666 
z
" transform="scale(0.015625)"/>
       <path id="DejaVuSans-28" d="M 1984 4856 
Q 1566 4138 1362 3434 
Q 1159 2731 1159 2009 
Q 1159 1288 1364 580 
Q 1569 -128 1984 -844 
L 1484 -844 
Q 1016 -109 783 600 
Q 550 1309 550 2009 
Q 550 2706 781 3412 
Q 1013 4119 1484 4856 
L 1984 4856 
z
" transform="scale(0.015625)"/>
       <path id="DejaVuSans-6d" d="M 3328 2828 
Q 3544 3216 3844 3400 
Q 4144 3584 4550 3584 
Q 5097 3584 5394 3201 
Q 5691 2819 5691 2113 
L 5691 0 
L 5113 0 
L 5113 2094 
Q 5113 2597 4934 2840 
Q 4756 3084 4391 3084 
Q 3944 3084 3684 2787 
Q 3425 2491 3425 1978 
L 3425 0 
L 2847 0 
L 2847 2094 
Q 2847 2600 2669 2842 
Q 2491 3084 2119 3084 
Q 1678 3084 1418 2786 
Q 1159 2488 1159 1978 
L 1159 0 
L 581 0 
L 581 3500 
L 1159 3500 
L 1159 2956 
Q 1356 3278 1631 3431 
Q 1906 3584 2284 3584 
Q 2666 3584 2933 3390 
Q 3200 3197 3328 2828 
z
" transform="scale(0.015625)"/>
       <path id="DejaVuSans-29" d="M 513 4856 
L 1013 4856 
Q 1481 4119 1714 3412 
Q 1947 2706 1947 2009 
Q 1947 1309 1714 600 
Q 1481 -109 1013 -844 
L 513 -844 
Q 928 -128 1133 580 
Q 1338 1288 1338 2009 
Q 1338 2731 1133 3434 
Q 928 4138 513 4856 
z
" transform="scale(0.015625)"/>
      </defs>
      <use xlink:href="#DejaVuSans-50"/>
      <use xlink:href="#DejaVuSans-72" x="58.552734"/>
      <use xlink:href="#DejaVuSans-65" x="97.416016"/>
      <use xlink:href="#DejaVuSans-64" x="158.939453"/>
      <use xlink:href="#DejaVuSans-69" x="222.416016"/>
      <use xlink:href="#DejaVuSans-63" x="250.199219"/>
      <use xlink:href="#DejaVuSans-74" x="305.179688"/>
      <use xlink:href="#DejaVuSans-69" x="344.388672"/>
      <use xlink:href="#DejaVuSans-6f" x="372.171875"/>
      <use xlink:href="#DejaVuSans-6e" x="433.353516"/>
      <use xlink:href="#DejaVuSans-20" x="496.732422"/>
      <use xlink:href="#DejaVuSans-45" x="528.519531"/>
      <use xlink:href="#DejaVuSans-72" x="591.703125"/>
      <use xlink:href="#DejaVuSans-72" x="631.066406"/>
      <use xlink:href="#DejaVuSans-6f" x="669.929688"/>
      <use xlink:href="#DejaVuSans-72" x="731.111328"/>
      <use xlink:href="#DejaVuSans-28" x="772.224609"/>
      <use xlink:href="#DejaVuSans-6d" x="811.238281"/>
      <use xlink:href="#DejaVuSans-29" x="908.650391"/>
     </g>
    </g>
   </g>
   <g id="matplotlib.axis_2">
    <g id="ytick_1">
     <g id="line2d_15">
      <path d="M 57.6 307.584 
L 414.72 307.584 
" clip-path="url(#p3cab01567b)" style="fill: none; stroke: #b0b0b0; stroke-width: 0.8; stroke-linecap: square"/>
     </g>
     <g id="line2d_16">
      <defs>
       <path id="mef423158c6" d="M 0 0 
L -3.5 0 
" style="stroke: #000000; stroke-width: 0.8"/>
      </defs>
      <g>
       <use xlink:href="#mef423158c6" x="57.6" y="307.584" style="stroke: #000000; stroke-width: 0.8"/>
      </g>
     </g>
     <g id="text_9">
      <!-- 0.0 -->
      <g transform="translate(34.696875 311.383219) scale(0.1 -0.1)">
       <use xlink:href="#DejaVuSans-30"/>
       <use xlink:href="#DejaVuSans-2e" x="63.623047"/>
       <use xlink:href="#DejaVuSans-30" x="95.410156"/>
      </g>
     </g>
    </g>
    <g id="ytick_2">
     <g id="line2d_17">
      <path d="M 57.6 254.3616 
L 414.72 254.3616 
" clip-path="url(#p3cab01567b)" style="fill: none; stroke: #b0b0b0; stroke-width: 0.8; stroke-linecap: square"/>
     </g>
     <g id="line2d_18">
      <g>
       <use xlink:href="#mef423158c6" x="57.6" y="254.3616" style="stroke: #000000; stroke-width: 0.8"/>
      </g>
     </g>
     <g id="text_10">
      <!-- 0.2 -->
      <g transform="translate(34.696875 258.160819) scale(0.1 -0.1)">
       <use xlink:href="#DejaVuSans-30"/>
       <use xlink:href="#DejaVuSans-2e" x="63.623047"/>
       <use xlink:href="#DejaVuSans-32" x="95.410156"/>
      </g>
     </g>
    </g>
    <g id="ytick_3">
     <g id="line2d_19">
      <path d="M 57.6 201.1392 
L 414.72 201.1392 
" clip-path="url(#p3cab01567b)" style="fill: none; stroke: #b0b0b0; stroke-width: 0.8; stroke-linecap: square"/>
     </g>
     <g id="line2d_20">
      <g>
       <use xlink:href="#mef423158c6" x="57.6" y="201.1392" style="stroke: #000000; stroke-width: 0.8"/>
      </g>
     </g>
     <g id="text_11">
      <!-- 0.4 -->
      <g transform="translate(34.696875 204.938419) scale(0.1 -0.1)">
       <defs>
        <path id="DejaVuSans-34" d="M 2419 4116 
L 825 1625 
L 2419 1625 
L 2419 4116 
z
M 2253 4666 
L 3047 4666 
L 3047 1625 
L 3713 1625 
L 3713 1100 
L 3047 1100 
L 3047 0 
L 2419 0 
L 2419 1100 
L 313 1100 
L 313 1709 
L 2253 4666 
z
" transform="scale(0.015625)"/>
       </defs>
       <use xlink:href="#DejaVuSans-30"/>
       <use xlink:href="#DejaVuSans-2e" x="63.623047"/>
       <use xlink:href="#DejaVuSans-34" x="95.410156"/>
      </g>
     </g>
    </g>
    <g id="ytick_4">
     <g id="line2d_21">
      <path d="M 57.6 147.9168 
L 414.72 147.9168 
" clip-path="url(#p3cab01567b)" style="fill: none; stroke: #b0b0b0; stroke-width: 0.8; stroke-linecap: square"/>
     </g>
     <g id="line2d_22">
      <g>
       <use xlink:href="#mef423158c6" x="57.6" y="147.9168" style="stroke: #000000; stroke-width: 0.8"/>
      </g>
     </g>
     <g id="text_12">
      <!-- 0.6 -->
      <g transform="translate(34.696875 151.716019) scale(0.1 -0.1)">
       <defs>
        <path id="DejaVuSans-36" d="M 2113 2584 
Q 1688 2584 1439 2293 
Q 1191 2003 1191 1497 
Q 1191 994 1439 701 
Q 1688 409 2113 409 
Q 2538 409 2786 701 
Q 3034 994 3034 1497 
Q 3034 2003 2786 2293 
Q 2538 2584 2113 2584 
z
M 3366 4563 
L 3366 3988 
Q 3128 4100 2886 4159 
Q 2644 4219 2406 4219 
Q 1781 4219 1451 3797 
Q 1122 3375 1075 2522 
Q 1259 2794 1537 2939 
Q 1816 3084 2150 3084 
Q 2853 3084 3261 2657 
Q 3669 2231 3669 1497 
Q 3669 778 3244 343 
Q 2819 -91 2113 -91 
Q 1303 -91 875 529 
Q 447 1150 447 2328 
Q 447 3434 972 4092 
Q 1497 4750 2381 4750 
Q 2619 4750 2861 4703 
Q 3103 4656 3366 4563 
z
" transform="scale(0.015625)"/>
       </defs>
       <use xlink:href="#DejaVuSans-30"/>
       <use xlink:href="#DejaVuSans-2e" x="63.623047"/>
       <use xlink:href="#DejaVuSans-36" x="95.410156"/>
      </g>
     </g>
    </g>
    <g id="ytick_5">
     <g id="line2d_23">
      <path d="M 57.6 94.6944 
L 414.72 94.6944 
" clip-path="url(#p3cab01567b)" style="fill: none; stroke: #b0b0b0; stroke-width: 0.8; stroke-linecap: square"/>
     </g>
     <g id="line2d_24">
      <g>
       <use xlink:href="#mef423158c6" x="57.6" y="94.6944" style="stroke: #000000; stroke-width: 0.8"/>
      </g>
     </g>
     <g id="text_13">
      <!-- 0.8 -->
      <g transform="translate(34.696875 98.493619) scale(0.1 -0.1)">
       <defs>
        <path id="DejaVuSans-38" d="M 2034 2216 
Q 1584 2216 1326 1975 
Q 1069 1734 1069 1313 
Q 1069 891 1326 650 
Q 1584 409 2034 409 
Q 2484 409 2743 651 
Q 3003 894 3003 1313 
Q 3003 1734 2745 1975 
Q 2488 2216 2034 2216 
z
M 1403 2484 
Q 997 2584 770 2862 
Q 544 3141 544 3541 
Q 544 4100 942 4425 
Q 1341 4750 2034 4750 
Q 2731 4750 3128 4425 
Q 3525 4100 3525 3541 
Q 3525 3141 3298 2862 
Q 3072 2584 2669 2484 
Q 3125 2378 3379 2068 
Q 3634 1759 3634 1313 
Q 3634 634 3220 271 
Q 2806 -91 2034 -91 
Q 1263 -91 848 271 
Q 434 634 434 1313 
Q 434 1759 690 2068 
Q 947 2378 1403 2484 
z
M 1172 3481 
Q 1172 3119 1398 2916 
Q 1625 2713 2034 2713 
Q 2441 2713 2670 2916 
Q 2900 3119 2900 3481 
Q 2900 3844 2670 4047 
Q 2441 4250 2034 4250 
Q 1625 4250 1398 4047 
Q 1172 3844 1172 3481 
z
" transform="scale(0.015625)"/>
       </defs>
       <use xlink:href="#DejaVuSans-30"/>
       <use xlink:href="#DejaVuSans-2e" x="63.623047"/>
       <use xlink:href="#DejaVuSans-38" x="95.410156"/>
      </g>
     </g>
    </g>
    <g id="ytick_6">
     <g id="line2d_25">
      <path d="M 57.6 41.472 
L 414.72 41.472 
" clip-path="url(#p3cab01567b)" style="fill: none; stroke: #b0b0b0; stroke-width: 0.8; stroke-linecap: square"/>
     </g>
     <g id="line2d_26">
      <g>
       <use xlink:href="#mef423158c6" x="57.6" y="41.472" style="stroke: #000000; stroke-width: 0.8"/>
      </g>
     </g>
     <g id="text_14">
      <!-- 1.0 -->
      <g transform="translate(34.696875 45.271219) scale(0.1 -0.1)">
       <use xlink:href="#DejaVuSans-31"/>
       <use xlink:href="#DejaVuSans-2e" x="63.623047"/>
       <use xlink:href="#DejaVuSans-30" x="95.410156"/>
      </g>
     </g>
    </g>
    <g id="text_15">
     <!-- CDF -->
     <g transform="translate(28.20125 186.788625) rotate(-90) scale(0.12 -0.12)">
      <defs>
       <path id="DejaVuSans-43" d="M 4122 4306 
L 4122 3641 
Q 3803 3938 3442 4084 
Q 3081 4231 2675 4231 
Q 1875 4231 1450 3742 
Q 1025 3253 1025 2328 
Q 1025 1406 1450 917 
Q 1875 428 2675 428 
Q 3081 428 3442 575 
Q 3803 722 4122 1019 
L 4122 359 
Q 3791 134 3420 21 
Q 3050 -91 2638 -91 
Q 1578 -91 968 557 
Q 359 1206 359 2328 
Q 359 3453 968 4101 
Q 1578 4750 2638 4750 
Q 3056 4750 3426 4639 
Q 3797 4528 4122 4306 
z
" transform="scale(0.015625)"/>
       <path id="DejaVuSans-44" d="M 1259 4147 
L 1259 519 
L 2022 519 
Q 2988 519 3436 956 
Q 3884 1394 3884 2338 
Q 3884 3275 3436 3711 
Q 2988 4147 2022 4147 
L 1259 4147 
z
M 628 4666 
L 1925 4666 
Q 3281 4666 3915 4102 
Q 4550 3538 4550 2338 
Q 4550 1131 3912 565 
Q 3275 0 1925 0 
L 628 0 
L 628 4666 
z
" transform="scale(0.015625)"/>
       <path id="DejaVuSans-46" d="M 628 4666 
L 3309 4666 
L 3309 4134 
L 1259 4134 
L 1259 2759 
L 3109 2759 
L 3109 2228 
L 1259 2228 
L 1259 0 
L 628 0 
L 628 4666 
z
" transform="scale(0.015625)"/>
      </defs>
      <use xlink:href="#DejaVuSans-43"/>
      <use xlink:href="#DejaVuSans-44" x="69.824219"/>
      <use xlink:href="#DejaVuSans-46" x="146.826172"/>
     </g>
    </g>
   </g>
   <g id="line2d_27">
    <path d="M 74.098558 307.584 
L 74.098558 305.1648 
L 74.589129 305.1648 
L 74.589129 302.7456 
L 74.789696 302.7456 
L 74.877175 297.9072 
L 75.080091 297.9072 
L 75.080091 295.488 
L 75.24588 295.488 
L 75.262124 290.6496 
L 75.508192 290.6496 
L 75.508192 288.2304 
L 75.822605 288.2304 
L 75.896117 283.392 
L 76.489491 283.392 
L 76.489491 280.9728 
L 76.602214 280.9728 
L 76.602214 278.5536 
L 76.760882 278.5536 
L 76.79679 273.7152 
L 76.891317 273.7152 
L 76.97644 266.4576 
L 77.278479 266.4576 
L 77.292334 261.6192 
L 78.684687 261.6192 
L 78.700089 256.7808 
L 79.012883 256.7808 
L 79.012883 254.3616 
L 79.337868 254.3616 
L 79.337868 251.9424 
L 80.379862 251.9424 
L 80.379862 249.5232 
L 81.005763 249.5232 
L 81.111959 242.2656 
L 81.157591 242.2656 
L 81.157591 239.8464 
L 81.276005 239.8464 
L 81.276005 237.4272 
L 81.804586 237.4272 
L 81.804586 235.008 
L 81.960434 235.008 
L 81.960434 232.5888 
L 82.440146 232.5888 
L 82.440146 230.1696 
L 82.631236 230.1696 
L 82.631236 227.7504 
L 82.746544 227.7504 
L 82.746544 225.3312 
L 82.944552 225.3312 
L 83.024121 220.4928 
L 83.573116 220.4928 
L 83.573116 218.0736 
L 84.105612 218.0736 
L 84.105612 215.6544 
L 85.36924 215.6544 
L 85.36924 213.2352 
L 88.692107 213.2352 
L 88.692107 210.816 
L 90.119546 210.816 
L 90.119546 208.3968 
L 91.734734 208.3968 
L 91.734734 205.9776 
L 92.370868 205.9776 
L 92.370868 203.5584 
L 92.905819 203.5584 
L 92.905819 201.1392 
L 93.470972 201.1392 
L 93.470972 198.72 
L 95.995591 198.72 
L 95.995591 196.3008 
L 96.383151 196.3008 
L 96.383151 193.8816 
L 97.271254 193.8816 
L 97.271254 191.4624 
L 97.862069 191.4624 
L 97.862069 189.0432 
L 99.653285 189.0432 
L 99.653285 186.624 
L 104.114553 186.624 
L 104.119618 181.7856 
L 105.122479 181.7856 
L 105.122479 179.3664 
L 108.273913 179.3664 
L 108.273913 176.9472 
L 108.901694 176.9472 
L 108.901694 174.528 
L 109.641414 174.528 
L 109.641414 172.1088 
L 110.569301 172.1088 
L 110.569301 169.6896 
L 110.839334 169.6896 
L 110.839334 167.2704 
L 111.07966 167.2704 
L 111.07966 164.8512 
L 112.717038 164.8512 
L 112.717038 162.432 
L 113.568071 162.432 
L 113.585822 157.5936 
L 113.792315 157.5936 
L 113.792315 155.1744 
L 114.788129 155.1744 
L 114.788129 152.7552 
L 115.999833 152.7552 
L 115.999833 150.336 
L 116.203298 150.336 
L 116.203298 147.9168 
L 116.667711 147.9168 
L 116.667711 145.4976 
L 117.839527 145.4976 
L 117.839527 143.0784 
L 118.401261 143.0784 
L 118.401261 140.6592 
L 119.098899 140.6592 
L 119.098899 138.24 
L 119.642934 138.24 
L 119.642934 135.8208 
L 120.912175 135.8208 
L 120.912175 133.4016 
L 121.461091 133.4016 
L 121.461091 130.9824 
L 123.359287 130.9824 
L 123.359287 128.5632 
L 124.977764 128.5632 
L 124.977764 126.144 
L 125.642823 126.144 
L 125.642823 123.7248 
L 129.475553 123.7248 
L 129.475553 121.3056 
L 131.338115 121.3056 
L 131.338115 118.8864 
L 133.25576 118.8864 
L 133.25576 116.4672 
L 135.36178 116.4672 
L 135.440409 111.6288 
L 145.412535 111.6288 
L 145.412535 109.2096 
L 147.524194 109.2096 
L 147.524194 106.7904 
L 153.571177 106.7904 
L 153.571177 104.3712 
L 161.381234 104.3712 
L 161.381234 101.952 
L 162.629329 101.952 
L 162.629329 99.5328 
L 162.845272 99.5328 
L 162.845272 97.1136 
L 164.203767 97.1136 
L 164.203767 94.6944 
L 164.365411 94.6944 
L 164.384102 89.856 
L 171.675056 89.856 
L 171.675056 87.4368 
L 177.588849 87.4368 
L 177.588849 85.0176 
L 178.309878 85.0176 
L 178.309878 82.5984 
L 187.821115 82.5984 
L 187.821115 80.1792 
L 187.942713 80.1792 
L 187.942713 77.76 
L 191.81682 77.76 
L 191.81682 75.3408 
L 192.67297 75.3408 
L 192.67297 72.9216 
L 196.842589 72.9216 
L 196.842589 70.5024 
L 207.312048 70.5024 
L 207.312048 68.0832 
L 210.535062 68.0832 
L 210.535062 65.664 
L 212.117253 65.664 
L 212.117253 63.2448 
L 213.631675 63.2448 
L 213.631675 60.8256 
L 220.54598 60.8256 
L 220.54598 58.4064 
L 225.720524 58.4064 
L 225.720524 55.9872 
L 226.563569 55.9872 
L 226.563569 53.568 
L 235.087111 53.568 
L 235.087111 51.1488 
L 243.924752 51.1488 
L 243.924752 48.7296 
L 273.711438 48.7296 
L 273.711438 46.3104 
L 300.1993 46.3104 
L 300.1993 43.8912 
L 398.487273 43.8912 
L 398.487273 41.472 
L 398.487273 41.472 
" clip-path="url(#p3cab01567b)" style="fill: none; stroke: #d62728; stroke-width: 1.5; stroke-linecap: square"/>
   </g>
   <g id="line2d_28">
    <path d="M 73.941613 307.584 
L 74.03473 302.7456 
L 74.468274 302.7456 
L 74.468274 300.3264 
L 74.710766 300.3264 
L 74.7768 295.488 
L 75.071503 295.488 
L 75.129352 290.6496 
L 75.349368 290.6496 
L 75.349368 288.2304 
L 75.515541 288.2304 
L 75.615329 280.9728 
L 75.902043 280.9728 
L 75.927692 273.7152 
L 76.105299 273.7152 
L 76.144066 268.8768 
L 76.217735 268.8768 
L 76.307407 261.6192 
L 76.34304 261.6192 
L 76.34304 259.2 
L 76.474298 259.2 
L 76.474298 256.7808 
L 76.861805 256.7808 
L 76.892714 249.5232 
L 78.037067 249.5232 
L 78.037067 247.104 
L 78.442534 247.104 
L 78.442534 244.6848 
L 78.568466 244.6848 
L 78.568466 242.2656 
L 78.917755 242.2656 
L 78.917755 239.8464 
L 79.088693 239.8464 
L 79.088693 237.4272 
L 79.806798 237.4272 
L 79.806798 235.008 
L 80.31888 235.008 
L 80.31888 232.5888 
L 80.732179 232.5888 
L 80.732179 230.1696 
L 81.26786 230.1696 
L 81.26786 227.7504 
L 81.558256 227.7504 
L 81.558256 225.3312 
L 82.068771 225.3312 
L 82.068771 222.912 
L 82.589103 222.912 
L 82.589103 220.4928 
L 83.916453 220.4928 
L 83.952661 215.6544 
L 84.720053 215.6544 
L 84.720053 213.2352 
L 85.463298 213.2352 
L 85.548166 208.3968 
L 85.854877 208.3968 
L 85.854877 205.9776 
L 86.584991 205.9776 
L 86.584991 203.5584 
L 86.866197 203.5584 
L 86.866197 201.1392 
L 87.656875 201.1392 
L 87.656875 198.72 
L 87.876917 198.72 
L 87.883991 193.8816 
L 88.636816 193.8816 
L 88.636816 191.4624 
L 89.513146 191.4624 
L 89.513146 189.0432 
L 90.25887 189.0432 
L 90.25887 186.624 
L 91.888834 186.624 
L 91.952975 181.7856 
L 92.46088 181.7856 
L 92.46088 179.3664 
L 93.267247 179.3664 
L 93.267247 176.9472 
L 95.242766 176.9472 
L 95.242766 174.528 
L 95.438034 174.528 
L 95.457979 169.6896 
L 97.031085 169.6896 
L 97.031085 167.2704 
L 97.686119 167.2704 
L 97.686119 164.8512 
L 98.159069 164.8512 
L 98.159069 162.432 
L 98.305181 162.432 
L 98.305181 160.0128 
L 101.614343 160.0128 
L 101.614343 157.5936 
L 103.27357 157.5936 
L 103.27357 155.1744 
L 103.777011 155.1744 
L 103.777011 152.7552 
L 104.601522 152.7552 
L 104.601522 150.336 
L 104.862836 150.336 
L 104.910713 145.4976 
L 111.487738 145.4976 
L 111.487738 143.0784 
L 111.70175 143.0784 
L 111.70175 140.6592 
L 112.986236 140.6592 
L 112.986236 138.24 
L 113.331243 138.24 
L 113.400631 133.4016 
L 113.827975 133.4016 
L 113.827975 130.9824 
L 116.280309 130.9824 
L 116.280309 128.5632 
L 116.51651 128.5632 
L 116.51651 126.144 
L 117.263122 126.144 
L 117.263122 123.7248 
L 119.619178 123.7248 
L 119.619178 121.3056 
L 122.805071 121.3056 
L 122.805071 118.8864 
L 123.333965 118.8864 
L 123.333965 116.4672 
L 125.511983 116.4672 
L 125.511983 114.048 
L 131.327412 114.048 
L 131.411367 109.2096 
L 132.332911 109.2096 
L 132.332911 106.7904 
L 132.576917 106.7904 
L 132.576917 104.3712 
L 132.757775 104.3712 
L 132.757775 101.952 
L 133.671617 101.952 
L 133.671617 99.5328 
L 135.365487 99.5328 
L 135.365487 97.1136 
L 136.114344 97.1136 
L 136.114344 94.6944 
L 142.351164 94.6944 
L 142.351164 92.2752 
L 148.390995 92.2752 
L 148.390995 89.856 
L 149.039137 89.856 
L 149.039137 87.4368 
L 149.617422 87.4368 
L 149.617422 85.0176 
L 150.140364 85.0176 
L 150.140364 82.5984 
L 150.798662 82.5984 
L 150.798662 80.1792 
L 159.010584 80.1792 
L 159.010584 77.76 
L 159.2979 77.76 
L 159.2979 75.3408 
L 161.821657 75.3408 
L 161.821657 72.9216 
L 162.04893 72.9216 
L 162.04893 70.5024 
L 169.543792 70.5024 
L 169.543792 68.0832 
L 183.150012 68.0832 
L 183.168182 63.2448 
L 195.169108 63.2448 
L 195.169108 60.8256 
L 217.371861 60.8256 
L 217.371861 58.4064 
L 233.506408 58.4064 
L 233.506408 55.9872 
L 269.971904 55.9872 
L 269.971904 53.568 
L 273.17842 53.568 
L 273.17842 51.1488 
L 295.916828 51.1488 
L 295.916828 48.7296 
L 302.229615 48.7296 
L 302.229615 46.3104 
L 312.206335 46.3104 
L 312.206335 43.8912 
L 318.450257 43.8912 
L 318.450257 41.472 
L 318.450257 41.472 
" clip-path="url(#p3cab01567b)" style="fill: none; stroke: #2ca02c; stroke-width: 1.5; stroke-linecap: square"/>
   </g>
   <g id="line2d_29">
    <path d="M 74.423151 307.584 
L 74.423151 305.1648 
L 75.720115 305.1648 
L 75.720115 302.7456 
L 76.216691 302.7456 
L 76.216691 300.3264 
L 76.520765 300.3264 
L 76.520765 297.9072 
L 76.850737 297.9072 
L 76.897935 293.0688 
L 77.195536 293.0688 
L 77.195536 290.6496 
L 78.136998 290.6496 
L 78.136998 288.2304 
L 78.442117 288.2304 
L 78.442117 285.8112 
L 78.633416 285.8112 
L 78.737054 280.9728 
L 78.945009 280.9728 
L 78.945009 278.5536 
L 79.12524 278.5536 
L 79.18805 271.296 
L 79.246735 271.296 
L 79.246735 268.8768 
L 79.489827 268.8768 
L 79.489827 266.4576 
L 79.640977 266.4576 
L 79.640977 264.0384 
L 79.901299 264.0384 
L 79.99319 259.2 
L 80.172886 259.2 
L 80.191408 254.3616 
L 80.409426 254.3616 
L 80.409426 251.9424 
L 80.580481 251.9424 
L 80.580481 249.5232 
L 80.894176 249.5232 
L 80.894176 247.104 
L 81.026008 247.104 
L 81.026008 244.6848 
L 81.495133 244.6848 
L 81.495133 242.2656 
L 82.707307 242.2656 
L 82.707307 239.8464 
L 83.435124 239.8464 
L 83.435124 237.4272 
L 84.219745 237.4272 
L 84.219745 235.008 
L 84.369172 235.008 
L 84.463007 230.1696 
L 84.905375 230.1696 
L 85.005345 225.3312 
L 85.159027 225.3312 
L 85.159027 222.912 
L 85.693468 222.912 
L 85.693468 220.4928 
L 86.066578 220.4928 
L 86.066578 218.0736 
L 86.511165 218.0736 
L 86.511165 215.6544 
L 86.795086 215.6544 
L 86.887656 210.816 
L 87.039328 210.816 
L 87.039328 208.3968 
L 87.559607 208.3968 
L 87.559607 205.9776 
L 89.218704 205.9776 
L 89.218704 203.5584 
L 90.008024 203.5584 
L 90.008024 201.1392 
L 91.046768 201.1392 
L 91.046768 198.72 
L 92.494033 198.72 
L 92.494033 196.3008 
L 93.072762 196.3008 
L 93.072762 193.8816 
L 93.834228 193.8816 
L 93.834228 191.4624 
L 95.94265 191.4624 
L 95.94265 189.0432 
L 96.06853 189.0432 
L 96.06853 186.624 
L 97.199464 186.624 
L 97.248594 181.7856 
L 99.159242 181.7856 
L 99.159242 179.3664 
L 100.31931 179.3664 
L 100.31931 176.9472 
L 102.233665 176.9472 
L 102.233665 174.528 
L 103.198988 174.528 
L 103.198988 172.1088 
L 103.883103 172.1088 
L 103.883103 169.6896 
L 104.214119 169.6896 
L 104.214119 167.2704 
L 105.308245 167.2704 
L 105.308245 164.8512 
L 108.941478 164.8512 
L 108.941478 162.432 
L 109.131734 162.432 
L 109.131734 160.0128 
L 110.313208 160.0128 
L 110.313208 157.5936 
L 112.384143 157.5936 
L 112.384143 155.1744 
L 113.5912 155.1744 
L 113.5912 152.7552 
L 114.867724 152.7552 
L 114.867724 150.336 
L 114.996267 150.336 
L 114.996267 147.9168 
L 117.082055 147.9168 
L 117.082055 145.4976 
L 118.721103 145.4976 
L 118.721103 143.0784 
L 119.943876 143.0784 
L 119.943876 140.6592 
L 121.240214 140.6592 
L 121.240214 138.24 
L 121.720343 138.24 
L 121.720343 135.8208 
L 126.195838 135.8208 
L 126.195838 133.4016 
L 129.178266 133.4016 
L 129.178266 130.9824 
L 129.499831 130.9824 
L 129.499831 128.5632 
L 131.833176 128.5632 
L 131.833176 126.144 
L 134.629421 126.144 
L 134.629421 123.7248 
L 135.362824 123.7248 
L 135.362824 121.3056 
L 137.074445 121.3056 
L 137.074445 118.8864 
L 137.960773 118.8864 
L 137.960773 116.4672 
L 140.285399 116.4672 
L 140.285399 114.048 
L 143.780979 114.048 
L 143.780979 111.6288 
L 145.334532 111.6288 
L 145.334532 109.2096 
L 146.015829 109.2096 
L 146.120981 104.3712 
L 146.232503 104.3712 
L 146.232503 101.952 
L 148.595556 101.952 
L 148.595556 99.5328 
L 153.784822 99.5328 
L 153.784822 97.1136 
L 155.23821 97.1136 
L 155.23821 94.6944 
L 156.072379 94.6944 
L 156.072379 92.2752 
L 164.00782 92.2752 
L 164.00782 89.856 
L 166.700323 89.856 
L 166.700323 87.4368 
L 170.28192 87.4368 
L 170.28192 85.0176 
L 174.9342 85.0176 
L 174.9342 82.5984 
L 175.112551 82.5984 
L 175.112551 80.1792 
L 175.487998 80.1792 
L 175.487998 77.76 
L 177.473203 77.76 
L 177.473203 75.3408 
L 178.254744 75.3408 
L 178.254744 72.9216 
L 183.163848 72.9216 
L 183.163848 70.5024 
L 206.854004 70.5024 
L 206.854004 68.0832 
L 222.466575 68.0832 
L 222.466575 65.664 
L 232.436847 65.664 
L 232.436847 63.2448 
L 233.176437 63.2448 
L 233.176437 60.8256 
L 233.707967 60.8256 
L 233.707967 58.4064 
L 245.045818 58.4064 
L 245.045818 55.9872 
L 246.216694 55.9872 
L 246.216694 53.568 
L 256.464544 53.568 
L 256.464544 51.1488 
L 266.062607 51.1488 
L 266.062607 48.7296 
L 267.348738 48.7296 
L 267.348738 46.3104 
L 272.584315 46.3104 
L 272.584315 43.8912 
L 297.440386 43.8912 
L 297.440386 41.472 
L 297.440386 41.472 
" clip-path="url(#p3cab01567b)" style="fill: none; stroke: #ff7f0e; stroke-width: 1.5; stroke-linecap: square"/>
   </g>
   <g id="line2d_30">
    <path d="M 73.832727 307.584 
L 73.878072 302.7456 
L 74.937543 302.7456 
L 74.937543 300.3264 
L 75.403745 300.3264 
L 75.403745 297.9072 
L 75.910528 297.9072 
L 75.998033 290.6496 
L 76.128142 290.6496 
L 76.128142 288.2304 
L 76.913207 288.2304 
L 76.913207 285.8112 
L 77.186712 285.8112 
L 77.186712 283.392 
L 77.321859 283.392 
L 77.321859 280.9728 
L 77.833471 280.9728 
L 77.833471 278.5536 
L 78.092123 278.5536 
L 78.092123 276.1344 
L 78.427602 276.1344 
L 78.427602 273.7152 
L 78.855886 273.7152 
L 78.855886 271.296 
L 79.043374 271.296 
L 79.072194 266.4576 
L 79.393349 266.4576 
L 79.459552 261.6192 
L 79.779335 261.6192 
L 79.779335 259.2 
L 80.110664 259.2 
L 80.110664 256.7808 
L 80.497754 256.7808 
L 80.545422 251.9424 
L 80.66441 251.9424 
L 80.774261 244.6848 
L 80.883381 244.6848 
L 80.883381 242.2656 
L 81.235176 242.2656 
L 81.235176 239.8464 
L 81.858363 239.8464 
L 81.858363 237.4272 
L 82.555009 237.4272 
L 82.630453 232.5888 
L 83.064298 232.5888 
L 83.064298 230.1696 
L 83.458096 230.1696 
L 83.458096 227.7504 
L 83.66485 227.7504 
L 83.66485 225.3312 
L 83.789216 225.3312 
L 83.789216 222.912 
L 88.840177 222.912 
L 88.840177 220.4928 
L 89.323543 220.4928 
L 89.323543 218.0736 
L 89.648345 218.0736 
L 89.648345 215.6544 
L 92.674943 215.6544 
L 92.674943 213.2352 
L 94.070794 213.2352 
L 94.070794 210.816 
L 95.626932 210.816 
L 95.626932 208.3968 
L 95.805075 208.3968 
L 95.805075 205.9776 
L 96.930109 205.9776 
L 96.937158 201.1392 
L 97.137125 201.1392 
L 97.137125 198.72 
L 97.609109 198.72 
L 97.609109 196.3008 
L 98.248323 196.3008 
L 98.248323 193.8816 
L 98.756228 193.8816 
L 98.773771 189.0432 
L 100.391674 189.0432 
L 100.391674 186.624 
L 103.052067 186.624 
L 103.052067 184.2048 
L 103.478158 184.2048 
L 103.478158 181.7856 
L 104.907789 181.7856 
L 104.907789 179.3664 
L 106.744089 179.3664 
L 106.744089 176.9472 
L 107.536177 176.9472 
L 107.536177 174.528 
L 108.942313 174.528 
L 108.942313 172.1088 
L 109.471573 172.1088 
L 109.471573 169.6896 
L 111.468212 169.6896 
L 111.468212 167.2704 
L 111.836975 167.2704 
L 111.836975 164.8512 
L 112.460892 164.8512 
L 112.460892 162.432 
L 116.876658 162.432 
L 116.876658 160.0128 
L 117.32875 160.0128 
L 117.32875 157.5936 
L 118.036361 157.5936 
L 118.036361 155.1744 
L 119.018025 155.1744 
L 119.018025 152.7552 
L 120.949714 152.7552 
L 120.949714 150.336 
L 121.484351 150.336 
L 121.484351 147.9168 
L 122.737197 147.9168 
L 122.737197 145.4976 
L 123.829339 145.4976 
L 123.829339 143.0784 
L 128.643368 143.0784 
L 128.643368 140.6592 
L 129.645708 140.6592 
L 129.645708 138.24 
L 136.534639 138.24 
L 136.534639 135.8208 
L 143.808207 135.8208 
L 143.808207 133.4016 
L 144.396673 133.4016 
L 144.396673 130.9824 
L 146.006431 130.9824 
L 146.006431 128.5632 
L 146.351439 128.5632 
L 146.351439 126.144 
L 154.376682 126.144 
L 154.376682 123.7248 
L 155.139166 123.7248 
L 155.139166 121.3056 
L 160.734318 121.3056 
L 160.734318 118.8864 
L 161.421828 118.8864 
L 161.50077 114.048 
L 163.244814 114.048 
L 163.244814 111.6288 
L 165.600401 111.6288 
L 165.600401 109.2096 
L 166.106897 109.2096 
L 166.106897 106.7904 
L 166.571154 106.7904 
L 166.571154 104.3712 
L 168.632847 104.3712 
L 168.632847 101.952 
L 172.359328 101.952 
L 172.359328 99.5328 
L 175.041597 99.5328 
L 175.041597 97.1136 
L 177.210844 97.1136 
L 177.210844 94.6944 
L 186.723256 94.6944 
L 186.723256 92.2752 
L 191.554932 92.2752 
L 191.554932 89.856 
L 194.954314 89.856 
L 194.954314 87.4368 
L 197.91664 87.4368 
L 197.968172 82.5984 
L 198.342314 82.5984 
L 198.342314 80.1792 
L 203.318822 80.1792 
L 203.318822 77.76 
L 203.600498 77.76 
L 203.600498 75.3408 
L 206.411623 75.3408 
L 206.411623 72.9216 
L 208.411812 72.9216 
L 208.411812 70.5024 
L 209.83309 70.5024 
L 209.847866 65.664 
L 212.984733 65.664 
L 212.984733 63.2448 
L 215.870884 63.2448 
L 215.870884 60.8256 
L 233.844237 60.8256 
L 233.844237 58.4064 
L 246.790123 58.4064 
L 246.790123 55.9872 
L 263.169016 55.9872 
L 263.169016 53.568 
L 279.3765 53.568 
L 279.3765 51.1488 
L 283.342942 51.1488 
L 283.342942 48.7296 
L 327.255684 48.7296 
L 327.255684 46.3104 
L 334.910807 46.3104 
L 334.910807 43.8912 
L 380.714722 43.8912 
L 380.714722 41.472 
L 380.714722 41.472 
" clip-path="url(#p3cab01567b)" style="fill: none; stroke: #1f77b4; stroke-width: 1.5; stroke-linecap: square"/>
   </g>
   <g id="line2d_31">
    <path d="M 179.113327 307.584 
L 179.113327 41.472 
" clip-path="url(#p3cab01567b)" style="fill: none; stroke-dasharray: 5.55,2.4; stroke-dashoffset: 0; stroke: #808080; stroke-opacity: 0.5; stroke-width: 1.5"/>
   </g>
   <g id="line2d_32">
    <path d="M 155.405044 307.584 
L 155.405044 41.472 
" clip-path="url(#p3cab01567b)" style="fill: none; stroke-dasharray: 5.55,2.4; stroke-dashoffset: 0; stroke: #808080; stroke-opacity: 0.5; stroke-width: 1.5"/>
   </g>
   <g id="line2d_33">
    <path d="M 137.361708 307.584 
L 137.361708 41.472 
" clip-path="url(#p3cab01567b)" style="fill: none; stroke-dasharray: 5.55,2.4; stroke-dashoffset: 0; stroke: #808080; stroke-opacity: 0.5; stroke-width: 1.5"/>
   </g>
   <g id="line2d_34">
    <path d="M 164.236096 307.584 
L 164.236096 41.472 
" clip-path="url(#p3cab01567b)" style="fill: none; stroke-dasharray: 5.55,2.4; stroke-dashoffset: 0; stroke: #808080; stroke-opacity: 0.5; stroke-width: 1.5"/>
   </g>
   <g id="patch_3">
    <path d="M 57.6 307.584 
L 57.6 41.472 
" style="fill: none; stroke: #000000; stroke-width: 0.8; stroke-linejoin: miter; stroke-linecap: square"/>
   </g>
   <g id="patch_4">
    <path d="M 414.72 307.584 
L 414.72 41.472 
" style="fill: none; stroke: #000000; stroke-width: 0.8; stroke-linejoin: miter; stroke-linecap: square"/>
   </g>
   <g id="patch_5">
    <path d="M 57.6 307.584 
L 414.72 307.584 
" style="fill: none; stroke: #000000; stroke-width: 0.8; stroke-linejoin: miter; stroke-linecap: square"/>
   </g>
   <g id="patch_6">
    <path d="M 57.6 41.472 
L 414.72 41.472 
" style="fill: none; stroke: #000000; stroke-width: 0.8; stroke-linejoin: miter; stroke-linecap: square"/>
   </g>
   <g id="text_16">
    <!-- 0.96 -->
    <g transform="translate(169.093795 307.584) scale(0.09 -0.09)">
     <defs>
      <path id="DejaVuSans-39" d="M 703 97 
L 703 672 
Q 941 559 1184 500 
Q 1428 441 1663 441 
Q 2288 441 2617 861 
Q 2947 1281 2994 2138 
Q 2813 1869 2534 1725 
Q 2256 1581 1919 1581 
Q 1219 1581 811 2004 
Q 403 2428 403 3163 
Q 403 3881 828 4315 
Q 1253 4750 1959 4750 
Q 2769 4750 3195 4129 
Q 3622 3509 3622 2328 
Q 3622 1225 3098 567 
Q 2575 -91 1691 -91 
Q 1453 -91 1209 -44 
Q 966 3 703 97 
z
M 1959 2075 
Q 2384 2075 2632 2365 
Q 2881 2656 2881 3163 
Q 2881 3666 2632 3958 
Q 2384 4250 1959 4250 
Q 1534 4250 1286 3958 
Q 1038 3666 1038 3163 
Q 1038 2656 1286 2365 
Q 1534 2075 1959 2075 
z
" transform="scale(0.015625)"/>
     </defs>
     <use xlink:href="#DejaVuSans-30"/>
     <use xlink:href="#DejaVuSans-2e" x="63.623047"/>
     <use xlink:href="#DejaVuSans-39" x="95.410156"/>
     <use xlink:href="#DejaVuSans-36" x="159.033203"/>
    </g>
   </g>
   <g id="text_17">
    <!-- 0.75 -->
    <g transform="translate(145.385512 296.93952) scale(0.09 -0.09)">
     <defs>
      <path id="DejaVuSans-37" d="M 525 4666 
L 3525 4666 
L 3525 4397 
L 1831 0 
L 1172 0 
L 2766 4134 
L 525 4134 
L 525 4666 
z
" transform="scale(0.015625)"/>
     </defs>
     <use xlink:href="#DejaVuSans-30"/>
     <use xlink:href="#DejaVuSans-2e" x="63.623047"/>
     <use xlink:href="#DejaVuSans-37" x="95.410156"/>
     <use xlink:href="#DejaVuSans-35" x="159.033203"/>
    </g>
   </g>
   <g id="text_18">
    <!-- 0.58 -->
    <g transform="translate(127.342177 286.29504) scale(0.09 -0.09)">
     <use xlink:href="#DejaVuSans-30"/>
     <use xlink:href="#DejaVuSans-2e" x="63.623047"/>
     <use xlink:href="#DejaVuSans-35" x="95.410156"/>
     <use xlink:href="#DejaVuSans-38" x="159.033203"/>
    </g>
   </g>
   <g id="text_19">
    <!-- 0.83 -->
    <g transform="translate(154.216565 275.65056) scale(0.09 -0.09)">
     <use xlink:href="#DejaVuSans-30"/>
     <use xlink:href="#DejaVuSans-2e" x="63.623047"/>
     <use xlink:href="#DejaVuSans-38" x="95.410156"/>
     <use xlink:href="#DejaVuSans-33" x="159.033203"/>
    </g>
   </g>
   <g id="legend_1">
    <g id="patch_7">
     <path d="M 247.043437 302.584 
L 407.72 302.584 
Q 409.72 302.584 409.72 300.584 
L 409.72 242.8715 
Q 409.72 240.8715 407.72 240.8715 
L 247.043437 240.8715 
Q 245.043437 240.8715 245.043437 242.8715 
L 245.043437 300.584 
Q 245.043437 302.584 247.043437 302.584 
z
" style="fill: #ffffff; opacity: 0.8; stroke: #cccccc; stroke-linejoin: miter"/>
    </g>
    <g id="line2d_35">
     <path d="M 249.043437 248.969937 
L 259.043437 248.969937 
L 259.043437 248.969937 
L 269.043437 248.969937 
L 269.043437 248.969937 
" style="fill: none; stroke: #1f77b4; stroke-width: 1.5; stroke-linecap: square"/>
    </g>
    <g id="text_20">
     <!-- Number of packets = 50 -->
     <g transform="translate(277.043437 252.469937) scale(0.1 -0.1)">
      <defs>
       <path id="DejaVuSans-4e" d="M 628 4666 
L 1478 4666 
L 3547 763 
L 3547 4666 
L 4159 4666 
L 4159 0 
L 3309 0 
L 1241 3903 
L 1241 0 
L 628 0 
L 628 4666 
z
" transform="scale(0.015625)"/>
       <path id="DejaVuSans-75" d="M 544 1381 
L 544 3500 
L 1119 3500 
L 1119 1403 
Q 1119 906 1312 657 
Q 1506 409 1894 409 
Q 2359 409 2629 706 
Q 2900 1003 2900 1516 
L 2900 3500 
L 3475 3500 
L 3475 0 
L 2900 0 
L 2900 538 
Q 2691 219 2414 64 
Q 2138 -91 1772 -91 
Q 1169 -91 856 284 
Q 544 659 544 1381 
z
M 1991 3584 
L 1991 3584 
z
" transform="scale(0.015625)"/>
       <path id="DejaVuSans-62" d="M 3116 1747 
Q 3116 2381 2855 2742 
Q 2594 3103 2138 3103 
Q 1681 3103 1420 2742 
Q 1159 2381 1159 1747 
Q 1159 1113 1420 752 
Q 1681 391 2138 391 
Q 2594 391 2855 752 
Q 3116 1113 3116 1747 
z
M 1159 2969 
Q 1341 3281 1617 3432 
Q 1894 3584 2278 3584 
Q 2916 3584 3314 3078 
Q 3713 2572 3713 1747 
Q 3713 922 3314 415 
Q 2916 -91 2278 -91 
Q 1894 -91 1617 61 
Q 1341 213 1159 525 
L 1159 0 
L 581 0 
L 581 4863 
L 1159 4863 
L 1159 2969 
z
" transform="scale(0.015625)"/>
       <path id="DejaVuSans-66" d="M 2375 4863 
L 2375 4384 
L 1825 4384 
Q 1516 4384 1395 4259 
Q 1275 4134 1275 3809 
L 1275 3500 
L 2222 3500 
L 2222 3053 
L 1275 3053 
L 1275 0 
L 697 0 
L 697 3053 
L 147 3053 
L 147 3500 
L 697 3500 
L 697 3744 
Q 697 4328 969 4595 
Q 1241 4863 1831 4863 
L 2375 4863 
z
" transform="scale(0.015625)"/>
       <path id="DejaVuSans-70" d="M 1159 525 
L 1159 -1331 
L 581 -1331 
L 581 3500 
L 1159 3500 
L 1159 2969 
Q 1341 3281 1617 3432 
Q 1894 3584 2278 3584 
Q 2916 3584 3314 3078 
Q 3713 2572 3713 1747 
Q 3713 922 3314 415 
Q 2916 -91 2278 -91 
Q 1894 -91 1617 61 
Q 1341 213 1159 525 
z
M 3116 1747 
Q 3116 2381 2855 2742 
Q 2594 3103 2138 3103 
Q 1681 3103 1420 2742 
Q 1159 2381 1159 1747 
Q 1159 1113 1420 752 
Q 1681 391 2138 391 
Q 2594 391 2855 752 
Q 3116 1113 3116 1747 
z
" transform="scale(0.015625)"/>
       <path id="DejaVuSans-61" d="M 2194 1759 
Q 1497 1759 1228 1600 
Q 959 1441 959 1056 
Q 959 750 1161 570 
Q 1363 391 1709 391 
Q 2188 391 2477 730 
Q 2766 1069 2766 1631 
L 2766 1759 
L 2194 1759 
z
M 3341 1997 
L 3341 0 
L 2766 0 
L 2766 531 
Q 2569 213 2275 61 
Q 1981 -91 1556 -91 
Q 1019 -91 701 211 
Q 384 513 384 1019 
Q 384 1609 779 1909 
Q 1175 2209 1959 2209 
L 2766 2209 
L 2766 2266 
Q 2766 2663 2505 2880 
Q 2244 3097 1772 3097 
Q 1472 3097 1187 3025 
Q 903 2953 641 2809 
L 641 3341 
Q 956 3463 1253 3523 
Q 1550 3584 1831 3584 
Q 2591 3584 2966 3190 
Q 3341 2797 3341 1997 
z
" transform="scale(0.015625)"/>
       <path id="DejaVuSans-6b" d="M 581 4863 
L 1159 4863 
L 1159 1991 
L 2875 3500 
L 3609 3500 
L 1753 1863 
L 3688 0 
L 2938 0 
L 1159 1709 
L 1159 0 
L 581 0 
L 581 4863 
z
" transform="scale(0.015625)"/>
       <path id="DejaVuSans-73" d="M 2834 3397 
L 2834 2853 
Q 2591 2978 2328 3040 
Q 2066 3103 1784 3103 
Q 1356 3103 1142 2972 
Q 928 2841 928 2578 
Q 928 2378 1081 2264 
Q 1234 2150 1697 2047 
L 1894 2003 
Q 2506 1872 2764 1633 
Q 3022 1394 3022 966 
Q 3022 478 2636 193 
Q 2250 -91 1575 -91 
Q 1294 -91 989 -36 
Q 684 19 347 128 
L 347 722 
Q 666 556 975 473 
Q 1284 391 1588 391 
Q 1994 391 2212 530 
Q 2431 669 2431 922 
Q 2431 1156 2273 1281 
Q 2116 1406 1581 1522 
L 1381 1569 
Q 847 1681 609 1914 
Q 372 2147 372 2553 
Q 372 3047 722 3315 
Q 1072 3584 1716 3584 
Q 2034 3584 2315 3537 
Q 2597 3491 2834 3397 
z
" transform="scale(0.015625)"/>
       <path id="DejaVuSans-3d" d="M 678 2906 
L 4684 2906 
L 4684 2381 
L 678 2381 
L 678 2906 
z
M 678 1631 
L 4684 1631 
L 4684 1100 
L 678 1100 
L 678 1631 
z
" transform="scale(0.015625)"/>
      </defs>
      <use xlink:href="#DejaVuSans-4e"/>
      <use xlink:href="#DejaVuSans-75" x="74.804688"/>
      <use xlink:href="#DejaVuSans-6d" x="138.183594"/>
      <use xlink:href="#DejaVuSans-62" x="235.595703"/>
      <use xlink:href="#DejaVuSans-65" x="299.072266"/>
      <use xlink:href="#DejaVuSans-72" x="360.595703"/>
      <use xlink:href="#DejaVuSans-20" x="401.708984"/>
      <use xlink:href="#DejaVuSans-6f" x="433.496094"/>
      <use xlink:href="#DejaVuSans-66" x="494.677734"/>
      <use xlink:href="#DejaVuSans-20" x="529.882812"/>
      <use xlink:href="#DejaVuSans-70" x="561.669922"/>
      <use xlink:href="#DejaVuSans-61" x="625.146484"/>
      <use xlink:href="#DejaVuSans-63" x="686.425781"/>
      <use xlink:href="#DejaVuSans-6b" x="741.40625"/>
      <use xlink:href="#DejaVuSans-65" x="795.691406"/>
      <use xlink:href="#DejaVuSans-74" x="857.214844"/>
      <use xlink:href="#DejaVuSans-73" x="896.423828"/>
      <use xlink:href="#DejaVuSans-20" x="948.523438"/>
      <use xlink:href="#DejaVuSans-3d" x="980.310547"/>
      <use xlink:href="#DejaVuSans-20" x="1064.099609"/>
      <use xlink:href="#DejaVuSans-35" x="1095.886719"/>
      <use xlink:href="#DejaVuSans-30" x="1159.509766"/>
     </g>
    </g>
    <g id="line2d_36">
     <path d="M 249.043437 263.648062 
L 259.043437 263.648062 
L 259.043437 263.648062 
L 269.043437 263.648062 
L 269.043437 263.648062 
" style="fill: none; stroke: #ff7f0e; stroke-width: 1.5; stroke-linecap: square"/>
    </g>
    <g id="text_21">
     <!-- Number of packets = 100 -->
     <g transform="translate(277.043437 267.148062) scale(0.1 -0.1)">
      <use xlink:href="#DejaVuSans-4e"/>
      <use xlink:href="#DejaVuSans-75" x="74.804688"/>
      <use xlink:href="#DejaVuSans-6d" x="138.183594"/>
      <use xlink:href="#DejaVuSans-62" x="235.595703"/>
      <use xlink:href="#DejaVuSans-65" x="299.072266"/>
      <use xlink:href="#DejaVuSans-72" x="360.595703"/>
      <use xlink:href="#DejaVuSans-20" x="401.708984"/>
      <use xlink:href="#DejaVuSans-6f" x="433.496094"/>
      <use xlink:href="#DejaVuSans-66" x="494.677734"/>
      <use xlink:href="#DejaVuSans-20" x="529.882812"/>
      <use xlink:href="#DejaVuSans-70" x="561.669922"/>
      <use xlink:href="#DejaVuSans-61" x="625.146484"/>
      <use xlink:href="#DejaVuSans-63" x="686.425781"/>
      <use xlink:href="#DejaVuSans-6b" x="741.40625"/>
      <use xlink:href="#DejaVuSans-65" x="795.691406"/>
      <use xlink:href="#DejaVuSans-74" x="857.214844"/>
      <use xlink:href="#DejaVuSans-73" x="896.423828"/>
      <use xlink:href="#DejaVuSans-20" x="948.523438"/>
      <use xlink:href="#DejaVuSans-3d" x="980.310547"/>
      <use xlink:href="#DejaVuSans-20" x="1064.099609"/>
      <use xlink:href="#DejaVuSans-31" x="1095.886719"/>
      <use xlink:href="#DejaVuSans-30" x="1159.509766"/>
      <use xlink:href="#DejaVuSans-30" x="1223.132812"/>
     </g>
    </g>
    <g id="line2d_37">
     <path d="M 249.043437 278.326187 
L 259.043437 278.326187 
L 259.043437 278.326187 
L 269.043437 278.326187 
L 269.043437 278.326187 
" style="fill: none; stroke: #2ca02c; stroke-width: 1.5; stroke-linecap: square"/>
    </g>
    <g id="text_22">
     <!-- Number of packets = 200 -->
     <g transform="translate(277.043437 281.826187) scale(0.1 -0.1)">
      <use xlink:href="#DejaVuSans-4e"/>
      <use xlink:href="#DejaVuSans-75" x="74.804688"/>
      <use xlink:href="#DejaVuSans-6d" x="138.183594"/>
      <use xlink:href="#DejaVuSans-62" x="235.595703"/>
      <use xlink:href="#DejaVuSans-65" x="299.072266"/>
      <use xlink:href="#DejaVuSans-72" x="360.595703"/>
      <use xlink:href="#DejaVuSans-20" x="401.708984"/>
      <use xlink:href="#DejaVuSans-6f" x="433.496094"/>
      <use xlink:href="#DejaVuSans-66" x="494.677734"/>
      <use xlink:href="#DejaVuSans-20" x="529.882812"/>
      <use xlink:href="#DejaVuSans-70" x="561.669922"/>
      <use xlink:href="#DejaVuSans-61" x="625.146484"/>
      <use xlink:href="#DejaVuSans-63" x="686.425781"/>
      <use xlink:href="#DejaVuSans-6b" x="741.40625"/>
      <use xlink:href="#DejaVuSans-65" x="795.691406"/>
      <use xlink:href="#DejaVuSans-74" x="857.214844"/>
      <use xlink:href="#DejaVuSans-73" x="896.423828"/>
      <use xlink:href="#DejaVuSans-20" x="948.523438"/>
      <use xlink:href="#DejaVuSans-3d" x="980.310547"/>
      <use xlink:href="#DejaVuSans-20" x="1064.099609"/>
      <use xlink:href="#DejaVuSans-32" x="1095.886719"/>
      <use xlink:href="#DejaVuSans-30" x="1159.509766"/>
      <use xlink:href="#DejaVuSans-30" x="1223.132812"/>
     </g>
    </g>
    <g id="line2d_38">
     <path d="M 249.043437 293.004312 
L 259.043437 293.004312 
L 259.043437 293.004312 
L 269.043437 293.004312 
L 269.043437 293.004312 
" style="fill: none; stroke: #d62728; stroke-width: 1.5; stroke-linecap: square"/>
    </g>
    <g id="text_23">
     <!-- Number of packets = 300 -->
     <g transform="translate(277.043437 296.504312) scale(0.1 -0.1)">
      <use xlink:href="#DejaVuSans-4e"/>
      <use xlink:href="#DejaVuSans-75" x="74.804688"/>
      <use xlink:href="#DejaVuSans-6d" x="138.183594"/>
      <use xlink:href="#DejaVuSans-62" x="235.595703"/>
      <use xlink:href="#DejaVuSans-65" x="299.072266"/>
      <use xlink:href="#DejaVuSans-72" x="360.595703"/>
      <use xlink:href="#DejaVuSans-20" x="401.708984"/>
      <use xlink:href="#DejaVuSans-6f" x="433.496094"/>
      <use xlink:href="#DejaVuSans-66" x="494.677734"/>
      <use xlink:href="#DejaVuSans-20" x="529.882812"/>
      <use xlink:href="#DejaVuSans-70" x="561.669922"/>
      <use xlink:href="#DejaVuSans-61" x="625.146484"/>
      <use xlink:href="#DejaVuSans-63" x="686.425781"/>
      <use xlink:href="#DejaVuSans-6b" x="741.40625"/>
      <use xlink:href="#DejaVuSans-65" x="795.691406"/>
      <use xlink:href="#DejaVuSans-74" x="857.214844"/>
      <use xlink:href="#DejaVuSans-73" x="896.423828"/>
      <use xlink:href="#DejaVuSans-20" x="948.523438"/>
      <use xlink:href="#DejaVuSans-3d" x="980.310547"/>
      <use xlink:href="#DejaVuSans-20" x="1064.099609"/>
      <use xlink:href="#DejaVuSans-33" x="1095.886719"/>
      <use xlink:href="#DejaVuSans-30" x="1159.509766"/>
      <use xlink:href="#DejaVuSans-30" x="1223.132812"/>
     </g>
    </g>
   </g>
  </g>
 </g>
 <defs>
  <clipPath id="p3cab01567b">
   <rect x="57.6" y="41.472" width="357.12" height="266.112"/>
  </clipPath>
 </defs>
</svg>
