<?xml version="1.0" encoding="utf-8" standalone="no"?>
<!DOCTYPE svg PUBLIC "-//W3C//DTD SVG 1.1//EN"
  "http://www.w3.org/Graphics/SVG/1.1/DTD/svg11.dtd">
<svg xmlns:xlink="http://www.w3.org/1999/xlink" width="460.8pt" height="345.6pt" viewBox="0 0 460.8 345.6" xmlns="http://www.w3.org/2000/svg" version="1.1">
 <metadata>
  <rdf:RDF xmlns:dc="http://purl.org/dc/elements/1.1/" xmlns:cc="http://creativecommons.org/ns#" xmlns:rdf="http://www.w3.org/1999/02/22-rdf-syntax-ns#">
   <cc:Work>
    <dc:type rdf:resource="http://purl.org/dc/dcmitype/StillImage"/>
    <dc:date>2024-10-20T14:45:07.608165</dc:date>
    <dc:format>image/svg+xml</dc:format>
    <dc:creator>
     <cc:Agent>
      <dc:title>Matplotlib v3.8.0, https://matplotlib.org/</dc:title>
     </cc:Agent>
    </dc:creator>
   </cc:Work>
  </rdf:RDF>
 </metadata>
 <defs>
  <style type="text/css">*{stroke-linejoin: round; stroke-linecap: butt}</style>
 </defs>
 <g id="figure_1">
  <g id="patch_1">
   <path d="M 0 345.6 
L 460.8 345.6 
L 460.8 0 
L 0 0 
z
" style="fill: #ffffff"/>
  </g>
  <g id="axes_1">
   <g id="patch_2">
    <path d="M 57.6 307.584 
L 414.72 307.584 
L 414.72 41.472 
L 57.6 41.472 
z
" style="fill: #ffffff"/>
   </g>
   <g id="matplotlib.axis_1">
    <g id="xtick_1">
     <g id="line2d_1">
      <path d="M 73.773646 307.584 
L 73.773646 41.472 
" clip-path="url(#p8d384dbd34)" style="fill: none; stroke: #b0b0b0; stroke-width: 0.8; stroke-linecap: square"/>
     </g>
     <g id="line2d_2">
      <defs>
       <path id="m3e2999aafd" d="M 0 0 
L 0 3.5 
" style="stroke: #000000; stroke-width: 0.8"/>
      </defs>
      <g>
       <use xlink:href="#m3e2999aafd" x="73.773646" y="307.584" style="stroke: #000000; stroke-width: 0.8"/>
      </g>
     </g>
     <g id="text_1">
      <!-- 0.0 -->
      <g transform="translate(65.822083 322.182437) scale(0.1 -0.1)">
       <defs>
        <path id="DejaVuSans-30" d="M 2034 4250 
Q 1547 4250 1301 3770 
Q 1056 3291 1056 2328 
Q 1056 1369 1301 889 
Q 1547 409 2034 409 
Q 2525 409 2770 889 
Q 3016 1369 3016 2328 
Q 3016 3291 2770 3770 
Q 2525 4250 2034 4250 
z
M 2034 4750 
Q 2819 4750 3233 4129 
Q 3647 3509 3647 2328 
Q 3647 1150 3233 529 
Q 2819 -91 2034 -91 
Q 1250 -91 836 529 
Q 422 1150 422 2328 
Q 422 3509 836 4129 
Q 1250 4750 2034 4750 
z
" transform="scale(0.015625)"/>
        <path id="DejaVuSans-2e" d="M 684 794 
L 1344 794 
L 1344 0 
L 684 0 
L 684 794 
z
" transform="scale(0.015625)"/>
       </defs>
       <use xlink:href="#DejaVuSans-30"/>
       <use xlink:href="#DejaVuSans-2e" x="63.623047"/>
       <use xlink:href="#DejaVuSans-30" x="95.410156"/>
      </g>
     </g>
    </g>
    <g id="xtick_2">
     <g id="line2d_3">
      <path d="M 125.314163 307.584 
L 125.314163 41.472 
" clip-path="url(#p8d384dbd34)" style="fill: none; stroke: #b0b0b0; stroke-width: 0.8; stroke-linecap: square"/>
     </g>
     <g id="line2d_4">
      <g>
       <use xlink:href="#m3e2999aafd" x="125.314163" y="307.584" style="stroke: #000000; stroke-width: 0.8"/>
      </g>
     </g>
     <g id="text_2">
      <!-- 0.5 -->
      <g transform="translate(117.362601 322.182437) scale(0.1 -0.1)">
       <defs>
        <path id="DejaVuSans-35" d="M 691 4666 
L 3169 4666 
L 3169 4134 
L 1269 4134 
L 1269 2991 
Q 1406 3038 1543 3061 
Q 1681 3084 1819 3084 
Q 2600 3084 3056 2656 
Q 3513 2228 3513 1497 
Q 3513 744 3044 326 
Q 2575 -91 1722 -91 
Q 1428 -91 1123 -41 
Q 819 9 494 109 
L 494 744 
Q 775 591 1075 516 
Q 1375 441 1709 441 
Q 2250 441 2565 725 
Q 2881 1009 2881 1497 
Q 2881 1984 2565 2268 
Q 2250 2553 1709 2553 
Q 1456 2553 1204 2497 
Q 953 2441 691 2322 
L 691 4666 
z
" transform="scale(0.015625)"/>
       </defs>
       <use xlink:href="#DejaVuSans-30"/>
       <use xlink:href="#DejaVuSans-2e" x="63.623047"/>
       <use xlink:href="#DejaVuSans-35" x="95.410156"/>
      </g>
     </g>
    </g>
    <g id="xtick_3">
     <g id="line2d_5">
      <path d="M 176.854681 307.584 
L 176.854681 41.472 
" clip-path="url(#p8d384dbd34)" style="fill: none; stroke: #b0b0b0; stroke-width: 0.8; stroke-linecap: square"/>
     </g>
     <g id="line2d_6">
      <g>
       <use xlink:href="#m3e2999aafd" x="176.854681" y="307.584" style="stroke: #000000; stroke-width: 0.8"/>
      </g>
     </g>
     <g id="text_3">
      <!-- 1.0 -->
      <g transform="translate(168.903118 322.182437) scale(0.1 -0.1)">
       <defs>
        <path id="DejaVuSans-31" d="M 794 531 
L 1825 531 
L 1825 4091 
L 703 3866 
L 703 4441 
L 1819 4666 
L 2450 4666 
L 2450 531 
L 3481 531 
L 3481 0 
L 794 0 
L 794 531 
z
" transform="scale(0.015625)"/>
       </defs>
       <use xlink:href="#DejaVuSans-31"/>
       <use xlink:href="#DejaVuSans-2e" x="63.623047"/>
       <use xlink:href="#DejaVuSans-30" x="95.410156"/>
      </g>
     </g>
    </g>
    <g id="xtick_4">
     <g id="line2d_7">
      <path d="M 228.395199 307.584 
L 228.395199 41.472 
" clip-path="url(#p8d384dbd34)" style="fill: none; stroke: #b0b0b0; stroke-width: 0.8; stroke-linecap: square"/>
     </g>
     <g id="line2d_8">
      <g>
       <use xlink:href="#m3e2999aafd" x="228.395199" y="307.584" style="stroke: #000000; stroke-width: 0.8"/>
      </g>
     </g>
     <g id="text_4">
      <!-- 1.5 -->
      <g transform="translate(220.443636 322.182437) scale(0.1 -0.1)">
       <use xlink:href="#DejaVuSans-31"/>
       <use xlink:href="#DejaVuSans-2e" x="63.623047"/>
       <use xlink:href="#DejaVuSans-35" x="95.410156"/>
      </g>
     </g>
    </g>
    <g id="xtick_5">
     <g id="line2d_9">
      <path d="M 279.935716 307.584 
L 279.935716 41.472 
" clip-path="url(#p8d384dbd34)" style="fill: none; stroke: #b0b0b0; stroke-width: 0.8; stroke-linecap: square"/>
     </g>
     <g id="line2d_10">
      <g>
       <use xlink:href="#m3e2999aafd" x="279.935716" y="307.584" style="stroke: #000000; stroke-width: 0.8"/>
      </g>
     </g>
     <g id="text_5">
      <!-- 2.0 -->
      <g transform="translate(271.984154 322.182437) scale(0.1 -0.1)">
       <defs>
        <path id="DejaVuSans-32" d="M 1228 531 
L 3431 531 
L 3431 0 
L 469 0 
L 469 531 
Q 828 903 1448 1529 
Q 2069 2156 2228 2338 
Q 2531 2678 2651 2914 
Q 2772 3150 2772 3378 
Q 2772 3750 2511 3984 
Q 2250 4219 1831 4219 
Q 1534 4219 1204 4116 
Q 875 4013 500 3803 
L 500 4441 
Q 881 4594 1212 4672 
Q 1544 4750 1819 4750 
Q 2544 4750 2975 4387 
Q 3406 4025 3406 3419 
Q 3406 3131 3298 2873 
Q 3191 2616 2906 2266 
Q 2828 2175 2409 1742 
Q 1991 1309 1228 531 
z
" transform="scale(0.015625)"/>
       </defs>
       <use xlink:href="#DejaVuSans-32"/>
       <use xlink:href="#DejaVuSans-2e" x="63.623047"/>
       <use xlink:href="#DejaVuSans-30" x="95.410156"/>
      </g>
     </g>
    </g>
    <g id="xtick_6">
     <g id="line2d_11">
      <path d="M 331.476234 307.584 
L 331.476234 41.472 
" clip-path="url(#p8d384dbd34)" style="fill: none; stroke: #b0b0b0; stroke-width: 0.8; stroke-linecap: square"/>
     </g>
     <g id="line2d_12">
      <g>
       <use xlink:href="#m3e2999aafd" x="331.476234" y="307.584" style="stroke: #000000; stroke-width: 0.8"/>
      </g>
     </g>
     <g id="text_6">
      <!-- 2.5 -->
      <g transform="translate(323.524671 322.182437) scale(0.1 -0.1)">
       <use xlink:href="#DejaVuSans-32"/>
       <use xlink:href="#DejaVuSans-2e" x="63.623047"/>
       <use xlink:href="#DejaVuSans-35" x="95.410156"/>
      </g>
     </g>
    </g>
    <g id="xtick_7">
     <g id="line2d_13">
      <path d="M 383.016752 307.584 
L 383.016752 41.472 
" clip-path="url(#p8d384dbd34)" style="fill: none; stroke: #b0b0b0; stroke-width: 0.8; stroke-linecap: square"/>
     </g>
     <g id="line2d_14">
      <g>
       <use xlink:href="#m3e2999aafd" x="383.016752" y="307.584" style="stroke: #000000; stroke-width: 0.8"/>
      </g>
     </g>
     <g id="text_7">
      <!-- 3.0 -->
      <g transform="translate(375.065189 322.182437) scale(0.1 -0.1)">
       <defs>
        <path id="DejaVuSans-33" d="M 2597 2516 
Q 3050 2419 3304 2112 
Q 3559 1806 3559 1356 
Q 3559 666 3084 287 
Q 2609 -91 1734 -91 
Q 1441 -91 1130 -33 
Q 819 25 488 141 
L 488 750 
Q 750 597 1062 519 
Q 1375 441 1716 441 
Q 2309 441 2620 675 
Q 2931 909 2931 1356 
Q 2931 1769 2642 2001 
Q 2353 2234 1838 2234 
L 1294 2234 
L 1294 2753 
L 1863 2753 
Q 2328 2753 2575 2939 
Q 2822 3125 2822 3475 
Q 2822 3834 2567 4026 
Q 2313 4219 1838 4219 
Q 1578 4219 1281 4162 
Q 984 4106 628 3988 
L 628 4550 
Q 988 4650 1302 4700 
Q 1616 4750 1894 4750 
Q 2613 4750 3031 4423 
Q 3450 4097 3450 3541 
Q 3450 3153 3228 2886 
Q 3006 2619 2597 2516 
z
" transform="scale(0.015625)"/>
       </defs>
       <use xlink:href="#DejaVuSans-33"/>
       <use xlink:href="#DejaVuSans-2e" x="63.623047"/>
       <use xlink:href="#DejaVuSans-30" x="95.410156"/>
      </g>
     </g>
    </g>
    <g id="text_8">
     <!-- Estimation Error(m) -->
     <g transform="translate(186.988906 335.860562) scale(0.1 -0.1)">
      <defs>
       <path id="DejaVuSans-45" d="M 628 4666 
L 3578 4666 
L 3578 4134 
L 1259 4134 
L 1259 2753 
L 3481 2753 
L 3481 2222 
L 1259 2222 
L 1259 531 
L 3634 531 
L 3634 0 
L 628 0 
L 628 4666 
z
" transform="scale(0.015625)"/>
       <path id="DejaVuSans-73" d="M 2834 3397 
L 2834 2853 
Q 2591 2978 2328 3040 
Q 2066 3103 1784 3103 
Q 1356 3103 1142 2972 
Q 928 2841 928 2578 
Q 928 2378 1081 2264 
Q 1234 2150 1697 2047 
L 1894 2003 
Q 2506 1872 2764 1633 
Q 3022 1394 3022 966 
Q 3022 478 2636 193 
Q 2250 -91 1575 -91 
Q 1294 -91 989 -36 
Q 684 19 347 128 
L 347 722 
Q 666 556 975 473 
Q 1284 391 1588 391 
Q 1994 391 2212 530 
Q 2431 669 2431 922 
Q 2431 1156 2273 1281 
Q 2116 1406 1581 1522 
L 1381 1569 
Q 847 1681 609 1914 
Q 372 2147 372 2553 
Q 372 3047 722 3315 
Q 1072 3584 1716 3584 
Q 2034 3584 2315 3537 
Q 2597 3491 2834 3397 
z
" transform="scale(0.015625)"/>
       <path id="DejaVuSans-74" d="M 1172 4494 
L 1172 3500 
L 2356 3500 
L 2356 3053 
L 1172 3053 
L 1172 1153 
Q 1172 725 1289 603 
Q 1406 481 1766 481 
L 2356 481 
L 2356 0 
L 1766 0 
Q 1100 0 847 248 
Q 594 497 594 1153 
L 594 3053 
L 172 3053 
L 172 3500 
L 594 3500 
L 594 4494 
L 1172 4494 
z
" transform="scale(0.015625)"/>
       <path id="DejaVuSans-69" d="M 603 3500 
L 1178 3500 
L 1178 0 
L 603 0 
L 603 3500 
z
M 603 4863 
L 1178 4863 
L 1178 4134 
L 603 4134 
L 603 4863 
z
" transform="scale(0.015625)"/>
       <path id="DejaVuSans-6d" d="M 3328 2828 
Q 3544 3216 3844 3400 
Q 4144 3584 4550 3584 
Q 5097 3584 5394 3201 
Q 5691 2819 5691 2113 
L 5691 0 
L 5113 0 
L 5113 2094 
Q 5113 2597 4934 2840 
Q 4756 3084 4391 3084 
Q 3944 3084 3684 2787 
Q 3425 2491 3425 1978 
L 3425 0 
L 2847 0 
L 2847 2094 
Q 2847 2600 2669 2842 
Q 2491 3084 2119 3084 
Q 1678 3084 1418 2786 
Q 1159 2488 1159 1978 
L 1159 0 
L 581 0 
L 581 3500 
L 1159 3500 
L 1159 2956 
Q 1356 3278 1631 3431 
Q 1906 3584 2284 3584 
Q 2666 3584 2933 3390 
Q 3200 3197 3328 2828 
z
" transform="scale(0.015625)"/>
       <path id="DejaVuSans-61" d="M 2194 1759 
Q 1497 1759 1228 1600 
Q 959 1441 959 1056 
Q 959 750 1161 570 
Q 1363 391 1709 391 
Q 2188 391 2477 730 
Q 2766 1069 2766 1631 
L 2766 1759 
L 2194 1759 
z
M 3341 1997 
L 3341 0 
L 2766 0 
L 2766 531 
Q 2569 213 2275 61 
Q 1981 -91 1556 -91 
Q 1019 -91 701 211 
Q 384 513 384 1019 
Q 384 1609 779 1909 
Q 1175 2209 1959 2209 
L 2766 2209 
L 2766 2266 
Q 2766 2663 2505 2880 
Q 2244 3097 1772 3097 
Q 1472 3097 1187 3025 
Q 903 2953 641 2809 
L 641 3341 
Q 956 3463 1253 3523 
Q 1550 3584 1831 3584 
Q 2591 3584 2966 3190 
Q 3341 2797 3341 1997 
z
" transform="scale(0.015625)"/>
       <path id="DejaVuSans-6f" d="M 1959 3097 
Q 1497 3097 1228 2736 
Q 959 2375 959 1747 
Q 959 1119 1226 758 
Q 1494 397 1959 397 
Q 2419 397 2687 759 
Q 2956 1122 2956 1747 
Q 2956 2369 2687 2733 
Q 2419 3097 1959 3097 
z
M 1959 3584 
Q 2709 3584 3137 3096 
Q 3566 2609 3566 1747 
Q 3566 888 3137 398 
Q 2709 -91 1959 -91 
Q 1206 -91 779 398 
Q 353 888 353 1747 
Q 353 2609 779 3096 
Q 1206 3584 1959 3584 
z
" transform="scale(0.015625)"/>
       <path id="DejaVuSans-6e" d="M 3513 2113 
L 3513 0 
L 2938 0 
L 2938 2094 
Q 2938 2591 2744 2837 
Q 2550 3084 2163 3084 
Q 1697 3084 1428 2787 
Q 1159 2491 1159 1978 
L 1159 0 
L 581 0 
L 581 3500 
L 1159 3500 
L 1159 2956 
Q 1366 3272 1645 3428 
Q 1925 3584 2291 3584 
Q 2894 3584 3203 3211 
Q 3513 2838 3513 2113 
z
" transform="scale(0.015625)"/>
       <path id="DejaVuSans-20" transform="scale(0.015625)"/>
       <path id="DejaVuSans-72" d="M 2631 2963 
Q 2534 3019 2420 3045 
Q 2306 3072 2169 3072 
Q 1681 3072 1420 2755 
Q 1159 2438 1159 1844 
L 1159 0 
L 581 0 
L 581 3500 
L 1159 3500 
L 1159 2956 
Q 1341 3275 1631 3429 
Q 1922 3584 2338 3584 
Q 2397 3584 2469 3576 
Q 2541 3569 2628 3553 
L 2631 2963 
z
" transform="scale(0.015625)"/>
       <path id="DejaVuSans-28" d="M 1984 4856 
Q 1566 4138 1362 3434 
Q 1159 2731 1159 2009 
Q 1159 1288 1364 580 
Q 1569 -128 1984 -844 
L 1484 -844 
Q 1016 -109 783 600 
Q 550 1309 550 2009 
Q 550 2706 781 3412 
Q 1013 4119 1484 4856 
L 1984 4856 
z
" transform="scale(0.015625)"/>
       <path id="DejaVuSans-29" d="M 513 4856 
L 1013 4856 
Q 1481 4119 1714 3412 
Q 1947 2706 1947 2009 
Q 1947 1309 1714 600 
Q 1481 -109 1013 -844 
L 513 -844 
Q 928 -128 1133 580 
Q 1338 1288 1338 2009 
Q 1338 2731 1133 3434 
Q 928 4138 513 4856 
z
" transform="scale(0.015625)"/>
      </defs>
      <use xlink:href="#DejaVuSans-45"/>
      <use xlink:href="#DejaVuSans-73" x="63.183594"/>
      <use xlink:href="#DejaVuSans-74" x="115.283203"/>
      <use xlink:href="#DejaVuSans-69" x="154.492188"/>
      <use xlink:href="#DejaVuSans-6d" x="182.275391"/>
      <use xlink:href="#DejaVuSans-61" x="279.6875"/>
      <use xlink:href="#DejaVuSans-74" x="340.966797"/>
      <use xlink:href="#DejaVuSans-69" x="380.175781"/>
      <use xlink:href="#DejaVuSans-6f" x="407.958984"/>
      <use xlink:href="#DejaVuSans-6e" x="469.140625"/>
      <use xlink:href="#DejaVuSans-20" x="532.519531"/>
      <use xlink:href="#DejaVuSans-45" x="564.306641"/>
      <use xlink:href="#DejaVuSans-72" x="627.490234"/>
      <use xlink:href="#DejaVuSans-72" x="666.853516"/>
      <use xlink:href="#DejaVuSans-6f" x="705.716797"/>
      <use xlink:href="#DejaVuSans-72" x="766.898438"/>
      <use xlink:href="#DejaVuSans-28" x="808.011719"/>
      <use xlink:href="#DejaVuSans-6d" x="847.025391"/>
      <use xlink:href="#DejaVuSans-29" x="944.4375"/>
     </g>
    </g>
   </g>
   <g id="matplotlib.axis_2">
    <g id="ytick_1">
     <g id="line2d_15">
      <path d="M 57.6 307.584 
L 414.72 307.584 
" clip-path="url(#p8d384dbd34)" style="fill: none; stroke: #b0b0b0; stroke-width: 0.8; stroke-linecap: square"/>
     </g>
     <g id="line2d_16">
      <defs>
       <path id="mc457389083" d="M 0 0 
L -3.5 0 
" style="stroke: #000000; stroke-width: 0.8"/>
      </defs>
      <g>
       <use xlink:href="#mc457389083" x="57.6" y="307.584" style="stroke: #000000; stroke-width: 0.8"/>
      </g>
     </g>
     <g id="text_9">
      <!-- 0.0 -->
      <g transform="translate(34.696875 311.383219) scale(0.1 -0.1)">
       <use xlink:href="#DejaVuSans-30"/>
       <use xlink:href="#DejaVuSans-2e" x="63.623047"/>
       <use xlink:href="#DejaVuSans-30" x="95.410156"/>
      </g>
     </g>
    </g>
    <g id="ytick_2">
     <g id="line2d_17">
      <path d="M 57.6 254.3616 
L 414.72 254.3616 
" clip-path="url(#p8d384dbd34)" style="fill: none; stroke: #b0b0b0; stroke-width: 0.8; stroke-linecap: square"/>
     </g>
     <g id="line2d_18">
      <g>
       <use xlink:href="#mc457389083" x="57.6" y="254.3616" style="stroke: #000000; stroke-width: 0.8"/>
      </g>
     </g>
     <g id="text_10">
      <!-- 0.2 -->
      <g transform="translate(34.696875 258.160819) scale(0.1 -0.1)">
       <use xlink:href="#DejaVuSans-30"/>
       <use xlink:href="#DejaVuSans-2e" x="63.623047"/>
       <use xlink:href="#DejaVuSans-32" x="95.410156"/>
      </g>
     </g>
    </g>
    <g id="ytick_3">
     <g id="line2d_19">
      <path d="M 57.6 201.1392 
L 414.72 201.1392 
" clip-path="url(#p8d384dbd34)" style="fill: none; stroke: #b0b0b0; stroke-width: 0.8; stroke-linecap: square"/>
     </g>
     <g id="line2d_20">
      <g>
       <use xlink:href="#mc457389083" x="57.6" y="201.1392" style="stroke: #000000; stroke-width: 0.8"/>
      </g>
     </g>
     <g id="text_11">
      <!-- 0.4 -->
      <g transform="translate(34.696875 204.938419) scale(0.1 -0.1)">
       <defs>
        <path id="DejaVuSans-34" d="M 2419 4116 
L 825 1625 
L 2419 1625 
L 2419 4116 
z
M 2253 4666 
L 3047 4666 
L 3047 1625 
L 3713 1625 
L 3713 1100 
L 3047 1100 
L 3047 0 
L 2419 0 
L 2419 1100 
L 313 1100 
L 313 1709 
L 2253 4666 
z
" transform="scale(0.015625)"/>
       </defs>
       <use xlink:href="#DejaVuSans-30"/>
       <use xlink:href="#DejaVuSans-2e" x="63.623047"/>
       <use xlink:href="#DejaVuSans-34" x="95.410156"/>
      </g>
     </g>
    </g>
    <g id="ytick_4">
     <g id="line2d_21">
      <path d="M 57.6 147.9168 
L 414.72 147.9168 
" clip-path="url(#p8d384dbd34)" style="fill: none; stroke: #b0b0b0; stroke-width: 0.8; stroke-linecap: square"/>
     </g>
     <g id="line2d_22">
      <g>
       <use xlink:href="#mc457389083" x="57.6" y="147.9168" style="stroke: #000000; stroke-width: 0.8"/>
      </g>
     </g>
     <g id="text_12">
      <!-- 0.6 -->
      <g transform="translate(34.696875 151.716019) scale(0.1 -0.1)">
       <defs>
        <path id="DejaVuSans-36" d="M 2113 2584 
Q 1688 2584 1439 2293 
Q 1191 2003 1191 1497 
Q 1191 994 1439 701 
Q 1688 409 2113 409 
Q 2538 409 2786 701 
Q 3034 994 3034 1497 
Q 3034 2003 2786 2293 
Q 2538 2584 2113 2584 
z
M 3366 4563 
L 3366 3988 
Q 3128 4100 2886 4159 
Q 2644 4219 2406 4219 
Q 1781 4219 1451 3797 
Q 1122 3375 1075 2522 
Q 1259 2794 1537 2939 
Q 1816 3084 2150 3084 
Q 2853 3084 3261 2657 
Q 3669 2231 3669 1497 
Q 3669 778 3244 343 
Q 2819 -91 2113 -91 
Q 1303 -91 875 529 
Q 447 1150 447 2328 
Q 447 3434 972 4092 
Q 1497 4750 2381 4750 
Q 2619 4750 2861 4703 
Q 3103 4656 3366 4563 
z
" transform="scale(0.015625)"/>
       </defs>
       <use xlink:href="#DejaVuSans-30"/>
       <use xlink:href="#DejaVuSans-2e" x="63.623047"/>
       <use xlink:href="#DejaVuSans-36" x="95.410156"/>
      </g>
     </g>
    </g>
    <g id="ytick_5">
     <g id="line2d_23">
      <path d="M 57.6 94.6944 
L 414.72 94.6944 
" clip-path="url(#p8d384dbd34)" style="fill: none; stroke: #b0b0b0; stroke-width: 0.8; stroke-linecap: square"/>
     </g>
     <g id="line2d_24">
      <g>
       <use xlink:href="#mc457389083" x="57.6" y="94.6944" style="stroke: #000000; stroke-width: 0.8"/>
      </g>
     </g>
     <g id="text_13">
      <!-- 0.8 -->
      <g transform="translate(34.696875 98.493619) scale(0.1 -0.1)">
       <defs>
        <path id="DejaVuSans-38" d="M 2034 2216 
Q 1584 2216 1326 1975 
Q 1069 1734 1069 1313 
Q 1069 891 1326 650 
Q 1584 409 2034 409 
Q 2484 409 2743 651 
Q 3003 894 3003 1313 
Q 3003 1734 2745 1975 
Q 2488 2216 2034 2216 
z
M 1403 2484 
Q 997 2584 770 2862 
Q 544 3141 544 3541 
Q 544 4100 942 4425 
Q 1341 4750 2034 4750 
Q 2731 4750 3128 4425 
Q 3525 4100 3525 3541 
Q 3525 3141 3298 2862 
Q 3072 2584 2669 2484 
Q 3125 2378 3379 2068 
Q 3634 1759 3634 1313 
Q 3634 634 3220 271 
Q 2806 -91 2034 -91 
Q 1263 -91 848 271 
Q 434 634 434 1313 
Q 434 1759 690 2068 
Q 947 2378 1403 2484 
z
M 1172 3481 
Q 1172 3119 1398 2916 
Q 1625 2713 2034 2713 
Q 2441 2713 2670 2916 
Q 2900 3119 2900 3481 
Q 2900 3844 2670 4047 
Q 2441 4250 2034 4250 
Q 1625 4250 1398 4047 
Q 1172 3844 1172 3481 
z
" transform="scale(0.015625)"/>
       </defs>
       <use xlink:href="#DejaVuSans-30"/>
       <use xlink:href="#DejaVuSans-2e" x="63.623047"/>
       <use xlink:href="#DejaVuSans-38" x="95.410156"/>
      </g>
     </g>
    </g>
    <g id="ytick_6">
     <g id="line2d_25">
      <path d="M 57.6 41.472 
L 414.72 41.472 
" clip-path="url(#p8d384dbd34)" style="fill: none; stroke: #b0b0b0; stroke-width: 0.8; stroke-linecap: square"/>
     </g>
     <g id="line2d_26">
      <g>
       <use xlink:href="#mc457389083" x="57.6" y="41.472" style="stroke: #000000; stroke-width: 0.8"/>
      </g>
     </g>
     <g id="text_14">
      <!-- 1.0 -->
      <g transform="translate(34.696875 45.271219) scale(0.1 -0.1)">
       <use xlink:href="#DejaVuSans-31"/>
       <use xlink:href="#DejaVuSans-2e" x="63.623047"/>
       <use xlink:href="#DejaVuSans-30" x="95.410156"/>
      </g>
     </g>
    </g>
    <g id="text_15">
     <!-- Propotion -->
     <g transform="translate(28.617187 198.268625) rotate(-90) scale(0.1 -0.1)">
      <defs>
       <path id="DejaVuSans-50" d="M 1259 4147 
L 1259 2394 
L 2053 2394 
Q 2494 2394 2734 2622 
Q 2975 2850 2975 3272 
Q 2975 3691 2734 3919 
Q 2494 4147 2053 4147 
L 1259 4147 
z
M 628 4666 
L 2053 4666 
Q 2838 4666 3239 4311 
Q 3641 3956 3641 3272 
Q 3641 2581 3239 2228 
Q 2838 1875 2053 1875 
L 1259 1875 
L 1259 0 
L 628 0 
L 628 4666 
z
" transform="scale(0.015625)"/>
       <path id="DejaVuSans-70" d="M 1159 525 
L 1159 -1331 
L 581 -1331 
L 581 3500 
L 1159 3500 
L 1159 2969 
Q 1341 3281 1617 3432 
Q 1894 3584 2278 3584 
Q 2916 3584 3314 3078 
Q 3713 2572 3713 1747 
Q 3713 922 3314 415 
Q 2916 -91 2278 -91 
Q 1894 -91 1617 61 
Q 1341 213 1159 525 
z
M 3116 1747 
Q 3116 2381 2855 2742 
Q 2594 3103 2138 3103 
Q 1681 3103 1420 2742 
Q 1159 2381 1159 1747 
Q 1159 1113 1420 752 
Q 1681 391 2138 391 
Q 2594 391 2855 752 
Q 3116 1113 3116 1747 
z
" transform="scale(0.015625)"/>
      </defs>
      <use xlink:href="#DejaVuSans-50"/>
      <use xlink:href="#DejaVuSans-72" x="58.552734"/>
      <use xlink:href="#DejaVuSans-6f" x="97.416016"/>
      <use xlink:href="#DejaVuSans-70" x="158.597656"/>
      <use xlink:href="#DejaVuSans-6f" x="222.074219"/>
      <use xlink:href="#DejaVuSans-74" x="283.255859"/>
      <use xlink:href="#DejaVuSans-69" x="322.464844"/>
      <use xlink:href="#DejaVuSans-6f" x="350.248047"/>
      <use xlink:href="#DejaVuSans-6e" x="411.429688"/>
     </g>
    </g>
   </g>
   <g id="line2d_27">
    <path d="M 73.832727 307.584 
L 73.832727 305.1648 
L 74.384812 305.1648 
L 74.384812 302.7456 
L 74.728342 302.7456 
L 74.728342 300.3264 
L 74.889563 300.3264 
L 74.922938 293.0688 
L 75.36148 293.0688 
L 75.413631 288.2304 
L 75.840597 288.2304 
L 75.891102 280.9728 
L 76.372874 280.9728 
L 76.464335 276.1344 
L 76.507921 276.1344 
L 76.540153 271.296 
L 76.821123 271.296 
L 76.821123 268.8768 
L 77.119285 268.8768 
L 77.170649 264.0384 
L 77.661293 264.0384 
L 77.722501 256.7808 
L 77.934915 256.7808 
L 77.934915 254.3616 
L 78.165454 254.3616 
L 78.165454 251.9424 
L 78.295562 251.9424 
L 78.295562 249.5232 
L 78.484456 249.5232 
L 78.565952 244.6848 
L 78.600949 244.6848 
L 78.690358 239.8464 
L 78.892229 239.8464 
L 78.892229 237.4272 
L 79.008033 237.4272 
L 79.008033 235.008 
L 79.451195 235.008 
L 79.513029 227.7504 
L 79.625442 227.7504 
L 79.659898 222.912 
L 79.935117 222.912 
L 79.935117 220.4928 
L 80.219356 220.4928 
L 80.238427 215.6544 
L 80.703119 215.6544 
L 80.703119 213.2352 
L 80.814487 213.2352 
L 80.814487 210.816 
L 81.000149 210.816 
L 81.000149 208.3968 
L 81.131633 208.3968 
L 81.131633 205.9776 
L 81.886867 205.9776 
L 81.994463 198.72 
L 82.513566 198.72 
L 82.513566 196.3008 
L 82.810794 196.3008 
L 82.837582 191.4624 
L 82.938394 191.4624 
L 82.975787 186.624 
L 83.586917 186.624 
L 83.586917 184.2048 
L 84.328057 184.2048 
L 84.328057 181.7856 
L 85.096058 181.7856 
L 85.096058 179.3664 
L 85.806268 179.3664 
L 85.806268 176.9472 
L 85.971372 176.9472 
L 86.061371 172.1088 
L 86.373197 172.1088 
L 86.373197 169.6896 
L 88.600412 169.6896 
L 88.616226 164.8512 
L 88.958638 164.8512 
L 88.958638 162.432 
L 89.520848 162.432 
L 89.520848 160.0128 
L 90.344232 160.0128 
L 90.344232 157.5936 
L 91.097033 157.5936 
L 91.149332 152.7552 
L 92.150379 152.7552 
L 92.150379 150.336 
L 93.517124 150.336 
L 93.517124 147.9168 
L 95.696955 147.9168 
L 95.696955 145.4976 
L 98.81482 145.4976 
L 98.81482 143.0784 
L 99.38283 143.0784 
L 99.38283 140.6592 
L 100.289897 140.6592 
L 100.289897 138.24 
L 100.597496 138.24 
L 100.70401 130.9824 
L 102.049103 130.9824 
L 102.049103 128.5632 
L 103.113681 128.5632 
L 103.113681 126.144 
L 104.066755 126.144 
L 104.066755 123.7248 
L 104.243213 123.7248 
L 104.243213 121.3056 
L 105.003068 121.3056 
L 105.003068 118.8864 
L 105.379628 118.8864 
L 105.379628 116.4672 
L 108.919765 116.4672 
L 108.919765 114.048 
L 109.195562 114.048 
L 109.195562 111.6288 
L 109.371725 111.6288 
L 109.371725 109.2096 
L 111.564877 109.2096 
L 111.564877 106.7904 
L 111.863284 106.7904 
L 111.863284 104.3712 
L 111.994178 104.3712 
L 111.994178 101.952 
L 112.213695 101.952 
L 112.213695 99.5328 
L 114.999385 99.5328 
L 114.999385 97.1136 
L 115.752554 97.1136 
L 115.752554 94.6944 
L 115.867572 94.6944 
L 115.867572 92.2752 
L 116.651069 92.2752 
L 116.651069 89.856 
L 119.327344 89.856 
L 119.328081 85.0176 
L 122.425056 85.0176 
L 122.425056 82.5984 
L 123.607477 82.5984 
L 123.607477 80.1792 
L 123.890745 80.1792 
L 123.890745 77.76 
L 126.423543 77.76 
L 126.423543 75.3408 
L 127.661311 75.3408 
L 127.661311 72.9216 
L 129.765545 72.9216 
L 129.765545 70.5024 
L 130.381676 70.5024 
L 130.381676 68.0832 
L 133.304208 68.0832 
L 133.304208 65.664 
L 133.887308 65.664 
L 133.887308 63.2448 
L 135.034831 63.2448 
L 135.034831 60.8256 
L 135.886724 60.8256 
L 135.886724 58.4064 
L 137.152631 58.4064 
L 137.152631 55.9872 
L 137.32388 55.9872 
L 137.32388 53.568 
L 158.310582 53.568 
L 158.310582 51.1488 
L 175.285328 51.1488 
L 175.285328 48.7296 
L 190.176828 48.7296 
L 190.176828 46.3104 
L 232.405827 46.3104 
L 232.405827 43.8912 
L 268.28978 43.8912 
L 268.28978 41.472 
L 268.28978 41.472 
" clip-path="url(#p8d384dbd34)" style="fill: none; stroke: #2ca02c; stroke-width: 1.5; stroke-linecap: square"/>
   </g>
   <g id="line2d_28">
    <path d="M 73.92946 307.584 
L 73.92946 305.1648 
L 74.125777 305.1648 
L 74.125777 302.7456 
L 74.417351 302.7456 
L 74.417351 300.3264 
L 74.539644 300.3264 
L 74.539644 297.9072 
L 74.891603 297.9072 
L 74.891603 295.488 
L 75.102542 295.488 
L 75.102542 293.0688 
L 75.282442 293.0688 
L 75.282442 290.6496 
L 75.977758 290.6496 
L 76.074012 283.392 
L 76.129346 283.392 
L 76.129346 280.9728 
L 76.252425 280.9728 
L 76.252425 278.5536 
L 76.385371 278.5536 
L 76.492807 271.296 
L 76.542181 271.296 
L 76.542181 268.8768 
L 77.17135 268.8768 
L 77.220331 264.0384 
L 77.546079 264.0384 
L 77.583165 259.2 
L 79.769804 259.2 
L 79.769804 256.7808 
L 79.948229 256.7808 
L 79.948229 254.3616 
L 80.504492 254.3616 
L 80.546665 249.5232 
L 80.941006 249.5232 
L 80.941006 247.104 
L 81.560934 247.104 
L 81.560934 244.6848 
L 81.788316 244.6848 
L 81.788316 242.2656 
L 83.452533 242.2656 
L 83.452533 239.8464 
L 84.386585 239.8464 
L 84.386585 237.4272 
L 85.141917 237.4272 
L 85.141917 235.008 
L 86.413895 235.008 
L 86.413895 232.5888 
L 87.910133 232.5888 
L 87.910133 230.1696 
L 89.097839 230.1696 
L 89.097839 227.7504 
L 89.475185 227.7504 
L 89.475185 225.3312 
L 89.798046 225.3312 
L 89.798046 222.912 
L 90.047275 222.912 
L 90.047275 220.4928 
L 90.238824 220.4928 
L 90.238824 218.0736 
L 91.521763 218.0736 
L 91.521763 215.6544 
L 92.253649 215.6544 
L 92.253649 213.2352 
L 93.536097 213.2352 
L 93.554136 208.3968 
L 94.098381 208.3968 
L 94.098381 205.9776 
L 94.786202 205.9776 
L 94.788463 201.1392 
L 95.626568 201.1392 
L 95.626568 198.72 
L 96.09062 198.72 
L 96.09062 196.3008 
L 96.584656 196.3008 
L 96.689843 189.0432 
L 97.468277 189.0432 
L 97.468277 186.624 
L 97.797356 186.624 
L 97.797356 184.2048 
L 98.926299 184.2048 
L 98.926299 181.7856 
L 99.872786 181.7856 
L 99.872786 179.3664 
L 100.047328 179.3664 
L 100.047328 176.9472 
L 101.062236 176.9472 
L 101.062236 174.528 
L 101.433144 174.528 
L 101.433636 169.6896 
L 101.629903 169.6896 
L 101.629903 167.2704 
L 102.346552 167.2704 
L 102.346552 164.8512 
L 103.498498 164.8512 
L 103.498498 162.432 
L 104.985323 162.432 
L 104.985323 160.0128 
L 105.358001 160.0128 
L 105.358001 157.5936 
L 108.211767 157.5936 
L 108.322115 152.7552 
L 110.750119 152.7552 
L 110.750119 150.336 
L 113.734337 150.336 
L 113.734337 147.9168 
L 116.501349 147.9168 
L 116.501349 145.4976 
L 118.020861 145.4976 
L 118.020861 143.0784 
L 118.353724 143.0784 
L 118.353724 140.6592 
L 120.414065 140.6592 
L 120.414065 138.24 
L 121.352344 138.24 
L 121.352344 135.8208 
L 121.653847 135.8208 
L 121.653847 133.4016 
L 124.309528 133.4016 
L 124.309528 130.9824 
L 125.803283 130.9824 
L 125.803283 128.5632 
L 127.104999 128.5632 
L 127.104999 126.144 
L 133.917881 126.144 
L 133.917881 123.7248 
L 135.806629 123.7248 
L 135.806629 121.3056 
L 139.773069 121.3056 
L 139.773069 118.8864 
L 139.891233 118.8864 
L 139.891233 116.4672 
L 140.715551 116.4672 
L 140.715551 114.048 
L 141.452475 114.048 
L 141.452475 111.6288 
L 147.664759 111.6288 
L 147.664759 109.2096 
L 150.006254 109.2096 
L 150.006254 106.7904 
L 150.63487 106.7904 
L 150.63487 104.3712 
L 152.66449 104.3712 
L 152.66449 101.952 
L 157.663681 101.952 
L 157.663681 99.5328 
L 169.169999 99.5328 
L 169.169999 97.1136 
L 172.666709 97.1136 
L 172.666709 94.6944 
L 177.429425 94.6944 
L 177.429425 92.2752 
L 177.971926 92.2752 
L 177.971926 89.856 
L 178.45038 89.856 
L 178.45038 87.4368 
L 184.60132 87.4368 
L 184.60132 85.0176 
L 191.988947 85.0176 
L 191.988947 82.5984 
L 202.747773 82.5984 
L 202.747773 80.1792 
L 203.504727 80.1792 
L 203.504727 77.76 
L 206.537311 77.76 
L 206.537311 75.3408 
L 211.130352 75.3408 
L 211.130352 72.9216 
L 211.274124 72.9216 
L 211.274124 70.5024 
L 214.121501 70.5024 
L 214.121501 68.0832 
L 215.871195 68.0832 
L 215.871195 65.664 
L 224.730508 65.664 
L 224.730508 63.2448 
L 233.849938 63.2448 
L 233.849938 60.8256 
L 234.156701 60.8256 
L 234.156701 58.4064 
L 238.404197 58.4064 
L 238.404197 55.9872 
L 244.482932 55.9872 
L 244.482932 53.568 
L 248.326392 53.568 
L 248.326392 51.1488 
L 249.251301 51.1488 
L 249.251301 48.7296 
L 255.76961 48.7296 
L 255.76961 46.3104 
L 337.659173 46.3104 
L 337.659173 43.8912 
L 383.987496 43.8912 
L 383.987496 41.472 
L 383.987496 41.472 
" clip-path="url(#p8d384dbd34)" style="fill: none; stroke: #ff7f0e; stroke-width: 1.5; stroke-linecap: square"/>
   </g>
   <g id="line2d_29">
    <path d="M 73.865463 307.584 
L 73.865463 305.1648 
L 74.321405 305.1648 
L 74.321405 302.7456 
L 74.729669 302.7456 
L 74.729669 300.3264 
L 74.958279 300.3264 
L 74.958279 297.9072 
L 75.186446 297.9072 
L 75.186446 295.488 
L 75.334003 295.488 
L 75.334003 293.0688 
L 75.562417 293.0688 
L 75.562417 290.6496 
L 75.947873 290.6496 
L 75.975792 285.8112 
L 76.148196 285.8112 
L 76.148196 283.392 
L 76.342718 283.392 
L 76.342718 280.9728 
L 76.672977 280.9728 
L 76.672977 278.5536 
L 77.008347 278.5536 
L 77.008347 276.1344 
L 77.221523 276.1344 
L 77.221523 273.7152 
L 77.64028 273.7152 
L 77.64028 271.296 
L 78.34555 271.296 
L 78.34555 268.8768 
L 78.515619 268.8768 
L 78.593957 264.0384 
L 78.724716 264.0384 
L 78.774704 251.9424 
L 78.851985 251.9424 
L 78.869631 247.104 
L 78.968809 247.104 
L 78.994233 242.2656 
L 79.139836 242.2656 
L 79.184725 237.4272 
L 79.29919 237.4272 
L 79.300001 232.5888 
L 79.842796 232.5888 
L 79.945771 227.7504 
L 80.06418 227.7504 
L 80.06418 225.3312 
L 80.261824 225.3312 
L 80.340358 220.4928 
L 82.218108 220.4928 
L 82.318921 215.6544 
L 82.440378 215.6544 
L 82.440378 213.2352 
L 82.785185 213.2352 
L 82.785185 210.816 
L 83.395123 210.816 
L 83.395123 208.3968 
L 83.932511 208.3968 
L 83.932511 205.9776 
L 84.319934 205.9776 
L 84.40895 201.1392 
L 84.960494 201.1392 
L 84.960494 198.72 
L 85.079604 198.72 
L 85.079604 196.3008 
L 85.792898 196.3008 
L 85.792898 193.8816 
L 86.257982 193.8816 
L 86.257982 191.4624 
L 87.466258 191.4624 
L 87.466258 189.0432 
L 87.83461 189.0432 
L 87.83461 186.624 
L 88.307903 186.624 
L 88.307903 184.2048 
L 88.763845 184.2048 
L 88.763845 181.7856 
L 90.064233 181.7856 
L 90.064233 179.3664 
L 90.246197 179.3664 
L 90.246197 176.9472 
L 90.458046 176.9472 
L 90.458046 174.528 
L 90.924752 174.528 
L 90.998875 169.6896 
L 91.677184 169.6896 
L 91.677184 167.2704 
L 93.470134 167.2704 
L 93.47033 162.432 
L 93.697072 162.432 
L 93.697072 160.0128 
L 94.047827 160.0128 
L 94.047827 157.5936 
L 95.144821 157.5936 
L 95.144821 155.1744 
L 95.383016 155.1744 
L 95.383016 152.7552 
L 96.164399 152.7552 
L 96.164399 150.336 
L 97.469555 150.336 
L 97.469555 147.9168 
L 97.742157 147.9168 
L 97.758623 143.0784 
L 97.856241 143.0784 
L 97.921073 138.24 
L 98.900985 138.24 
L 98.900985 135.8208 
L 99.534369 135.8208 
L 99.534369 133.4016 
L 101.91843 133.4016 
L 101.91843 130.9824 
L 103.634504 130.9824 
L 103.634504 128.5632 
L 105.989418 128.5632 
L 105.989418 126.144 
L 106.477162 126.144 
L 106.477162 123.7248 
L 109.389322 123.7248 
L 109.389322 121.3056 
L 110.241338 121.3056 
L 110.241338 118.8864 
L 112.60623 118.8864 
L 112.60623 116.4672 
L 116.668567 116.4672 
L 116.668567 114.048 
L 119.613414 114.048 
L 119.613414 111.6288 
L 119.874415 111.6288 
L 119.874415 109.2096 
L 121.937214 109.2096 
L 121.937214 106.7904 
L 123.564862 106.7904 
L 123.564862 104.3712 
L 127.018662 104.3712 
L 127.018662 101.952 
L 127.464011 101.952 
L 127.464011 99.5328 
L 134.093603 99.5328 
L 134.093603 97.1136 
L 136.002258 97.1136 
L 136.002258 94.6944 
L 136.612638 94.6944 
L 136.612638 92.2752 
L 140.558729 92.2752 
L 140.558729 89.856 
L 140.853597 89.856 
L 140.853597 87.4368 
L 141.919034 87.4368 
L 141.919034 85.0176 
L 144.274096 85.0176 
L 144.274096 82.5984 
L 145.414049 82.5984 
L 145.414049 80.1792 
L 151.353436 80.1792 
L 151.353436 77.76 
L 155.575765 77.76 
L 155.575765 75.3408 
L 158.972868 75.3408 
L 158.972868 72.9216 
L 180.689047 72.9216 
L 180.689047 70.5024 
L 183.592851 70.5024 
L 183.592851 68.0832 
L 187.48969 68.0832 
L 187.48969 65.664 
L 192.213969 65.664 
L 192.213969 63.2448 
L 199.078167 63.2448 
L 199.078167 60.8256 
L 209.969656 60.8256 
L 209.969656 58.4064 
L 219.123149 58.4064 
L 219.123149 55.9872 
L 245.788236 55.9872 
L 245.788236 53.568 
L 273.981633 53.568 
L 273.981633 51.1488 
L 283.927912 51.1488 
L 283.927912 48.7296 
L 339.294391 48.7296 
L 339.294391 46.3104 
L 378.049559 46.3104 
L 378.049559 43.8912 
L 398.487273 43.8912 
L 398.487273 41.472 
L 398.487273 41.472 
" clip-path="url(#p8d384dbd34)" style="fill: none; stroke: #1f77b4; stroke-width: 1.5; stroke-linecap: square"/>
   </g>
   <g id="patch_3">
    <path d="M 57.6 307.584 
L 57.6 41.472 
" style="fill: none; stroke: #000000; stroke-width: 0.8; stroke-linejoin: miter; stroke-linecap: square"/>
   </g>
   <g id="patch_4">
    <path d="M 414.72 307.584 
L 414.72 41.472 
" style="fill: none; stroke: #000000; stroke-width: 0.8; stroke-linejoin: miter; stroke-linecap: square"/>
   </g>
   <g id="patch_5">
    <path d="M 57.6 307.584 
L 414.72 307.584 
" style="fill: none; stroke: #000000; stroke-width: 0.8; stroke-linejoin: miter; stroke-linecap: square"/>
   </g>
   <g id="patch_6">
    <path d="M 57.6 41.472 
L 414.72 41.472 
" style="fill: none; stroke: #000000; stroke-width: 0.8; stroke-linejoin: miter; stroke-linecap: square"/>
   </g>
   <g id="legend_1">
    <g id="patch_7">
     <path d="M 319.48875 302.584 
L 407.72 302.584 
Q 409.72 302.584 409.72 300.584 
L 409.72 257.2715 
Q 409.72 255.2715 407.72 255.2715 
L 319.48875 255.2715 
Q 317.48875 255.2715 317.48875 257.2715 
L 317.48875 300.584 
Q 317.48875 302.584 319.48875 302.584 
z
" style="fill: #ffffff; opacity: 0.8; stroke: #cccccc; stroke-linejoin: miter"/>
    </g>
    <g id="line2d_30">
     <path d="M 321.48875 263.369937 
L 331.48875 263.369937 
L 331.48875 263.369937 
L 341.48875 263.369937 
L 341.48875 263.369937 
" style="fill: none; stroke: #1f77b4; stroke-width: 1.5; stroke-linecap: square"/>
    </g>
    <g id="text_16">
     <!-- Playground -->
     <g transform="translate(349.48875 266.869937) scale(0.1 -0.1)">
      <defs>
       <path id="DejaVuSans-6c" d="M 603 4863 
L 1178 4863 
L 1178 0 
L 603 0 
L 603 4863 
z
" transform="scale(0.015625)"/>
       <path id="DejaVuSans-79" d="M 2059 -325 
Q 1816 -950 1584 -1140 
Q 1353 -1331 966 -1331 
L 506 -1331 
L 506 -850 
L 844 -850 
Q 1081 -850 1212 -737 
Q 1344 -625 1503 -206 
L 1606 56 
L 191 3500 
L 800 3500 
L 1894 763 
L 2988 3500 
L 3597 3500 
L 2059 -325 
z
" transform="scale(0.015625)"/>
       <path id="DejaVuSans-67" d="M 2906 1791 
Q 2906 2416 2648 2759 
Q 2391 3103 1925 3103 
Q 1463 3103 1205 2759 
Q 947 2416 947 1791 
Q 947 1169 1205 825 
Q 1463 481 1925 481 
Q 2391 481 2648 825 
Q 2906 1169 2906 1791 
z
M 3481 434 
Q 3481 -459 3084 -895 
Q 2688 -1331 1869 -1331 
Q 1566 -1331 1297 -1286 
Q 1028 -1241 775 -1147 
L 775 -588 
Q 1028 -725 1275 -790 
Q 1522 -856 1778 -856 
Q 2344 -856 2625 -561 
Q 2906 -266 2906 331 
L 2906 616 
Q 2728 306 2450 153 
Q 2172 0 1784 0 
Q 1141 0 747 490 
Q 353 981 353 1791 
Q 353 2603 747 3093 
Q 1141 3584 1784 3584 
Q 2172 3584 2450 3431 
Q 2728 3278 2906 2969 
L 2906 3500 
L 3481 3500 
L 3481 434 
z
" transform="scale(0.015625)"/>
       <path id="DejaVuSans-75" d="M 544 1381 
L 544 3500 
L 1119 3500 
L 1119 1403 
Q 1119 906 1312 657 
Q 1506 409 1894 409 
Q 2359 409 2629 706 
Q 2900 1003 2900 1516 
L 2900 3500 
L 3475 3500 
L 3475 0 
L 2900 0 
L 2900 538 
Q 2691 219 2414 64 
Q 2138 -91 1772 -91 
Q 1169 -91 856 284 
Q 544 659 544 1381 
z
M 1991 3584 
L 1991 3584 
z
" transform="scale(0.015625)"/>
       <path id="DejaVuSans-64" d="M 2906 2969 
L 2906 4863 
L 3481 4863 
L 3481 0 
L 2906 0 
L 2906 525 
Q 2725 213 2448 61 
Q 2172 -91 1784 -91 
Q 1150 -91 751 415 
Q 353 922 353 1747 
Q 353 2572 751 3078 
Q 1150 3584 1784 3584 
Q 2172 3584 2448 3432 
Q 2725 3281 2906 2969 
z
M 947 1747 
Q 947 1113 1208 752 
Q 1469 391 1925 391 
Q 2381 391 2643 752 
Q 2906 1113 2906 1747 
Q 2906 2381 2643 2742 
Q 2381 3103 1925 3103 
Q 1469 3103 1208 2742 
Q 947 2381 947 1747 
z
" transform="scale(0.015625)"/>
      </defs>
      <use xlink:href="#DejaVuSans-50"/>
      <use xlink:href="#DejaVuSans-6c" x="60.302734"/>
      <use xlink:href="#DejaVuSans-61" x="88.085938"/>
      <use xlink:href="#DejaVuSans-79" x="149.365234"/>
      <use xlink:href="#DejaVuSans-67" x="208.544922"/>
      <use xlink:href="#DejaVuSans-72" x="272.021484"/>
      <use xlink:href="#DejaVuSans-6f" x="310.884766"/>
      <use xlink:href="#DejaVuSans-75" x="372.066406"/>
      <use xlink:href="#DejaVuSans-6e" x="435.445312"/>
      <use xlink:href="#DejaVuSans-64" x="498.824219"/>
     </g>
    </g>
    <g id="line2d_31">
     <path d="M 321.48875 278.048063 
L 331.48875 278.048063 
L 331.48875 278.048063 
L 341.48875 278.048063 
L 341.48875 278.048063 
" style="fill: none; stroke: #ff7f0e; stroke-width: 1.5; stroke-linecap: square"/>
    </g>
    <g id="text_17">
     <!-- Office -->
     <g transform="translate(349.48875 281.548063) scale(0.1 -0.1)">
      <defs>
       <path id="DejaVuSans-4f" d="M 2522 4238 
Q 1834 4238 1429 3725 
Q 1025 3213 1025 2328 
Q 1025 1447 1429 934 
Q 1834 422 2522 422 
Q 3209 422 3611 934 
Q 4013 1447 4013 2328 
Q 4013 3213 3611 3725 
Q 3209 4238 2522 4238 
z
M 2522 4750 
Q 3503 4750 4090 4092 
Q 4678 3434 4678 2328 
Q 4678 1225 4090 567 
Q 3503 -91 2522 -91 
Q 1538 -91 948 565 
Q 359 1222 359 2328 
Q 359 3434 948 4092 
Q 1538 4750 2522 4750 
z
" transform="scale(0.015625)"/>
       <path id="DejaVuSans-66" d="M 2375 4863 
L 2375 4384 
L 1825 4384 
Q 1516 4384 1395 4259 
Q 1275 4134 1275 3809 
L 1275 3500 
L 2222 3500 
L 2222 3053 
L 1275 3053 
L 1275 0 
L 697 0 
L 697 3053 
L 147 3053 
L 147 3500 
L 697 3500 
L 697 3744 
Q 697 4328 969 4595 
Q 1241 4863 1831 4863 
L 2375 4863 
z
" transform="scale(0.015625)"/>
       <path id="DejaVuSans-63" d="M 3122 3366 
L 3122 2828 
Q 2878 2963 2633 3030 
Q 2388 3097 2138 3097 
Q 1578 3097 1268 2742 
Q 959 2388 959 1747 
Q 959 1106 1268 751 
Q 1578 397 2138 397 
Q 2388 397 2633 464 
Q 2878 531 3122 666 
L 3122 134 
Q 2881 22 2623 -34 
Q 2366 -91 2075 -91 
Q 1284 -91 818 406 
Q 353 903 353 1747 
Q 353 2603 823 3093 
Q 1294 3584 2113 3584 
Q 2378 3584 2631 3529 
Q 2884 3475 3122 3366 
z
" transform="scale(0.015625)"/>
       <path id="DejaVuSans-65" d="M 3597 1894 
L 3597 1613 
L 953 1613 
Q 991 1019 1311 708 
Q 1631 397 2203 397 
Q 2534 397 2845 478 
Q 3156 559 3463 722 
L 3463 178 
Q 3153 47 2828 -22 
Q 2503 -91 2169 -91 
Q 1331 -91 842 396 
Q 353 884 353 1716 
Q 353 2575 817 3079 
Q 1281 3584 2069 3584 
Q 2775 3584 3186 3129 
Q 3597 2675 3597 1894 
z
M 3022 2063 
Q 3016 2534 2758 2815 
Q 2500 3097 2075 3097 
Q 1594 3097 1305 2825 
Q 1016 2553 972 2059 
L 3022 2063 
z
" transform="scale(0.015625)"/>
      </defs>
      <use xlink:href="#DejaVuSans-4f"/>
      <use xlink:href="#DejaVuSans-66" x="78.710938"/>
      <use xlink:href="#DejaVuSans-66" x="113.916016"/>
      <use xlink:href="#DejaVuSans-69" x="149.121094"/>
      <use xlink:href="#DejaVuSans-63" x="176.904297"/>
      <use xlink:href="#DejaVuSans-65" x="231.884766"/>
     </g>
    </g>
    <g id="line2d_32">
     <path d="M 321.48875 292.726187 
L 331.48875 292.726187 
L 331.48875 292.726187 
L 341.48875 292.726187 
L 341.48875 292.726187 
" style="fill: none; stroke: #2ca02c; stroke-width: 1.5; stroke-linecap: square"/>
    </g>
    <g id="text_18">
     <!-- Parking_lot -->
     <g transform="translate(349.48875 296.226187) scale(0.1 -0.1)">
      <defs>
       <path id="DejaVuSans-6b" d="M 581 4863 
L 1159 4863 
L 1159 1991 
L 2875 3500 
L 3609 3500 
L 1753 1863 
L 3688 0 
L 2938 0 
L 1159 1709 
L 1159 0 
L 581 0 
L 581 4863 
z
" transform="scale(0.015625)"/>
       <path id="DejaVuSans-5f" d="M 3263 -1063 
L 3263 -1509 
L -63 -1509 
L -63 -1063 
L 3263 -1063 
z
" transform="scale(0.015625)"/>
      </defs>
      <use xlink:href="#DejaVuSans-50"/>
      <use xlink:href="#DejaVuSans-61" x="55.802734"/>
      <use xlink:href="#DejaVuSans-72" x="117.082031"/>
      <use xlink:href="#DejaVuSans-6b" x="158.195312"/>
      <use xlink:href="#DejaVuSans-69" x="216.105469"/>
      <use xlink:href="#DejaVuSans-6e" x="243.888672"/>
      <use xlink:href="#DejaVuSans-67" x="307.267578"/>
      <use xlink:href="#DejaVuSans-5f" x="370.744141"/>
      <use xlink:href="#DejaVuSans-6c" x="420.744141"/>
      <use xlink:href="#DejaVuSans-6f" x="448.527344"/>
      <use xlink:href="#DejaVuSans-74" x="509.708984"/>
     </g>
    </g>
   </g>
  </g>
 </g>
 <defs>
  <clipPath id="p8d384dbd34">
   <rect x="57.6" y="41.472" width="357.12" height="266.112"/>
  </clipPath>
 </defs>
</svg>
