<?xml version="1.0" encoding="utf-8" standalone="no"?>
<!DOCTYPE svg PUBLIC "-//W3C//DTD SVG 1.1//EN"
  "http://www.w3.org/Graphics/SVG/1.1/DTD/svg11.dtd">
<svg xmlns:xlink="http://www.w3.org/1999/xlink" width="460.8pt" height="345.6pt" viewBox="0 0 460.8 345.6" xmlns="http://www.w3.org/2000/svg" version="1.1">
 <metadata>
  <rdf:RDF xmlns:dc="http://purl.org/dc/elements/1.1/" xmlns:cc="http://creativecommons.org/ns#" xmlns:rdf="http://www.w3.org/1999/02/22-rdf-syntax-ns#">
   <cc:Work>
    <dc:type rdf:resource="http://purl.org/dc/dcmitype/StillImage"/>
    <dc:date>2024-10-28T20:17:22.614270</dc:date>
    <dc:format>image/svg+xml</dc:format>
    <dc:creator>
     <cc:Agent>
      <dc:title>Matplotlib v3.8.0, https://matplotlib.org/</dc:title>
     </cc:Agent>
    </dc:creator>
   </cc:Work>
  </rdf:RDF>
 </metadata>
 <defs>
  <style type="text/css">*{stroke-linejoin: round; stroke-linecap: butt}</style>
 </defs>
 <g id="figure_1">
  <g id="patch_1">
   <path d="M 0 345.6 
L 460.8 345.6 
L 460.8 0 
L 0 0 
z
" style="fill: #ffffff"/>
  </g>
  <g id="axes_1">
   <g id="patch_2">
    <path d="M 66.62 303.64 
L 413.08 303.64 
L 413.08 178.2 
L 66.62 178.2 
z
" style="fill: #ffffff"/>
   </g>
   <g id="PolyCollection_1">
    <defs>
     <path id="m781abef3a7" d="M 82.368182 -47.661818 
L 82.368182 -161.698182 
L 85.582096 -128.297704 
L 88.796011 -113.500743 
L 92.009926 -104.68 
L 95.22384 -98.66043 
L 98.437755 -94.216969 
L 101.65167 -90.763512 
L 104.865584 -87.979761 
L 108.079499 -85.673939 
L 111.293414 -83.723283 
L 114.507328 -82.045076 
L 117.721243 -80.581281 
L 120.935158 -79.289815 
L 124.149072 -78.139318 
L 127.362987 -77.105881 
L 130.576902 -76.170909 
L 133.790816 -75.319699 
L 137.004731 -74.540447 
L 140.218646 -73.823554 
L 143.43256 -73.161124 
L 146.646475 -72.546593 
L 149.86039 -71.974453 
L 153.074304 -71.440044 
L 156.288219 -70.939393 
L 159.502134 -70.469091 
L 162.716048 -70.026189 
L 165.929963 -69.608127 
L 169.143878 -69.212665 
L 172.357792 -68.837839 
L 175.571707 -68.481914 
L 178.785622 -68.143354 
L 181.999536 -67.82079 
L 185.213451 -67.513001 
L 188.427365 -67.218893 
L 191.64128 -66.937482 
L 194.855195 -66.667879 
L 198.069109 -66.409281 
L 201.283024 -66.160959 
L 204.496939 -65.922251 
L 207.710853 -65.69255 
L 210.924768 -65.471306 
L 214.138683 -65.258011 
L 217.352597 -65.052201 
L 220.566512 -64.853447 
L 223.780427 -64.661356 
L 226.994341 -64.475563 
L 230.208256 -64.295731 
L 233.422171 -64.121549 
L 236.636085 -63.952727 
L 239.85 -63.788995 
L 243.063915 -63.630103 
L 246.277829 -63.475817 
L 249.491744 -63.325917 
L 252.705659 -63.180202 
L 255.919573 -63.038478 
L 259.133488 -62.900568 
L 262.347403 -62.766304 
L 265.561317 -62.635526 
L 268.775232 -62.508088 
L 271.989147 -62.383849 
L 275.203061 -62.262678 
L 278.416976 -62.144451 
L 281.630891 -62.02905 
L 284.844805 -61.916364 
L 288.05872 -61.806288 
L 291.272635 -61.698724 
L 294.486549 -61.593577 
L 297.700464 -61.490759 
L 300.914378 -61.390183 
L 304.128293 -61.291771 
L 307.342208 -61.195445 
L 310.556122 -61.101133 
L 313.770037 -61.008765 
L 316.983952 -60.918276 
L 320.197866 -60.829603 
L 323.411781 -60.742686 
L 326.625696 -60.657468 
L 329.83961 -60.573894 
L 333.053525 -60.491911 
L 336.26744 -60.411471 
L 339.481354 -60.332525 
L 342.695269 -60.255028 
L 345.909184 -60.178935 
L 349.123098 -60.104206 
L 352.337013 -60.030798 
L 355.550928 -59.958676 
L 358.764842 -59.8878 
L 361.978757 -59.818135 
L 365.192672 -59.749649 
L 368.406586 -59.682306 
L 371.620501 -59.616077 
L 374.834416 -59.550931 
L 378.04833 -59.486838 
L 381.262245 -59.423771 
L 384.47616 -59.361702 
L 387.690074 -59.300606 
L 390.903989 -59.240457 
L 394.117904 -59.18123 
L 397.331818 -59.122904 
L 397.331818 -47.661818 
L 397.331818 -47.661818 
L 394.117904 -47.661818 
L 390.903989 -47.661818 
L 387.690074 -47.661818 
L 384.47616 -47.661818 
L 381.262245 -47.661818 
L 378.04833 -47.661818 
L 374.834416 -47.661818 
L 371.620501 -47.661818 
L 368.406586 -47.661818 
L 365.192672 -47.661818 
L 361.978757 -47.661818 
L 358.764842 -47.661818 
L 355.550928 -47.661818 
L 352.337013 -47.661818 
L 349.123098 -47.661818 
L 345.909184 -47.661818 
L 342.695269 -47.661818 
L 339.481354 -47.661818 
L 336.26744 -47.661818 
L 333.053525 -47.661818 
L 329.83961 -47.661818 
L 326.625696 -47.661818 
L 323.411781 -47.661818 
L 320.197866 -47.661818 
L 316.983952 -47.661818 
L 313.770037 -47.661818 
L 310.556122 -47.661818 
L 307.342208 -47.661818 
L 304.128293 -47.661818 
L 300.914378 -47.661818 
L 297.700464 -47.661818 
L 294.486549 -47.661818 
L 291.272635 -47.661818 
L 288.05872 -47.661818 
L 284.844805 -47.661818 
L 281.630891 -47.661818 
L 278.416976 -47.661818 
L 275.203061 -47.661818 
L 271.989147 -47.661818 
L 268.775232 -47.661818 
L 265.561317 -47.661818 
L 262.347403 -47.661818 
L 259.133488 -47.661818 
L 255.919573 -47.661818 
L 252.705659 -47.661818 
L 249.491744 -47.661818 
L 246.277829 -47.661818 
L 243.063915 -47.661818 
L 239.85 -47.661818 
L 236.636085 -47.661818 
L 233.422171 -47.661818 
L 230.208256 -47.661818 
L 226.994341 -47.661818 
L 223.780427 -47.661818 
L 220.566512 -47.661818 
L 217.352597 -47.661818 
L 214.138683 -47.661818 
L 210.924768 -47.661818 
L 207.710853 -47.661818 
L 204.496939 -47.661818 
L 201.283024 -47.661818 
L 198.069109 -47.661818 
L 194.855195 -47.661818 
L 191.64128 -47.661818 
L 188.427365 -47.661818 
L 185.213451 -47.661818 
L 181.999536 -47.661818 
L 178.785622 -47.661818 
L 175.571707 -47.661818 
L 172.357792 -47.661818 
L 169.143878 -47.661818 
L 165.929963 -47.661818 
L 162.716048 -47.661818 
L 159.502134 -47.661818 
L 156.288219 -47.661818 
L 153.074304 -47.661818 
L 149.86039 -47.661818 
L 146.646475 -47.661818 
L 143.43256 -47.661818 
L 140.218646 -47.661818 
L 137.004731 -47.661818 
L 133.790816 -47.661818 
L 130.576902 -47.661818 
L 127.362987 -47.661818 
L 124.149072 -47.661818 
L 120.935158 -47.661818 
L 117.721243 -47.661818 
L 114.507328 -47.661818 
L 111.293414 -47.661818 
L 108.079499 -47.661818 
L 104.865584 -47.661818 
L 101.65167 -47.661818 
L 98.437755 -47.661818 
L 95.22384 -47.661818 
L 92.009926 -47.661818 
L 88.796011 -47.661818 
L 85.582096 -47.661818 
L 82.368182 -47.661818 
z
" style="stroke: #0000ff; stroke-opacity: 0.3"/>
    </defs>
    <g clip-path="url(#p68fddd4cfe)">
     <use xlink:href="#m781abef3a7" x="0" y="345.6" style="fill: #0000ff; fill-opacity: 0.3; stroke: #0000ff; stroke-opacity: 0.3"/>
    </g>
   </g>
   <g id="matplotlib.axis_1">
    <g id="xtick_1">
     <g id="line2d_1">
      <path d="M 79.154267 303.64 
L 79.154267 178.2 
" clip-path="url(#p68fddd4cfe)" style="fill: none; stroke: #b0b0b0; stroke-width: 0.8; stroke-linecap: square"/>
     </g>
     <g id="line2d_2">
      <defs>
       <path id="m8eb0719181" d="M 0 0 
L 0 3.5 
" style="stroke: #000000; stroke-width: 0.8"/>
      </defs>
      <g>
       <use xlink:href="#m8eb0719181" x="79.154267" y="303.64" style="stroke: #000000; stroke-width: 0.8"/>
      </g>
     </g>
     <g id="text_1">
      <!-- 0 -->
      <g transform="translate(75.973017 318.238437) scale(0.1 -0.1)">
       <defs>
        <path id="DejaVuSans-30" d="M 2034 4250 
Q 1547 4250 1301 3770 
Q 1056 3291 1056 2328 
Q 1056 1369 1301 889 
Q 1547 409 2034 409 
Q 2525 409 2770 889 
Q 3016 1369 3016 2328 
Q 3016 3291 2770 3770 
Q 2525 4250 2034 4250 
z
M 2034 4750 
Q 2819 4750 3233 4129 
Q 3647 3509 3647 2328 
Q 3647 1150 3233 529 
Q 2819 -91 2034 -91 
Q 1250 -91 836 529 
Q 422 1150 422 2328 
Q 422 3509 836 4129 
Q 1250 4750 2034 4750 
z
" transform="scale(0.015625)"/>
       </defs>
       <use xlink:href="#DejaVuSans-30"/>
      </g>
     </g>
    </g>
    <g id="xtick_2">
     <g id="line2d_3">
      <path d="M 142.789777 303.64 
L 142.789777 178.2 
" clip-path="url(#p68fddd4cfe)" style="fill: none; stroke: #b0b0b0; stroke-width: 0.8; stroke-linecap: square"/>
     </g>
     <g id="line2d_4">
      <g>
       <use xlink:href="#m8eb0719181" x="142.789777" y="303.64" style="stroke: #000000; stroke-width: 0.8"/>
      </g>
     </g>
     <g id="text_2">
      <!-- 1 -->
      <g transform="translate(139.608527 318.238437) scale(0.1 -0.1)">
       <defs>
        <path id="DejaVuSans-31" d="M 794 531 
L 1825 531 
L 1825 4091 
L 703 3866 
L 703 4441 
L 1819 4666 
L 2450 4666 
L 2450 531 
L 3481 531 
L 3481 0 
L 794 0 
L 794 531 
z
" transform="scale(0.015625)"/>
       </defs>
       <use xlink:href="#DejaVuSans-31"/>
      </g>
     </g>
    </g>
    <g id="xtick_3">
     <g id="line2d_5">
      <path d="M 206.425288 303.64 
L 206.425288 178.2 
" clip-path="url(#p68fddd4cfe)" style="fill: none; stroke: #b0b0b0; stroke-width: 0.8; stroke-linecap: square"/>
     </g>
     <g id="line2d_6">
      <g>
       <use xlink:href="#m8eb0719181" x="206.425288" y="303.64" style="stroke: #000000; stroke-width: 0.8"/>
      </g>
     </g>
     <g id="text_3">
      <!-- 2 -->
      <g transform="translate(203.244038 318.238437) scale(0.1 -0.1)">
       <defs>
        <path id="DejaVuSans-32" d="M 1228 531 
L 3431 531 
L 3431 0 
L 469 0 
L 469 531 
Q 828 903 1448 1529 
Q 2069 2156 2228 2338 
Q 2531 2678 2651 2914 
Q 2772 3150 2772 3378 
Q 2772 3750 2511 3984 
Q 2250 4219 1831 4219 
Q 1534 4219 1204 4116 
Q 875 4013 500 3803 
L 500 4441 
Q 881 4594 1212 4672 
Q 1544 4750 1819 4750 
Q 2544 4750 2975 4387 
Q 3406 4025 3406 3419 
Q 3406 3131 3298 2873 
Q 3191 2616 2906 2266 
Q 2828 2175 2409 1742 
Q 1991 1309 1228 531 
z
" transform="scale(0.015625)"/>
       </defs>
       <use xlink:href="#DejaVuSans-32"/>
      </g>
     </g>
    </g>
    <g id="xtick_4">
     <g id="line2d_7">
      <path d="M 270.060798 303.64 
L 270.060798 178.2 
" clip-path="url(#p68fddd4cfe)" style="fill: none; stroke: #b0b0b0; stroke-width: 0.8; stroke-linecap: square"/>
     </g>
     <g id="line2d_8">
      <g>
       <use xlink:href="#m8eb0719181" x="270.060798" y="303.64" style="stroke: #000000; stroke-width: 0.8"/>
      </g>
     </g>
     <g id="text_4">
      <!-- 3 -->
      <g transform="translate(266.879548 318.238437) scale(0.1 -0.1)">
       <defs>
        <path id="DejaVuSans-33" d="M 2597 2516 
Q 3050 2419 3304 2112 
Q 3559 1806 3559 1356 
Q 3559 666 3084 287 
Q 2609 -91 1734 -91 
Q 1441 -91 1130 -33 
Q 819 25 488 141 
L 488 750 
Q 750 597 1062 519 
Q 1375 441 1716 441 
Q 2309 441 2620 675 
Q 2931 909 2931 1356 
Q 2931 1769 2642 2001 
Q 2353 2234 1838 2234 
L 1294 2234 
L 1294 2753 
L 1863 2753 
Q 2328 2753 2575 2939 
Q 2822 3125 2822 3475 
Q 2822 3834 2567 4026 
Q 2313 4219 1838 4219 
Q 1578 4219 1281 4162 
Q 984 4106 628 3988 
L 628 4550 
Q 988 4650 1302 4700 
Q 1616 4750 1894 4750 
Q 2613 4750 3031 4423 
Q 3450 4097 3450 3541 
Q 3450 3153 3228 2886 
Q 3006 2619 2597 2516 
z
" transform="scale(0.015625)"/>
       </defs>
       <use xlink:href="#DejaVuSans-33"/>
      </g>
     </g>
    </g>
    <g id="xtick_5">
     <g id="line2d_9">
      <path d="M 333.696308 303.64 
L 333.696308 178.2 
" clip-path="url(#p68fddd4cfe)" style="fill: none; stroke: #b0b0b0; stroke-width: 0.8; stroke-linecap: square"/>
     </g>
     <g id="line2d_10">
      <g>
       <use xlink:href="#m8eb0719181" x="333.696308" y="303.64" style="stroke: #000000; stroke-width: 0.8"/>
      </g>
     </g>
     <g id="text_5">
      <!-- 4 -->
      <g transform="translate(330.515058 318.238437) scale(0.1 -0.1)">
       <defs>
        <path id="DejaVuSans-34" d="M 2419 4116 
L 825 1625 
L 2419 1625 
L 2419 4116 
z
M 2253 4666 
L 3047 4666 
L 3047 1625 
L 3713 1625 
L 3713 1100 
L 3047 1100 
L 3047 0 
L 2419 0 
L 2419 1100 
L 313 1100 
L 313 1709 
L 2253 4666 
z
" transform="scale(0.015625)"/>
       </defs>
       <use xlink:href="#DejaVuSans-34"/>
      </g>
     </g>
    </g>
    <g id="xtick_6">
     <g id="line2d_11">
      <path d="M 397.331818 303.64 
L 397.331818 178.2 
" clip-path="url(#p68fddd4cfe)" style="fill: none; stroke: #b0b0b0; stroke-width: 0.8; stroke-linecap: square"/>
     </g>
     <g id="line2d_12">
      <g>
       <use xlink:href="#m8eb0719181" x="397.331818" y="303.64" style="stroke: #000000; stroke-width: 0.8"/>
      </g>
     </g>
     <g id="text_6">
      <!-- 5 -->
      <g transform="translate(394.150568 318.238437) scale(0.1 -0.1)">
       <defs>
        <path id="DejaVuSans-35" d="M 691 4666 
L 3169 4666 
L 3169 4134 
L 1269 4134 
L 1269 2991 
Q 1406 3038 1543 3061 
Q 1681 3084 1819 3084 
Q 2600 3084 3056 2656 
Q 3513 2228 3513 1497 
Q 3513 744 3044 326 
Q 2575 -91 1722 -91 
Q 1428 -91 1123 -41 
Q 819 9 494 109 
L 494 744 
Q 775 591 1075 516 
Q 1375 441 1709 441 
Q 2250 441 2565 725 
Q 2881 1009 2881 1497 
Q 2881 1984 2565 2268 
Q 2250 2553 1709 2553 
Q 1456 2553 1204 2497 
Q 953 2441 691 2322 
L 691 4666 
z
" transform="scale(0.015625)"/>
       </defs>
       <use xlink:href="#DejaVuSans-35"/>
      </g>
     </g>
    </g>
    <g id="text_7">
     <!-- Speed of reflector (m/s) -->
     <g transform="translate(180.457031 331.916562) scale(0.1 -0.1)">
      <defs>
       <path id="DejaVuSans-53" d="M 3425 4513 
L 3425 3897 
Q 3066 4069 2747 4153 
Q 2428 4238 2131 4238 
Q 1616 4238 1336 4038 
Q 1056 3838 1056 3469 
Q 1056 3159 1242 3001 
Q 1428 2844 1947 2747 
L 2328 2669 
Q 3034 2534 3370 2195 
Q 3706 1856 3706 1288 
Q 3706 609 3251 259 
Q 2797 -91 1919 -91 
Q 1588 -91 1214 -16 
Q 841 59 441 206 
L 441 856 
Q 825 641 1194 531 
Q 1563 422 1919 422 
Q 2459 422 2753 634 
Q 3047 847 3047 1241 
Q 3047 1584 2836 1778 
Q 2625 1972 2144 2069 
L 1759 2144 
Q 1053 2284 737 2584 
Q 422 2884 422 3419 
Q 422 4038 858 4394 
Q 1294 4750 2059 4750 
Q 2388 4750 2728 4690 
Q 3069 4631 3425 4513 
z
" transform="scale(0.015625)"/>
       <path id="DejaVuSans-70" d="M 1159 525 
L 1159 -1331 
L 581 -1331 
L 581 3500 
L 1159 3500 
L 1159 2969 
Q 1341 3281 1617 3432 
Q 1894 3584 2278 3584 
Q 2916 3584 3314 3078 
Q 3713 2572 3713 1747 
Q 3713 922 3314 415 
Q 2916 -91 2278 -91 
Q 1894 -91 1617 61 
Q 1341 213 1159 525 
z
M 3116 1747 
Q 3116 2381 2855 2742 
Q 2594 3103 2138 3103 
Q 1681 3103 1420 2742 
Q 1159 2381 1159 1747 
Q 1159 1113 1420 752 
Q 1681 391 2138 391 
Q 2594 391 2855 752 
Q 3116 1113 3116 1747 
z
" transform="scale(0.015625)"/>
       <path id="DejaVuSans-65" d="M 3597 1894 
L 3597 1613 
L 953 1613 
Q 991 1019 1311 708 
Q 1631 397 2203 397 
Q 2534 397 2845 478 
Q 3156 559 3463 722 
L 3463 178 
Q 3153 47 2828 -22 
Q 2503 -91 2169 -91 
Q 1331 -91 842 396 
Q 353 884 353 1716 
Q 353 2575 817 3079 
Q 1281 3584 2069 3584 
Q 2775 3584 3186 3129 
Q 3597 2675 3597 1894 
z
M 3022 2063 
Q 3016 2534 2758 2815 
Q 2500 3097 2075 3097 
Q 1594 3097 1305 2825 
Q 1016 2553 972 2059 
L 3022 2063 
z
" transform="scale(0.015625)"/>
       <path id="DejaVuSans-64" d="M 2906 2969 
L 2906 4863 
L 3481 4863 
L 3481 0 
L 2906 0 
L 2906 525 
Q 2725 213 2448 61 
Q 2172 -91 1784 -91 
Q 1150 -91 751 415 
Q 353 922 353 1747 
Q 353 2572 751 3078 
Q 1150 3584 1784 3584 
Q 2172 3584 2448 3432 
Q 2725 3281 2906 2969 
z
M 947 1747 
Q 947 1113 1208 752 
Q 1469 391 1925 391 
Q 2381 391 2643 752 
Q 2906 1113 2906 1747 
Q 2906 2381 2643 2742 
Q 2381 3103 1925 3103 
Q 1469 3103 1208 2742 
Q 947 2381 947 1747 
z
" transform="scale(0.015625)"/>
       <path id="DejaVuSans-20" transform="scale(0.015625)"/>
       <path id="DejaVuSans-6f" d="M 1959 3097 
Q 1497 3097 1228 2736 
Q 959 2375 959 1747 
Q 959 1119 1226 758 
Q 1494 397 1959 397 
Q 2419 397 2687 759 
Q 2956 1122 2956 1747 
Q 2956 2369 2687 2733 
Q 2419 3097 1959 3097 
z
M 1959 3584 
Q 2709 3584 3137 3096 
Q 3566 2609 3566 1747 
Q 3566 888 3137 398 
Q 2709 -91 1959 -91 
Q 1206 -91 779 398 
Q 353 888 353 1747 
Q 353 2609 779 3096 
Q 1206 3584 1959 3584 
z
" transform="scale(0.015625)"/>
       <path id="DejaVuSans-66" d="M 2375 4863 
L 2375 4384 
L 1825 4384 
Q 1516 4384 1395 4259 
Q 1275 4134 1275 3809 
L 1275 3500 
L 2222 3500 
L 2222 3053 
L 1275 3053 
L 1275 0 
L 697 0 
L 697 3053 
L 147 3053 
L 147 3500 
L 697 3500 
L 697 3744 
Q 697 4328 969 4595 
Q 1241 4863 1831 4863 
L 2375 4863 
z
" transform="scale(0.015625)"/>
       <path id="DejaVuSans-72" d="M 2631 2963 
Q 2534 3019 2420 3045 
Q 2306 3072 2169 3072 
Q 1681 3072 1420 2755 
Q 1159 2438 1159 1844 
L 1159 0 
L 581 0 
L 581 3500 
L 1159 3500 
L 1159 2956 
Q 1341 3275 1631 3429 
Q 1922 3584 2338 3584 
Q 2397 3584 2469 3576 
Q 2541 3569 2628 3553 
L 2631 2963 
z
" transform="scale(0.015625)"/>
       <path id="DejaVuSans-6c" d="M 603 4863 
L 1178 4863 
L 1178 0 
L 603 0 
L 603 4863 
z
" transform="scale(0.015625)"/>
       <path id="DejaVuSans-63" d="M 3122 3366 
L 3122 2828 
Q 2878 2963 2633 3030 
Q 2388 3097 2138 3097 
Q 1578 3097 1268 2742 
Q 959 2388 959 1747 
Q 959 1106 1268 751 
Q 1578 397 2138 397 
Q 2388 397 2633 464 
Q 2878 531 3122 666 
L 3122 134 
Q 2881 22 2623 -34 
Q 2366 -91 2075 -91 
Q 1284 -91 818 406 
Q 353 903 353 1747 
Q 353 2603 823 3093 
Q 1294 3584 2113 3584 
Q 2378 3584 2631 3529 
Q 2884 3475 3122 3366 
z
" transform="scale(0.015625)"/>
       <path id="DejaVuSans-74" d="M 1172 4494 
L 1172 3500 
L 2356 3500 
L 2356 3053 
L 1172 3053 
L 1172 1153 
Q 1172 725 1289 603 
Q 1406 481 1766 481 
L 2356 481 
L 2356 0 
L 1766 0 
Q 1100 0 847 248 
Q 594 497 594 1153 
L 594 3053 
L 172 3053 
L 172 3500 
L 594 3500 
L 594 4494 
L 1172 4494 
z
" transform="scale(0.015625)"/>
       <path id="DejaVuSans-28" d="M 1984 4856 
Q 1566 4138 1362 3434 
Q 1159 2731 1159 2009 
Q 1159 1288 1364 580 
Q 1569 -128 1984 -844 
L 1484 -844 
Q 1016 -109 783 600 
Q 550 1309 550 2009 
Q 550 2706 781 3412 
Q 1013 4119 1484 4856 
L 1984 4856 
z
" transform="scale(0.015625)"/>
       <path id="DejaVuSans-6d" d="M 3328 2828 
Q 3544 3216 3844 3400 
Q 4144 3584 4550 3584 
Q 5097 3584 5394 3201 
Q 5691 2819 5691 2113 
L 5691 0 
L 5113 0 
L 5113 2094 
Q 5113 2597 4934 2840 
Q 4756 3084 4391 3084 
Q 3944 3084 3684 2787 
Q 3425 2491 3425 1978 
L 3425 0 
L 2847 0 
L 2847 2094 
Q 2847 2600 2669 2842 
Q 2491 3084 2119 3084 
Q 1678 3084 1418 2786 
Q 1159 2488 1159 1978 
L 1159 0 
L 581 0 
L 581 3500 
L 1159 3500 
L 1159 2956 
Q 1356 3278 1631 3431 
Q 1906 3584 2284 3584 
Q 2666 3584 2933 3390 
Q 3200 3197 3328 2828 
z
" transform="scale(0.015625)"/>
       <path id="DejaVuSans-2f" d="M 1625 4666 
L 2156 4666 
L 531 -594 
L 0 -594 
L 1625 4666 
z
" transform="scale(0.015625)"/>
       <path id="DejaVuSans-73" d="M 2834 3397 
L 2834 2853 
Q 2591 2978 2328 3040 
Q 2066 3103 1784 3103 
Q 1356 3103 1142 2972 
Q 928 2841 928 2578 
Q 928 2378 1081 2264 
Q 1234 2150 1697 2047 
L 1894 2003 
Q 2506 1872 2764 1633 
Q 3022 1394 3022 966 
Q 3022 478 2636 193 
Q 2250 -91 1575 -91 
Q 1294 -91 989 -36 
Q 684 19 347 128 
L 347 722 
Q 666 556 975 473 
Q 1284 391 1588 391 
Q 1994 391 2212 530 
Q 2431 669 2431 922 
Q 2431 1156 2273 1281 
Q 2116 1406 1581 1522 
L 1381 1569 
Q 847 1681 609 1914 
Q 372 2147 372 2553 
Q 372 3047 722 3315 
Q 1072 3584 1716 3584 
Q 2034 3584 2315 3537 
Q 2597 3491 2834 3397 
z
" transform="scale(0.015625)"/>
       <path id="DejaVuSans-29" d="M 513 4856 
L 1013 4856 
Q 1481 4119 1714 3412 
Q 1947 2706 1947 2009 
Q 1947 1309 1714 600 
Q 1481 -109 1013 -844 
L 513 -844 
Q 928 -128 1133 580 
Q 1338 1288 1338 2009 
Q 1338 2731 1133 3434 
Q 928 4138 513 4856 
z
" transform="scale(0.015625)"/>
      </defs>
      <use xlink:href="#DejaVuSans-53"/>
      <use xlink:href="#DejaVuSans-70" x="63.476562"/>
      <use xlink:href="#DejaVuSans-65" x="126.953125"/>
      <use xlink:href="#DejaVuSans-65" x="188.476562"/>
      <use xlink:href="#DejaVuSans-64" x="250"/>
      <use xlink:href="#DejaVuSans-20" x="313.476562"/>
      <use xlink:href="#DejaVuSans-6f" x="345.263672"/>
      <use xlink:href="#DejaVuSans-66" x="406.445312"/>
      <use xlink:href="#DejaVuSans-20" x="441.650391"/>
      <use xlink:href="#DejaVuSans-72" x="473.4375"/>
      <use xlink:href="#DejaVuSans-65" x="512.300781"/>
      <use xlink:href="#DejaVuSans-66" x="573.824219"/>
      <use xlink:href="#DejaVuSans-6c" x="609.029297"/>
      <use xlink:href="#DejaVuSans-65" x="636.8125"/>
      <use xlink:href="#DejaVuSans-63" x="698.335938"/>
      <use xlink:href="#DejaVuSans-74" x="753.316406"/>
      <use xlink:href="#DejaVuSans-6f" x="792.525391"/>
      <use xlink:href="#DejaVuSans-72" x="853.707031"/>
      <use xlink:href="#DejaVuSans-20" x="894.820312"/>
      <use xlink:href="#DejaVuSans-28" x="926.607422"/>
      <use xlink:href="#DejaVuSans-6d" x="965.621094"/>
      <use xlink:href="#DejaVuSans-2f" x="1063.033203"/>
      <use xlink:href="#DejaVuSans-73" x="1096.724609"/>
      <use xlink:href="#DejaVuSans-29" x="1148.824219"/>
     </g>
    </g>
   </g>
   <g id="matplotlib.axis_2">
    <g id="ytick_1">
     <g id="line2d_13">
      <path d="M 66.62 297.938182 
L 413.08 297.938182 
" clip-path="url(#p68fddd4cfe)" style="fill: none; stroke: #b0b0b0; stroke-width: 0.8; stroke-linecap: square"/>
     </g>
     <g id="line2d_14">
      <defs>
       <path id="m27d77b2fdb" d="M 0 0 
L -3.5 0 
" style="stroke: #000000; stroke-width: 0.8"/>
      </defs>
      <g>
       <use xlink:href="#m27d77b2fdb" x="66.62" y="297.938182" style="stroke: #000000; stroke-width: 0.8"/>
      </g>
     </g>
     <g id="text_8">
      <!-- 0 -->
      <g transform="translate(53.2575 301.737401) scale(0.1 -0.1)">
       <use xlink:href="#DejaVuSans-30"/>
      </g>
     </g>
    </g>
    <g id="ytick_2">
     <g id="line2d_15">
      <path d="M 66.62 264.852877 
L 413.08 264.852877 
" clip-path="url(#p68fddd4cfe)" style="fill: none; stroke: #b0b0b0; stroke-width: 0.8; stroke-linecap: square"/>
     </g>
     <g id="line2d_16">
      <g>
       <use xlink:href="#m27d77b2fdb" x="66.62" y="264.852877" style="stroke: #000000; stroke-width: 0.8"/>
      </g>
     </g>
     <g id="text_9">
      <!-- 100 -->
      <g transform="translate(40.5325 268.652096) scale(0.1 -0.1)">
       <use xlink:href="#DejaVuSans-31"/>
       <use xlink:href="#DejaVuSans-30" x="63.623047"/>
       <use xlink:href="#DejaVuSans-30" x="127.246094"/>
      </g>
     </g>
    </g>
    <g id="ytick_3">
     <g id="line2d_17">
      <path d="M 66.62 231.767572 
L 413.08 231.767572 
" clip-path="url(#p68fddd4cfe)" style="fill: none; stroke: #b0b0b0; stroke-width: 0.8; stroke-linecap: square"/>
     </g>
     <g id="line2d_18">
      <g>
       <use xlink:href="#m27d77b2fdb" x="66.62" y="231.767572" style="stroke: #000000; stroke-width: 0.8"/>
      </g>
     </g>
     <g id="text_10">
      <!-- 200 -->
      <g transform="translate(40.5325 235.566791) scale(0.1 -0.1)">
       <use xlink:href="#DejaVuSans-32"/>
       <use xlink:href="#DejaVuSans-30" x="63.623047"/>
       <use xlink:href="#DejaVuSans-30" x="127.246094"/>
      </g>
     </g>
    </g>
    <g id="ytick_4">
     <g id="line2d_19">
      <path d="M 66.62 198.682267 
L 413.08 198.682267 
" clip-path="url(#p68fddd4cfe)" style="fill: none; stroke: #b0b0b0; stroke-width: 0.8; stroke-linecap: square"/>
     </g>
     <g id="line2d_20">
      <g>
       <use xlink:href="#m27d77b2fdb" x="66.62" y="198.682267" style="stroke: #000000; stroke-width: 0.8"/>
      </g>
     </g>
     <g id="text_11">
      <!-- 300 -->
      <g transform="translate(40.5325 202.481486) scale(0.1 -0.1)">
       <use xlink:href="#DejaVuSans-33"/>
       <use xlink:href="#DejaVuSans-30" x="63.623047"/>
       <use xlink:href="#DejaVuSans-30" x="127.246094"/>
      </g>
     </g>
    </g>
    <g id="text_12">
     <!-- Number of packet -->
     <g transform="translate(34.452813 285.741875) rotate(-90) scale(0.1 -0.1)">
      <defs>
       <path id="DejaVuSans-4e" d="M 628 4666 
L 1478 4666 
L 3547 763 
L 3547 4666 
L 4159 4666 
L 4159 0 
L 3309 0 
L 1241 3903 
L 1241 0 
L 628 0 
L 628 4666 
z
" transform="scale(0.015625)"/>
       <path id="DejaVuSans-75" d="M 544 1381 
L 544 3500 
L 1119 3500 
L 1119 1403 
Q 1119 906 1312 657 
Q 1506 409 1894 409 
Q 2359 409 2629 706 
Q 2900 1003 2900 1516 
L 2900 3500 
L 3475 3500 
L 3475 0 
L 2900 0 
L 2900 538 
Q 2691 219 2414 64 
Q 2138 -91 1772 -91 
Q 1169 -91 856 284 
Q 544 659 544 1381 
z
M 1991 3584 
L 1991 3584 
z
" transform="scale(0.015625)"/>
       <path id="DejaVuSans-62" d="M 3116 1747 
Q 3116 2381 2855 2742 
Q 2594 3103 2138 3103 
Q 1681 3103 1420 2742 
Q 1159 2381 1159 1747 
Q 1159 1113 1420 752 
Q 1681 391 2138 391 
Q 2594 391 2855 752 
Q 3116 1113 3116 1747 
z
M 1159 2969 
Q 1341 3281 1617 3432 
Q 1894 3584 2278 3584 
Q 2916 3584 3314 3078 
Q 3713 2572 3713 1747 
Q 3713 922 3314 415 
Q 2916 -91 2278 -91 
Q 1894 -91 1617 61 
Q 1341 213 1159 525 
L 1159 0 
L 581 0 
L 581 4863 
L 1159 4863 
L 1159 2969 
z
" transform="scale(0.015625)"/>
       <path id="DejaVuSans-61" d="M 2194 1759 
Q 1497 1759 1228 1600 
Q 959 1441 959 1056 
Q 959 750 1161 570 
Q 1363 391 1709 391 
Q 2188 391 2477 730 
Q 2766 1069 2766 1631 
L 2766 1759 
L 2194 1759 
z
M 3341 1997 
L 3341 0 
L 2766 0 
L 2766 531 
Q 2569 213 2275 61 
Q 1981 -91 1556 -91 
Q 1019 -91 701 211 
Q 384 513 384 1019 
Q 384 1609 779 1909 
Q 1175 2209 1959 2209 
L 2766 2209 
L 2766 2266 
Q 2766 2663 2505 2880 
Q 2244 3097 1772 3097 
Q 1472 3097 1187 3025 
Q 903 2953 641 2809 
L 641 3341 
Q 956 3463 1253 3523 
Q 1550 3584 1831 3584 
Q 2591 3584 2966 3190 
Q 3341 2797 3341 1997 
z
" transform="scale(0.015625)"/>
       <path id="DejaVuSans-6b" d="M 581 4863 
L 1159 4863 
L 1159 1991 
L 2875 3500 
L 3609 3500 
L 1753 1863 
L 3688 0 
L 2938 0 
L 1159 1709 
L 1159 0 
L 581 0 
L 581 4863 
z
" transform="scale(0.015625)"/>
      </defs>
      <use xlink:href="#DejaVuSans-4e"/>
      <use xlink:href="#DejaVuSans-75" x="74.804688"/>
      <use xlink:href="#DejaVuSans-6d" x="138.183594"/>
      <use xlink:href="#DejaVuSans-62" x="235.595703"/>
      <use xlink:href="#DejaVuSans-65" x="299.072266"/>
      <use xlink:href="#DejaVuSans-72" x="360.595703"/>
      <use xlink:href="#DejaVuSans-20" x="401.708984"/>
      <use xlink:href="#DejaVuSans-6f" x="433.496094"/>
      <use xlink:href="#DejaVuSans-66" x="494.677734"/>
      <use xlink:href="#DejaVuSans-20" x="529.882812"/>
      <use xlink:href="#DejaVuSans-70" x="561.669922"/>
      <use xlink:href="#DejaVuSans-61" x="625.146484"/>
      <use xlink:href="#DejaVuSans-63" x="686.425781"/>
      <use xlink:href="#DejaVuSans-6b" x="741.40625"/>
      <use xlink:href="#DejaVuSans-65" x="795.691406"/>
      <use xlink:href="#DejaVuSans-74" x="857.214844"/>
     </g>
    </g>
   </g>
   <g id="line2d_21">
    <path d="M 82.368182 183.901818 
L 85.582096 217.302296 
L 88.796011 232.099257 
L 92.009926 240.92 
L 95.22384 246.93957 
L 98.437755 251.383031 
L 101.65167 254.836488 
L 104.865584 257.620239 
L 108.079499 259.926061 
L 111.293414 261.876717 
L 114.507328 263.554924 
L 117.721243 265.018719 
L 120.935158 266.310185 
L 124.149072 267.460682 
L 127.362987 268.494119 
L 130.576902 269.429091 
L 133.790816 270.280301 
L 137.004731 271.059553 
L 140.218646 271.776446 
L 143.43256 272.438876 
L 146.646475 273.053407 
L 149.86039 273.625547 
L 153.074304 274.159956 
L 156.288219 274.660607 
L 159.502134 275.130909 
L 162.716048 275.573811 
L 165.929963 275.991873 
L 169.143878 276.387335 
L 172.357792 276.762161 
L 175.571707 277.118086 
L 178.785622 277.456646 
L 181.999536 277.77921 
L 185.213451 278.086999 
L 188.427365 278.381107 
L 191.64128 278.662518 
L 194.855195 278.932121 
L 198.069109 279.190719 
L 201.283024 279.439041 
L 204.496939 279.677749 
L 207.710853 279.90745 
L 210.924768 280.128694 
L 214.138683 280.341989 
L 217.352597 280.547799 
L 220.566512 280.746553 
L 223.780427 280.938644 
L 226.994341 281.124437 
L 230.208256 281.304269 
L 233.422171 281.478451 
L 236.636085 281.647273 
L 239.85 281.811005 
L 243.063915 281.969897 
L 246.277829 282.124183 
L 249.491744 282.274083 
L 252.705659 282.419798 
L 255.919573 282.561522 
L 259.133488 282.699432 
L 262.347403 282.833696 
L 265.561317 282.964474 
L 268.775232 283.091912 
L 271.989147 283.216151 
L 275.203061 283.337322 
L 278.416976 283.455549 
L 281.630891 283.57095 
L 284.844805 283.683636 
L 288.05872 283.793712 
L 291.272635 283.901276 
L 294.486549 284.006423 
L 297.700464 284.109241 
L 300.914378 284.209817 
L 304.128293 284.308229 
L 307.342208 284.404555 
L 310.556122 284.498867 
L 313.770037 284.591235 
L 316.983952 284.681724 
L 320.197866 284.770397 
L 323.411781 284.857314 
L 326.625696 284.942532 
L 329.83961 285.026106 
L 333.053525 285.108089 
L 336.26744 285.188529 
L 339.481354 285.267475 
L 342.695269 285.344972 
L 345.909184 285.421065 
L 349.123098 285.495794 
L 352.337013 285.569202 
L 355.550928 285.641324 
L 358.764842 285.7122 
L 361.978757 285.781865 
L 365.192672 285.850351 
L 368.406586 285.917694 
L 371.620501 285.983923 
L 374.834416 286.049069 
L 378.04833 286.113162 
L 381.262245 286.176229 
L 384.47616 286.238298 
L 387.690074 286.299394 
L 390.903989 286.359543 
L 394.117904 286.41877 
L 397.331818 286.477096 
" clip-path="url(#p68fddd4cfe)" style="fill: none; stroke: #1f77b4; stroke-width: 1.5; stroke-linecap: square"/>
   </g>
   <g id="patch_3">
    <path d="M 66.62 303.64 
L 66.62 178.2 
" style="fill: none; stroke: #000000; stroke-width: 0.8; stroke-linejoin: miter; stroke-linecap: square"/>
   </g>
   <g id="patch_4">
    <path d="M 413.08 303.64 
L 413.08 178.2 
" style="fill: none; stroke: #000000; stroke-width: 0.8; stroke-linejoin: miter; stroke-linecap: square"/>
   </g>
   <g id="patch_5">
    <path d="M 66.62 303.64 
L 413.08 303.64 
" style="fill: none; stroke: #000000; stroke-width: 0.8; stroke-linejoin: miter; stroke-linecap: square"/>
   </g>
   <g id="patch_6">
    <path d="M 66.62 178.2 
L 413.08 178.2 
" style="fill: none; stroke: #000000; stroke-width: 0.8; stroke-linejoin: miter; stroke-linecap: square"/>
   </g>
   <g id="legend_1">
    <g id="patch_7">
     <path d="M 297.5425 200.878125 
L 406.08 200.878125 
Q 408.08 200.878125 408.08 198.878125 
L 408.08 185.2 
Q 408.08 183.2 406.08 183.2 
L 297.5425 183.2 
Q 295.5425 183.2 295.5425 185.2 
L 295.5425 198.878125 
Q 295.5425 200.878125 297.5425 200.878125 
z
" style="fill: #ffffff; opacity: 0.8; stroke: #cccccc; stroke-linejoin: miter"/>
    </g>
    <g id="patch_8">
     <path d="M 299.5425 194.798437 
L 319.5425 194.798437 
L 319.5425 187.798437 
L 299.5425 187.798437 
z
" style="fill: #0000ff; fill-opacity: 0.3; stroke: #0000ff; stroke-opacity: 0.3; stroke-linejoin: miter"/>
    </g>
    <g id="text_13">
     <!-- n &lt; (9/Tv)**0.5 -->
     <g transform="translate(327.5425 194.798437) scale(0.1 -0.1)">
      <defs>
       <path id="DejaVuSans-6e" d="M 3513 2113 
L 3513 0 
L 2938 0 
L 2938 2094 
Q 2938 2591 2744 2837 
Q 2550 3084 2163 3084 
Q 1697 3084 1428 2787 
Q 1159 2491 1159 1978 
L 1159 0 
L 581 0 
L 581 3500 
L 1159 3500 
L 1159 2956 
Q 1366 3272 1645 3428 
Q 1925 3584 2291 3584 
Q 2894 3584 3203 3211 
Q 3513 2838 3513 2113 
z
" transform="scale(0.015625)"/>
       <path id="DejaVuSans-3c" d="M 4684 3150 
L 1459 2003 
L 4684 863 
L 4684 294 
L 678 1747 
L 678 2266 
L 4684 3719 
L 4684 3150 
z
" transform="scale(0.015625)"/>
       <path id="DejaVuSans-39" d="M 703 97 
L 703 672 
Q 941 559 1184 500 
Q 1428 441 1663 441 
Q 2288 441 2617 861 
Q 2947 1281 2994 2138 
Q 2813 1869 2534 1725 
Q 2256 1581 1919 1581 
Q 1219 1581 811 2004 
Q 403 2428 403 3163 
Q 403 3881 828 4315 
Q 1253 4750 1959 4750 
Q 2769 4750 3195 4129 
Q 3622 3509 3622 2328 
Q 3622 1225 3098 567 
Q 2575 -91 1691 -91 
Q 1453 -91 1209 -44 
Q 966 3 703 97 
z
M 1959 2075 
Q 2384 2075 2632 2365 
Q 2881 2656 2881 3163 
Q 2881 3666 2632 3958 
Q 2384 4250 1959 4250 
Q 1534 4250 1286 3958 
Q 1038 3666 1038 3163 
Q 1038 2656 1286 2365 
Q 1534 2075 1959 2075 
z
" transform="scale(0.015625)"/>
       <path id="DejaVuSans-54" d="M -19 4666 
L 3928 4666 
L 3928 4134 
L 2272 4134 
L 2272 0 
L 1638 0 
L 1638 4134 
L -19 4134 
L -19 4666 
z
" transform="scale(0.015625)"/>
       <path id="DejaVuSans-76" d="M 191 3500 
L 800 3500 
L 1894 563 
L 2988 3500 
L 3597 3500 
L 2284 0 
L 1503 0 
L 191 3500 
z
" transform="scale(0.015625)"/>
       <path id="DejaVuSans-2a" d="M 3009 3897 
L 1888 3291 
L 3009 2681 
L 2828 2375 
L 1778 3009 
L 1778 1831 
L 1422 1831 
L 1422 3009 
L 372 2375 
L 191 2681 
L 1313 3291 
L 191 3897 
L 372 4206 
L 1422 3572 
L 1422 4750 
L 1778 4750 
L 1778 3572 
L 2828 4206 
L 3009 3897 
z
" transform="scale(0.015625)"/>
       <path id="DejaVuSans-2e" d="M 684 794 
L 1344 794 
L 1344 0 
L 684 0 
L 684 794 
z
" transform="scale(0.015625)"/>
      </defs>
      <use xlink:href="#DejaVuSans-6e"/>
      <use xlink:href="#DejaVuSans-20" x="63.378906"/>
      <use xlink:href="#DejaVuSans-3c" x="95.166016"/>
      <use xlink:href="#DejaVuSans-20" x="178.955078"/>
      <use xlink:href="#DejaVuSans-28" x="210.742188"/>
      <use xlink:href="#DejaVuSans-39" x="249.755859"/>
      <use xlink:href="#DejaVuSans-2f" x="313.378906"/>
      <use xlink:href="#DejaVuSans-54" x="347.070312"/>
      <use xlink:href="#DejaVuSans-76" x="408.154297"/>
      <use xlink:href="#DejaVuSans-29" x="467.333984"/>
      <use xlink:href="#DejaVuSans-2a" x="506.347656"/>
      <use xlink:href="#DejaVuSans-2a" x="556.347656"/>
      <use xlink:href="#DejaVuSans-30" x="606.347656"/>
      <use xlink:href="#DejaVuSans-2e" x="669.970703"/>
      <use xlink:href="#DejaVuSans-35" x="701.757812"/>
     </g>
    </g>
   </g>
  </g>
  <g id="axes_2">
   <g id="patch_9">
    <path d="M 66.62 136.24 
L 413.08 136.24 
L 413.08 10.8 
L 66.62 10.8 
z
" style="fill: #ffffff"/>
   </g>
   <g id="matplotlib.axis_3">
    <g id="xtick_7">
     <g id="line2d_22">
      <path d="M 97.971442 136.24 
L 97.971442 10.8 
" clip-path="url(#p22296a959c)" style="fill: none; stroke: #b0b0b0; stroke-width: 0.8; stroke-linecap: square"/>
     </g>
     <g id="line2d_23">
      <g>
       <use xlink:href="#m8eb0719181" x="97.971442" y="136.24" style="stroke: #000000; stroke-width: 0.8"/>
      </g>
     </g>
     <g id="text_14">
      <!-- 50 -->
      <g transform="translate(91.608942 150.838437) scale(0.1 -0.1)">
       <use xlink:href="#DejaVuSans-35"/>
       <use xlink:href="#DejaVuSans-30" x="63.623047"/>
      </g>
     </g>
    </g>
    <g id="xtick_8">
     <g id="line2d_24">
      <path d="M 148.766663 136.24 
L 148.766663 10.8 
" clip-path="url(#p22296a959c)" style="fill: none; stroke: #b0b0b0; stroke-width: 0.8; stroke-linecap: square"/>
     </g>
     <g id="line2d_25">
      <g>
       <use xlink:href="#m8eb0719181" x="148.766663" y="136.24" style="stroke: #000000; stroke-width: 0.8"/>
      </g>
     </g>
     <g id="text_15">
      <!-- 100 -->
      <g transform="translate(139.222913 150.838437) scale(0.1 -0.1)">
       <use xlink:href="#DejaVuSans-31"/>
       <use xlink:href="#DejaVuSans-30" x="63.623047"/>
       <use xlink:href="#DejaVuSans-30" x="127.246094"/>
      </g>
     </g>
    </g>
    <g id="xtick_9">
     <g id="line2d_26">
      <path d="M 199.561884 136.24 
L 199.561884 10.8 
" clip-path="url(#p22296a959c)" style="fill: none; stroke: #b0b0b0; stroke-width: 0.8; stroke-linecap: square"/>
     </g>
     <g id="line2d_27">
      <g>
       <use xlink:href="#m8eb0719181" x="199.561884" y="136.24" style="stroke: #000000; stroke-width: 0.8"/>
      </g>
     </g>
     <g id="text_16">
      <!-- 150 -->
      <g transform="translate(190.018134 150.838437) scale(0.1 -0.1)">
       <use xlink:href="#DejaVuSans-31"/>
       <use xlink:href="#DejaVuSans-35" x="63.623047"/>
       <use xlink:href="#DejaVuSans-30" x="127.246094"/>
      </g>
     </g>
    </g>
    <g id="xtick_10">
     <g id="line2d_28">
      <path d="M 250.357106 136.24 
L 250.357106 10.8 
" clip-path="url(#p22296a959c)" style="fill: none; stroke: #b0b0b0; stroke-width: 0.8; stroke-linecap: square"/>
     </g>
     <g id="line2d_29">
      <g>
       <use xlink:href="#m8eb0719181" x="250.357106" y="136.24" style="stroke: #000000; stroke-width: 0.8"/>
      </g>
     </g>
     <g id="text_17">
      <!-- 200 -->
      <g transform="translate(240.813356 150.838437) scale(0.1 -0.1)">
       <use xlink:href="#DejaVuSans-32"/>
       <use xlink:href="#DejaVuSans-30" x="63.623047"/>
       <use xlink:href="#DejaVuSans-30" x="127.246094"/>
      </g>
     </g>
    </g>
    <g id="xtick_11">
     <g id="line2d_30">
      <path d="M 301.152327 136.24 
L 301.152327 10.8 
" clip-path="url(#p22296a959c)" style="fill: none; stroke: #b0b0b0; stroke-width: 0.8; stroke-linecap: square"/>
     </g>
     <g id="line2d_31">
      <g>
       <use xlink:href="#m8eb0719181" x="301.152327" y="136.24" style="stroke: #000000; stroke-width: 0.8"/>
      </g>
     </g>
     <g id="text_18">
      <!-- 250 -->
      <g transform="translate(291.608577 150.838437) scale(0.1 -0.1)">
       <use xlink:href="#DejaVuSans-32"/>
       <use xlink:href="#DejaVuSans-35" x="63.623047"/>
       <use xlink:href="#DejaVuSans-30" x="127.246094"/>
      </g>
     </g>
    </g>
    <g id="xtick_12">
     <g id="line2d_32">
      <path d="M 351.947549 136.24 
L 351.947549 10.8 
" clip-path="url(#p22296a959c)" style="fill: none; stroke: #b0b0b0; stroke-width: 0.8; stroke-linecap: square"/>
     </g>
     <g id="line2d_33">
      <g>
       <use xlink:href="#m8eb0719181" x="351.947549" y="136.24" style="stroke: #000000; stroke-width: 0.8"/>
      </g>
     </g>
     <g id="text_19">
      <!-- 300 -->
      <g transform="translate(342.403799 150.838437) scale(0.1 -0.1)">
       <use xlink:href="#DejaVuSans-33"/>
       <use xlink:href="#DejaVuSans-30" x="63.623047"/>
       <use xlink:href="#DejaVuSans-30" x="127.246094"/>
      </g>
     </g>
    </g>
    <g id="xtick_13">
     <g id="line2d_34">
      <path d="M 402.74277 136.24 
L 402.74277 10.8 
" clip-path="url(#p22296a959c)" style="fill: none; stroke: #b0b0b0; stroke-width: 0.8; stroke-linecap: square"/>
     </g>
     <g id="line2d_35">
      <g>
       <use xlink:href="#m8eb0719181" x="402.74277" y="136.24" style="stroke: #000000; stroke-width: 0.8"/>
      </g>
     </g>
     <g id="text_20">
      <!-- 350 -->
      <g transform="translate(393.19902 150.838437) scale(0.1 -0.1)">
       <use xlink:href="#DejaVuSans-33"/>
       <use xlink:href="#DejaVuSans-35" x="63.623047"/>
       <use xlink:href="#DejaVuSans-30" x="127.246094"/>
      </g>
     </g>
    </g>
    <g id="text_21">
     <!-- Number of packet -->
     <g transform="translate(195.028125 164.516562) scale(0.1 -0.1)">
      <use xlink:href="#DejaVuSans-4e"/>
      <use xlink:href="#DejaVuSans-75" x="74.804688"/>
      <use xlink:href="#DejaVuSans-6d" x="138.183594"/>
      <use xlink:href="#DejaVuSans-62" x="235.595703"/>
      <use xlink:href="#DejaVuSans-65" x="299.072266"/>
      <use xlink:href="#DejaVuSans-72" x="360.595703"/>
      <use xlink:href="#DejaVuSans-20" x="401.708984"/>
      <use xlink:href="#DejaVuSans-6f" x="433.496094"/>
      <use xlink:href="#DejaVuSans-66" x="494.677734"/>
      <use xlink:href="#DejaVuSans-20" x="529.882812"/>
      <use xlink:href="#DejaVuSans-70" x="561.669922"/>
      <use xlink:href="#DejaVuSans-61" x="625.146484"/>
      <use xlink:href="#DejaVuSans-63" x="686.425781"/>
      <use xlink:href="#DejaVuSans-6b" x="741.40625"/>
      <use xlink:href="#DejaVuSans-65" x="795.691406"/>
      <use xlink:href="#DejaVuSans-74" x="857.214844"/>
     </g>
    </g>
   </g>
   <g id="matplotlib.axis_4">
    <g id="ytick_5">
     <g id="line2d_36">
      <path d="M 66.62 113.053739 
L 413.08 113.053739 
" clip-path="url(#p22296a959c)" style="fill: none; stroke: #b0b0b0; stroke-width: 0.8; stroke-linecap: square"/>
     </g>
     <g id="line2d_37">
      <g>
       <use xlink:href="#m27d77b2fdb" x="66.62" y="113.053739" style="stroke: #000000; stroke-width: 0.8"/>
      </g>
     </g>
     <g id="text_22">
      <!-- 0.0005 -->
      <g transform="translate(24.629375 116.852957) scale(0.1 -0.1)">
       <use xlink:href="#DejaVuSans-30"/>
       <use xlink:href="#DejaVuSans-2e" x="63.623047"/>
       <use xlink:href="#DejaVuSans-30" x="95.410156"/>
       <use xlink:href="#DejaVuSans-30" x="159.033203"/>
       <use xlink:href="#DejaVuSans-30" x="222.65625"/>
       <use xlink:href="#DejaVuSans-35" x="286.279297"/>
      </g>
     </g>
    </g>
    <g id="ytick_6">
     <g id="line2d_38">
      <path d="M 66.62 82.827623 
L 413.08 82.827623 
" clip-path="url(#p22296a959c)" style="fill: none; stroke: #b0b0b0; stroke-width: 0.8; stroke-linecap: square"/>
     </g>
     <g id="line2d_39">
      <g>
       <use xlink:href="#m27d77b2fdb" x="66.62" y="82.827623" style="stroke: #000000; stroke-width: 0.8"/>
      </g>
     </g>
     <g id="text_23">
      <!-- 0.0010 -->
      <g transform="translate(24.629375 86.626842) scale(0.1 -0.1)">
       <use xlink:href="#DejaVuSans-30"/>
       <use xlink:href="#DejaVuSans-2e" x="63.623047"/>
       <use xlink:href="#DejaVuSans-30" x="95.410156"/>
       <use xlink:href="#DejaVuSans-30" x="159.033203"/>
       <use xlink:href="#DejaVuSans-31" x="222.65625"/>
       <use xlink:href="#DejaVuSans-30" x="286.279297"/>
      </g>
     </g>
    </g>
    <g id="ytick_7">
     <g id="line2d_40">
      <path d="M 66.62 52.601508 
L 413.08 52.601508 
" clip-path="url(#p22296a959c)" style="fill: none; stroke: #b0b0b0; stroke-width: 0.8; stroke-linecap: square"/>
     </g>
     <g id="line2d_41">
      <g>
       <use xlink:href="#m27d77b2fdb" x="66.62" y="52.601508" style="stroke: #000000; stroke-width: 0.8"/>
      </g>
     </g>
     <g id="text_24">
      <!-- 0.0015 -->
      <g transform="translate(24.629375 56.400727) scale(0.1 -0.1)">
       <use xlink:href="#DejaVuSans-30"/>
       <use xlink:href="#DejaVuSans-2e" x="63.623047"/>
       <use xlink:href="#DejaVuSans-30" x="95.410156"/>
       <use xlink:href="#DejaVuSans-30" x="159.033203"/>
       <use xlink:href="#DejaVuSans-31" x="222.65625"/>
       <use xlink:href="#DejaVuSans-35" x="286.279297"/>
      </g>
     </g>
    </g>
    <g id="ytick_8">
     <g id="line2d_42">
      <path d="M 66.62 22.375393 
L 413.08 22.375393 
" clip-path="url(#p22296a959c)" style="fill: none; stroke: #b0b0b0; stroke-width: 0.8; stroke-linecap: square"/>
     </g>
     <g id="line2d_43">
      <g>
       <use xlink:href="#m27d77b2fdb" x="66.62" y="22.375393" style="stroke: #000000; stroke-width: 0.8"/>
      </g>
     </g>
     <g id="text_25">
      <!-- 0.0020 -->
      <g transform="translate(24.629375 26.174611) scale(0.1 -0.1)">
       <use xlink:href="#DejaVuSans-30"/>
       <use xlink:href="#DejaVuSans-2e" x="63.623047"/>
       <use xlink:href="#DejaVuSans-30" x="95.410156"/>
       <use xlink:href="#DejaVuSans-30" x="159.033203"/>
       <use xlink:href="#DejaVuSans-32" x="222.65625"/>
       <use xlink:href="#DejaVuSans-30" x="286.279297"/>
      </g>
     </g>
    </g>
    <g id="text_26">
     <!-- Energy consumption (J) -->
     <g transform="translate(18.549688 131.953594) rotate(-90) scale(0.1 -0.1)">
      <defs>
       <path id="DejaVuSans-45" d="M 628 4666 
L 3578 4666 
L 3578 4134 
L 1259 4134 
L 1259 2753 
L 3481 2753 
L 3481 2222 
L 1259 2222 
L 1259 531 
L 3634 531 
L 3634 0 
L 628 0 
L 628 4666 
z
" transform="scale(0.015625)"/>
       <path id="DejaVuSans-67" d="M 2906 1791 
Q 2906 2416 2648 2759 
Q 2391 3103 1925 3103 
Q 1463 3103 1205 2759 
Q 947 2416 947 1791 
Q 947 1169 1205 825 
Q 1463 481 1925 481 
Q 2391 481 2648 825 
Q 2906 1169 2906 1791 
z
M 3481 434 
Q 3481 -459 3084 -895 
Q 2688 -1331 1869 -1331 
Q 1566 -1331 1297 -1286 
Q 1028 -1241 775 -1147 
L 775 -588 
Q 1028 -725 1275 -790 
Q 1522 -856 1778 -856 
Q 2344 -856 2625 -561 
Q 2906 -266 2906 331 
L 2906 616 
Q 2728 306 2450 153 
Q 2172 0 1784 0 
Q 1141 0 747 490 
Q 353 981 353 1791 
Q 353 2603 747 3093 
Q 1141 3584 1784 3584 
Q 2172 3584 2450 3431 
Q 2728 3278 2906 2969 
L 2906 3500 
L 3481 3500 
L 3481 434 
z
" transform="scale(0.015625)"/>
       <path id="DejaVuSans-79" d="M 2059 -325 
Q 1816 -950 1584 -1140 
Q 1353 -1331 966 -1331 
L 506 -1331 
L 506 -850 
L 844 -850 
Q 1081 -850 1212 -737 
Q 1344 -625 1503 -206 
L 1606 56 
L 191 3500 
L 800 3500 
L 1894 763 
L 2988 3500 
L 3597 3500 
L 2059 -325 
z
" transform="scale(0.015625)"/>
       <path id="DejaVuSans-69" d="M 603 3500 
L 1178 3500 
L 1178 0 
L 603 0 
L 603 3500 
z
M 603 4863 
L 1178 4863 
L 1178 4134 
L 603 4134 
L 603 4863 
z
" transform="scale(0.015625)"/>
       <path id="DejaVuSans-4a" d="M 628 4666 
L 1259 4666 
L 1259 325 
Q 1259 -519 939 -900 
Q 619 -1281 -91 -1281 
L -331 -1281 
L -331 -750 
L -134 -750 
Q 284 -750 456 -515 
Q 628 -281 628 325 
L 628 4666 
z
" transform="scale(0.015625)"/>
      </defs>
      <use xlink:href="#DejaVuSans-45"/>
      <use xlink:href="#DejaVuSans-6e" x="63.183594"/>
      <use xlink:href="#DejaVuSans-65" x="126.5625"/>
      <use xlink:href="#DejaVuSans-72" x="188.085938"/>
      <use xlink:href="#DejaVuSans-67" x="227.449219"/>
      <use xlink:href="#DejaVuSans-79" x="290.925781"/>
      <use xlink:href="#DejaVuSans-20" x="350.105469"/>
      <use xlink:href="#DejaVuSans-63" x="381.892578"/>
      <use xlink:href="#DejaVuSans-6f" x="436.873047"/>
      <use xlink:href="#DejaVuSans-6e" x="498.054688"/>
      <use xlink:href="#DejaVuSans-73" x="561.433594"/>
      <use xlink:href="#DejaVuSans-75" x="613.533203"/>
      <use xlink:href="#DejaVuSans-6d" x="676.912109"/>
      <use xlink:href="#DejaVuSans-70" x="774.324219"/>
      <use xlink:href="#DejaVuSans-74" x="837.800781"/>
      <use xlink:href="#DejaVuSans-69" x="877.009766"/>
      <use xlink:href="#DejaVuSans-6f" x="904.792969"/>
      <use xlink:href="#DejaVuSans-6e" x="965.974609"/>
      <use xlink:href="#DejaVuSans-20" x="1029.353516"/>
      <use xlink:href="#DejaVuSans-28" x="1061.140625"/>
      <use xlink:href="#DejaVuSans-4a" x="1100.154297"/>
      <use xlink:href="#DejaVuSans-29" x="1129.646484"/>
     </g>
    </g>
   </g>
   <g id="line2d_44">
    <path d="M 397.331818 16.501818 
L 294.773618 53.634245 
L 249.338649 70.084521 
L 222.254019 79.890836 
L 203.770564 86.582993 
L 190.126644 91.522937 
L 179.522596 95.36226 
L 170.974919 98.457049 
L 163.894753 101.020509 
L 157.905143 103.189119 
L 152.752105 105.054838 
L 148.257434 106.682187 
L 144.29191 108.117953 
L 140.75924 109.396999 
L 137.586007 110.545906 
L 134.71512 111.585345 
L 132.101427 112.531664 
L 129.708686 113.397984 
L 127.507424 114.194978 
L 125.473392 114.931423 
L 123.586436 115.614618 
L 121.829644 116.250686 
L 120.188709 116.844806 
L 118.651432 117.401396 
L 117.20734 117.924247 
L 115.847383 118.416635 
L 114.563696 118.881409 
L 113.349408 119.321057 
L 112.198482 119.737764 
L 111.105593 120.133457 
L 110.066022 120.509846 
L 109.07557 120.868452 
L 108.130486 121.210631 
L 107.22741 121.5376 
L 106.363319 121.850455 
L 105.535486 122.150181 
L 104.741446 122.437673 
L 103.978959 122.713741 
L 103.24599 122.979121 
L 102.540681 123.234486 
L 101.861337 123.480451 
L 101.206402 123.717578 
L 100.574448 123.946385 
L 99.964163 124.167346 
L 99.374335 124.3809 
L 98.803846 124.587452 
L 98.251663 124.787377 
L 97.716827 124.981021 
L 97.198448 125.168706 
L 96.6957 125.350732 
L 96.207811 125.527378 
L 95.734065 125.698904 
L 95.273791 125.865551 
L 94.826362 126.027548 
L 94.391191 126.185107 
L 93.96773 126.338426 
L 93.555462 126.487693 
L 93.153903 126.633082 
L 92.762596 126.774759 
L 92.381113 126.91288 
L 92.00905 127.04759 
L 91.646026 127.179027 
L 91.291679 127.307323 
L 90.94567 127.432599 
L 90.607677 127.554974 
L 90.277395 127.674556 
L 89.954535 127.791452 
L 89.638824 127.905759 
L 89.33 128.017572 
L 89.027819 128.12698 
L 88.732044 128.234069 
L 88.442453 128.338919 
L 88.158833 128.441607 
L 87.880982 128.542207 
L 87.608706 128.640787 
L 87.341822 128.737416 
L 87.080154 128.832156 
L 86.823534 128.925068 
L 86.571803 129.01621 
L 86.324806 129.105639 
L 86.082398 129.193405 
L 85.844437 129.279562 
L 85.61079 129.364157 
L 85.381328 129.447236 
L 85.155927 129.528845 
L 84.934469 129.609027 
L 84.716841 129.687822 
L 84.502932 129.76527 
L 84.292639 129.841409 
L 84.085861 129.916275 
L 83.8825 129.989905 
L 83.682465 130.06233 
L 83.485664 130.133584 
L 83.292012 130.203698 
L 83.101426 130.272702 
L 82.913826 130.340625 
L 82.729134 130.407495 
L 82.547277 130.473338 
L 82.368182 130.538182 
" clip-path="url(#p22296a959c)" style="fill: none; stroke: #1f77b4; stroke-width: 1.5; stroke-linecap: square"/>
   </g>
   <g id="patch_10">
    <path d="M 66.62 136.24 
L 66.62 10.8 
" style="fill: none; stroke: #000000; stroke-width: 0.8; stroke-linejoin: miter; stroke-linecap: square"/>
   </g>
   <g id="patch_11">
    <path d="M 413.08 136.24 
L 413.08 10.8 
" style="fill: none; stroke: #000000; stroke-width: 0.8; stroke-linejoin: miter; stroke-linecap: square"/>
   </g>
   <g id="patch_12">
    <path d="M 66.62 136.24 
L 413.08 136.24 
" style="fill: none; stroke: #000000; stroke-width: 0.8; stroke-linejoin: miter; stroke-linecap: square"/>
   </g>
   <g id="patch_13">
    <path d="M 66.62 10.8 
L 413.08 10.8 
" style="fill: none; stroke: #000000; stroke-width: 0.8; stroke-linejoin: miter; stroke-linecap: square"/>
   </g>
   <g id="legend_2">
    <g id="patch_14">
     <path d="M 73.62 33.478125 
L 208.555938 33.478125 
Q 210.555938 33.478125 210.555938 31.478125 
L 210.555938 17.8 
Q 210.555938 15.8 208.555938 15.8 
L 73.62 15.8 
Q 71.62 15.8 71.62 17.8 
L 71.62 31.478125 
Q 71.62 33.478125 73.62 33.478125 
z
" style="fill: #ffffff; opacity: 0.8; stroke: #cccccc; stroke-linejoin: miter"/>
    </g>
    <g id="line2d_45">
     <path d="M 75.62 23.898438 
L 85.62 23.898438 
L 95.62 23.898438 
" style="fill: none; stroke: #1f77b4; stroke-width: 1.5; stroke-linecap: square"/>
    </g>
    <g id="text_27">
     <!-- Energy consumption -->
     <g transform="translate(103.62 27.398438) scale(0.1 -0.1)">
      <use xlink:href="#DejaVuSans-45"/>
      <use xlink:href="#DejaVuSans-6e" x="63.183594"/>
      <use xlink:href="#DejaVuSans-65" x="126.5625"/>
      <use xlink:href="#DejaVuSans-72" x="188.085938"/>
      <use xlink:href="#DejaVuSans-67" x="227.449219"/>
      <use xlink:href="#DejaVuSans-79" x="290.925781"/>
      <use xlink:href="#DejaVuSans-20" x="350.105469"/>
      <use xlink:href="#DejaVuSans-63" x="381.892578"/>
      <use xlink:href="#DejaVuSans-6f" x="436.873047"/>
      <use xlink:href="#DejaVuSans-6e" x="498.054688"/>
      <use xlink:href="#DejaVuSans-73" x="561.433594"/>
      <use xlink:href="#DejaVuSans-75" x="613.533203"/>
      <use xlink:href="#DejaVuSans-6d" x="676.912109"/>
      <use xlink:href="#DejaVuSans-70" x="774.324219"/>
      <use xlink:href="#DejaVuSans-74" x="837.800781"/>
      <use xlink:href="#DejaVuSans-69" x="877.009766"/>
      <use xlink:href="#DejaVuSans-6f" x="904.792969"/>
      <use xlink:href="#DejaVuSans-6e" x="965.974609"/>
     </g>
    </g>
   </g>
  </g>
  <g id="axes_3">
   <g id="matplotlib.axis_5">
    <g id="ytick_9">
     <g id="line2d_46">
      <defs>
       <path id="m6e6b11b2e1" d="M 0 0 
L 3.5 0 
" style="stroke: #ff0000; stroke-width: 0.8"/>
      </defs>
      <g>
       <use xlink:href="#m6e6b11b2e1" x="413.08" y="118.758495" style="fill: #ff0000; stroke: #ff0000; stroke-width: 0.8"/>
      </g>
     </g>
     <g id="text_28">
      <!-- 0.1 -->
      <g style="fill: #ff0000" transform="translate(420.08 122.557713) scale(0.1 -0.1)">
       <use xlink:href="#DejaVuSans-30"/>
       <use xlink:href="#DejaVuSans-2e" x="63.623047"/>
       <use xlink:href="#DejaVuSans-31" x="95.410156"/>
      </g>
     </g>
    </g>
    <g id="ytick_10">
     <g id="line2d_47">
      <g>
       <use xlink:href="#m6e6b11b2e1" x="413.08" y="94.237135" style="fill: #ff0000; stroke: #ff0000; stroke-width: 0.8"/>
      </g>
     </g>
     <g id="text_29">
      <!-- 0.2 -->
      <g style="fill: #ff0000" transform="translate(420.08 98.036354) scale(0.1 -0.1)">
       <use xlink:href="#DejaVuSans-30"/>
       <use xlink:href="#DejaVuSans-2e" x="63.623047"/>
       <use xlink:href="#DejaVuSans-32" x="95.410156"/>
      </g>
     </g>
    </g>
    <g id="ytick_11">
     <g id="line2d_48">
      <g>
       <use xlink:href="#m6e6b11b2e1" x="413.08" y="69.715776" style="fill: #ff0000; stroke: #ff0000; stroke-width: 0.8"/>
      </g>
     </g>
     <g id="text_30">
      <!-- 0.3 -->
      <g style="fill: #ff0000" transform="translate(420.08 73.514995) scale(0.1 -0.1)">
       <use xlink:href="#DejaVuSans-30"/>
       <use xlink:href="#DejaVuSans-2e" x="63.623047"/>
       <use xlink:href="#DejaVuSans-33" x="95.410156"/>
      </g>
     </g>
    </g>
    <g id="ytick_12">
     <g id="line2d_49">
      <g>
       <use xlink:href="#m6e6b11b2e1" x="413.08" y="45.194417" style="fill: #ff0000; stroke: #ff0000; stroke-width: 0.8"/>
      </g>
     </g>
     <g id="text_31">
      <!-- 0.4 -->
      <g style="fill: #ff0000" transform="translate(420.08 48.993636) scale(0.1 -0.1)">
       <use xlink:href="#DejaVuSans-30"/>
       <use xlink:href="#DejaVuSans-2e" x="63.623047"/>
       <use xlink:href="#DejaVuSans-34" x="95.410156"/>
      </g>
     </g>
    </g>
    <g id="ytick_13">
     <g id="line2d_50">
      <g>
       <use xlink:href="#m6e6b11b2e1" x="413.08" y="20.673058" style="fill: #ff0000; stroke: #ff0000; stroke-width: 0.8"/>
      </g>
     </g>
     <g id="text_32">
      <!-- 0.5 -->
      <g style="fill: #ff0000" transform="translate(420.08 24.472277) scale(0.1 -0.1)">
       <use xlink:href="#DejaVuSans-30"/>
       <use xlink:href="#DejaVuSans-2e" x="63.623047"/>
       <use xlink:href="#DejaVuSans-35" x="95.410156"/>
      </g>
     </g>
    </g>
    <g id="text_33">
     <!-- Measurement time -->
     <g style="fill: #ff0000" transform="translate(447.581563 120.728594) rotate(-90) scale(0.1 -0.1)">
      <defs>
       <path id="DejaVuSans-4d" d="M 628 4666 
L 1569 4666 
L 2759 1491 
L 3956 4666 
L 4897 4666 
L 4897 0 
L 4281 0 
L 4281 4097 
L 3078 897 
L 2444 897 
L 1241 4097 
L 1241 0 
L 628 0 
L 628 4666 
z
" transform="scale(0.015625)"/>
      </defs>
      <use xlink:href="#DejaVuSans-4d"/>
      <use xlink:href="#DejaVuSans-65" x="86.279297"/>
      <use xlink:href="#DejaVuSans-61" x="147.802734"/>
      <use xlink:href="#DejaVuSans-73" x="209.082031"/>
      <use xlink:href="#DejaVuSans-75" x="261.181641"/>
      <use xlink:href="#DejaVuSans-72" x="324.560547"/>
      <use xlink:href="#DejaVuSans-65" x="363.423828"/>
      <use xlink:href="#DejaVuSans-6d" x="424.947266"/>
      <use xlink:href="#DejaVuSans-65" x="522.359375"/>
      <use xlink:href="#DejaVuSans-6e" x="583.882812"/>
      <use xlink:href="#DejaVuSans-74" x="647.261719"/>
      <use xlink:href="#DejaVuSans-20" x="686.470703"/>
      <use xlink:href="#DejaVuSans-74" x="718.257812"/>
      <use xlink:href="#DejaVuSans-69" x="757.466797"/>
      <use xlink:href="#DejaVuSans-6d" x="785.25"/>
      <use xlink:href="#DejaVuSans-65" x="882.662109"/>
     </g>
    </g>
   </g>
   <g id="line2d_51">
    <path d="M 397.331818 16.501818 
L 294.773618 53.634245 
L 249.338649 70.084521 
L 222.254019 79.890836 
L 203.770564 86.582993 
L 190.126644 91.522937 
L 179.522596 95.36226 
L 170.974919 98.457049 
L 163.894753 101.020509 
L 157.905143 103.189119 
L 152.752105 105.054838 
L 148.257434 106.682187 
L 144.29191 108.117953 
L 140.75924 109.396999 
L 137.586007 110.545906 
L 134.71512 111.585345 
L 132.101427 112.531664 
L 129.708686 113.397984 
L 127.507424 114.194978 
L 125.473392 114.931423 
L 123.586436 115.614618 
L 121.829644 116.250686 
L 120.188709 116.844806 
L 118.651432 117.401396 
L 117.20734 117.924247 
L 115.847383 118.416635 
L 114.563696 118.881409 
L 113.349408 119.321057 
L 112.198482 119.737764 
L 111.105593 120.133457 
L 110.066022 120.509846 
L 109.07557 120.868452 
L 108.130486 121.210631 
L 107.22741 121.5376 
L 106.363319 121.850455 
L 105.535486 122.150181 
L 104.741446 122.437673 
L 103.978959 122.713741 
L 103.24599 122.979121 
L 102.540681 123.234486 
L 101.861337 123.480451 
L 101.206402 123.717578 
L 100.574448 123.946385 
L 99.964163 124.167346 
L 99.374335 124.3809 
L 98.803846 124.587452 
L 98.251663 124.787377 
L 97.716827 124.981021 
L 97.198448 125.168706 
L 96.6957 125.350732 
L 96.207811 125.527378 
L 95.734065 125.698904 
L 95.273791 125.865551 
L 94.826362 126.027548 
L 94.391191 126.185107 
L 93.96773 126.338426 
L 93.555462 126.487693 
L 93.153903 126.633082 
L 92.762596 126.774759 
L 92.381113 126.91288 
L 92.00905 127.04759 
L 91.646026 127.179027 
L 91.291679 127.307323 
L 90.94567 127.432599 
L 90.607677 127.554974 
L 90.277395 127.674556 
L 89.954535 127.791452 
L 89.638824 127.905759 
L 89.33 128.017572 
L 89.027819 128.12698 
L 88.732044 128.234069 
L 88.442453 128.338919 
L 88.158833 128.441607 
L 87.880982 128.542207 
L 87.608706 128.640787 
L 87.341822 128.737416 
L 87.080154 128.832156 
L 86.823534 128.925068 
L 86.571803 129.01621 
L 86.324806 129.105639 
L 86.082398 129.193405 
L 85.844437 129.279562 
L 85.61079 129.364157 
L 85.381328 129.447236 
L 85.155927 129.528845 
L 84.934469 129.609027 
L 84.716841 129.687822 
L 84.502932 129.76527 
L 84.292639 129.841409 
L 84.085861 129.916275 
L 83.8825 129.989905 
L 83.682465 130.06233 
L 83.485664 130.133584 
L 83.292012 130.203698 
L 83.101426 130.272702 
L 82.913826 130.340625 
L 82.729134 130.407495 
L 82.547277 130.473338 
L 82.368182 130.538182 
" clip-path="url(#p22296a959c)" style="fill: none; stroke: #1f77b4; stroke-width: 1.5; stroke-linecap: square"/>
   </g>
   <g id="patch_15">
    <path d="M 66.62 136.24 
L 66.62 10.8 
" style="fill: none; stroke: #000000; stroke-width: 0.8; stroke-linejoin: miter; stroke-linecap: square"/>
   </g>
   <g id="patch_16">
    <path d="M 413.08 136.24 
L 413.08 10.8 
" style="fill: none; stroke: #000000; stroke-width: 0.8; stroke-linejoin: miter; stroke-linecap: square"/>
   </g>
   <g id="patch_17">
    <path d="M 66.62 136.24 
L 413.08 136.24 
" style="fill: none; stroke: #000000; stroke-width: 0.8; stroke-linejoin: miter; stroke-linecap: square"/>
   </g>
   <g id="patch_18">
    <path d="M 66.62 10.8 
L 413.08 10.8 
" style="fill: none; stroke: #000000; stroke-width: 0.8; stroke-linejoin: miter; stroke-linecap: square"/>
   </g>
  </g>
 </g>
 <defs>
  <clipPath id="p68fddd4cfe">
   <rect x="66.62" y="178.2" width="346.46" height="125.44"/>
  </clipPath>
  <clipPath id="p22296a959c">
   <rect x="66.62" y="10.8" width="346.46" height="125.44"/>
  </clipPath>
 </defs>
</svg>
